SplineFontDB: 3.0
FontName: Rokkitt-ExtraBold
FullName: Rokkitt ExtraBold
FamilyName: Rokkitt
Weight: ExtraBold
Copyright: 
Version: 2
ItalicAngle: 0
UnderlinePosition: 0
UnderlineWidth: 0
Ascent: 1638
Descent: 410
UFOAscent: 1152
UFODescent: -410
LayerCount: 2
Layer: 0 0 "Back"  1
Layer: 1 0 "Fore"  0
FSType: 0
OS2Version: 0
OS2_WeightWidthSlopeOnly: 0
OS2_UseTypoMetrics: 1
CreationTime: 1390513506
ModificationTime: 1390528317
PfmFamily: 17
TTFWeight: 800
TTFWidth: 5
LineGap: 0
VLineGap: 0
OS2TypoAscent: 0
OS2TypoAOffset: 1
OS2TypoDescent: 0
OS2TypoDOffset: 1
OS2TypoLinegap: 0
OS2WinAscent: 0
OS2WinAOffset: 1
OS2WinDescent: 0
OS2WinDOffset: 1
HheadAscent: 0
HheadAOffset: 1
HheadDescent: 0
HheadDOffset: 1
OS2Vendor: 'NeWT'
Lookup: 258 0 0 "'kern' Horizontal Kerning in Latin lookup 0"  {"'kern' Horizontal Kerning in Latin lookup 0 subtable"  } ['kern' ('latn' <'dflt' > ) ]
MarkAttachClasses: 1
DEI: 91125
LangName: 1033 
PickledData: "(dp1
S'com.typemytype.robofont.compileSettings.generateFormat'
p2
I0
sS'com.petr.ptt'
p3
(dp4
S'originals'
p5
(dp6
S'maxp'
p7
(dp8
S'numGlyphs'
p9
I423
sS'tableTag'
p10
S'maxp'
p11
sS'tableVersion'
p12
I20480
ssssS'com.schriftgestaltung.weight'
p13
S'Light'
p14
sS'com.typemytype.robofont.compileSettings.autohint'
p15
I0
sS'GSDimensionPlugin.Dimensions'
p16
(dp17
S'1F09728C-766D-4240-AE17-E499EF32E23D'
p18
(dp19
sS'98C086B7-81AA-4491-8494-0C6A76849168'
p20
(dp21
sS'EFCDB4D9-E20B-4A8D-9DB5-150AD166B0AE'
p22
(dp23
ssS'com.typemytype.robofont.compileSettings.checkOutlines'
p24
I1
sS'com.typemytype.robofont.compileSettings.MacRomanFirst'
p25
I1
sS'com.typemytype.robofont.shouldAddPointsInSplineConversion'
p26
I1
sS'com.typemytype.robofont.compileSettings.decompose'
p27
I1
sS'com.typemytype.robofont.compileSettings.path'
p28
S'/Users/vern/Github/RokkittFont/in-progress/roman/Light/Rokkitt-Light.otf'
p29
sS'com.typemytype.robofont.layerOrder'
p30
(S'b'
tp31
sS'com.typemytype.robofont.segmentType'
p32
S'curve'
p33

StartChar: A
Encoding: 65 65 1
Width: 1539
VWidth: 0
Flags: HW
PickledData: "(dp1
S'org.robofab.postScriptHintData'
p2
(dp3
sS'com.typemytype.robofont.layerData'
p4
(dp5
S'b'
(dp6
S'name'
p7
S'A'
sS'lib'
p8
(dp9
sS'unicodes'
p10
(tsS'width'
p11
I1433
sS'contours'
p12
(tsS'components'
p13
(tsS'anchors'
p14
(tsss."
AnchorPoint: "top" 753 1152 basechar 0
LayerCount: 2
Fore
SplineSet
576 568 m 1
 718 960 l 1
 732 960 l 1
 867 568 l 1
 576 568 l 1
48 0 m 1
 614 0 l 1
 614 182 l 1
 450 182 l 1
 531 419 l 1
 914 419 l 1
 994 182 l 1
 821 182 l 1
 821 0 l 1
 1491 0 l 1
 1491 182 l 1
 1343 182 l 1
 1035 970 l 1
 1170 970 l 1
 1170 1152 l 1
 361 1152 l 1
 361 970 l 1
 504 970 l 1
 198 182 l 1
 48 182 l 1
 48 0 l 1
EndSplineSet
EndChar

StartChar: AE
Encoding: 198 198 2
Width: 1941
VWidth: 0
Flags: HW
PickledData: "(dp1
S'org.robofab.postScriptHintData'
p2
(dp3
sS'com.typemytype.robofont.layerData'
p4
(dp5
S'b'
(dp6
S'name'
p7
S'AE'
p8
sS'lib'
p9
(dp10
sS'unicodes'
p11
(tsS'width'
p12
I1877
sS'contours'
p13
(tsS'components'
p14
(tsS'anchors'
p15
(tsss."
AnchorPoint: "top" 1217 1152 basechar 0
LayerCount: 2
Fore
SplineSet
14 0 m 257
 580 0 l 257
 580 182 l 257
 473 182 l 257
 599 413 l 257
 937 413 l 257
 937 182 l 257
 794 182 l 257
 794 0 l 257
 1877 0 l 257
 1877 373 l 257
 1693 373 l 257
 1693 182 l 257
 1253 182 l 257
 1253 524 l 257
 1480 524 l 257
 1480 393 l 257
 1600 393 l 257
 1600 789 l 257
 1480 789 l 257
 1480 649 l 257
 1252 649 l 257
 1252 970 l 257
 1691 970 l 257
 1691 786 l 257
 1875 786 l 257
 1875 1152 l 257
 525 1152 l 257
 525 970 l 257
 643 970 l 257
 172 182 l 257
 14 182 l 257
 14 0 l 257
665 544 m 257
 913 970 l 257
 937 970 l 257
 937 544 l 257
 665 544 l 257
EndSplineSet
EndChar

StartChar: B
Encoding: 66 66 14
Width: 1314
VWidth: 0
Flags: HW
PickledData: "(dp1
S'org.robofab.postScriptHintData'
p2
(dp3
sS'com.typemytype.robofont.layerData'
p4
(dp5
S'b'
(dp6
S'name'
p7
S'B'
sS'lib'
p8
(dp9
sS'unicodes'
p10
(tsS'width'
p11
I1260
sS'contours'
p12
((dp13
S'points'
p14
((dp15
S'segmentType'
p16
S'line'
p17
sS'x'
I353
sS'smooth'
p18
I0
sS'y'
I1095
s(dp19
g16
S'line'
p20
sS'x'
I740
sg18
I1
sS'y'
I1095
s(dp21
S'y'
I1095
sS'x'
I917
sg18
I0
s(dp22
S'y'
I983
sS'x'
I1004
sg18
I0
s(dp23
g16
S'curve'
p24
sS'x'
I1004
sg18
I1
sS'y'
I868
s(dp25
S'y'
I751
sS'x'
I1004
sg18
I0
s(dp26
S'y'
I634
sS'x'
I928
sg18
I0
s(dp27
g16
S'curve'
p28
sS'x'
I784
sg18
I1
sS'y'
I634
s(dp29
g16
S'line'
p30
sS'x'
I353
sg18
I0
sS'y'
I634
stp31
s(dp32
g14
((dp33
g16
S'line'
p34
sS'x'
I353
sg18
I0
sS'y'
I573
s(dp35
g16
S'line'
p36
sS'x'
I793
sg18
I1
sS'y'
I573
s(dp37
S'y'
I573
sS'x'
I979
sg18
I0
s(dp38
S'y'
I439
sS'x'
I1072
sg18
I0
s(dp39
g16
S'curve'
p40
sS'x'
I1072
sg18
I1
sS'y'
I320
s(dp41
S'y'
I187
sS'x'
I1072
sg18
I0
s(dp42
S'y'
I58
sS'x'
I985
sg18
I0
s(dp43
g16
S'curve'
p44
sS'x'
I807
sg18
I1
sS'y'
I58
s(dp45
g16
S'line'
p46
sS'x'
I353
sg18
I0
sS'y'
I58
stp47
s(dp48
g14
((dp49
g16
S'line'
p50
sS'x'
I807
sg18
I1
sS'y'
I0
s(dp51
S'y'
I0
sS'x'
I1031
sg18
I0
s(dp52
S'y'
I158
sS'x'
I1146
sg18
I0
s(dp53
g16
S'curve'
p54
sS'x'
I1146
sg18
I1
sS'y'
I316
s(dp55
S'y'
I439
sS'x'
I1146
sg18
I0
s(dp56
S'y'
I568
sS'x'
I1074
sg18
I0
s(dp57
g16
S'curve'
p58
sS'x'
I919
sg18
I0
sS'y'
I611
s(dp59
S'y'
I669
sS'x'
I1029
sg18
I0
s(dp60
S'y'
I769
sS'x'
I1079
sg18
I0
s(dp61
g16
S'curve'
p62
sS'x'
I1079
sg18
I1
sS'y'
I870
s(dp63
S'y'
I1012
sS'x'
I1079
sg18
I0
s(dp64
S'y'
I1154
sS'x'
I964
sg18
I0
s(dp65
g16
S'curve'
p66
sS'x'
I740
sg18
I1
sS'y'
I1154
s(dp67
g16
S'line'
p68
sS'x'
I122
sg18
I0
sS'y'
I1154
s(dp69
g16
S'line'
p70
sS'x'
I122
sg18
I0
sS'y'
I1095
s(dp71
g16
S'line'
p72
sS'x'
I278
sg18
I0
sS'y'
I1095
s(dp73
g16
S'line'
p74
sS'x'
I278
sg18
I0
sS'y'
I58
s(dp75
g16
S'line'
p76
sS'x'
I135
sg18
I0
sS'y'
I58
s(dp77
g16
S'line'
p78
sS'x'
I135
sg18
I0
sS'y'
I0
stp79
stp80
sS'components'
p81
(tsS'anchors'
p82
(tsss."
AnchorPoint: "top" 568 1152 basechar 0
LayerCount: 2
Fore
SplineSet
744 1152 m 2
 50 1152 l 1
 50 970 l 1
 214 970 l 1
 214 182 l 1
 50 182 l 1
 50 0 l 1
 716 0 l 2
 1130 0 1241 169 1241 344 c 0
 1241 467 1172 589 973 626 c 1
 1110 660 1182 747 1182 880 c 0
 1182 1041 1042 1152 744 1152 c 2
693 971 m 1
 813 965 861 928 861 844 c 0
 861 745 804 702 667 702 c 2
 529 702 l 1
 529 970 l 1
 693 970 l 1
 693 971 l 1
529 532 m 1
 685 532 l 2
 868 532 914 449 914 360 c 0
 914 259 860 183 683 183 c 2
 529 183 l 1
 529 532 l 1
EndSplineSet
EndChar

StartChar: C
Encoding: 67 67 16
Width: 1423
VWidth: 0
Flags: HW
PickledData: "(dp1
S'org.robofab.postScriptHintData'
p2
(dp3
sS'com.typemytype.robofont.layerData'
p4
(dp5
S'b'
(dp6
S'name'
p7
S'C'
sS'lib'
p8
(dp9
sS'unicodes'
p10
(tsS'width'
p11
I1440
sS'contours'
p12
(tsS'components'
p13
(tsS'anchors'
p14
(tsss."
AnchorPoint: "bot" 715 0 basechar 0
AnchorPoint: "top" 736 1152 basechar 0
LayerCount: 2
Fore
SplineSet
737 -22 m 0
 1062 -21 1270 123 1335 392 c 1
 1101 466 l 1
 1057 262 911 192 752 192 c 0
 533 192 399 351 399 577 c 0
 399 806 533 960 750 960 c 0
 904 960 1019 901 1090 743 c 1
 1306 743 l 1
 1306 1153 l 1
 1101 1153 l 1
 1101 1033 l 1
 1057 1081 944 1174 738 1174 c 0
 353 1174 85 939 85 571 c 0
 85 218 340 -21 737 -22 c 0
EndSplineSet
EndChar

StartChar: D
Encoding: 68 68 23
Width: 1484
VWidth: 0
Flags: HW
PickledData: "(dp1
S'org.robofab.postScriptHintData'
p2
(dp3
sS'com.typemytype.robofont.layerData'
p4
(dp5
S'b'
(dp6
S'name'
p7
S'D'
sS'lib'
p8
(dp9
sS'unicodes'
p10
(tsS'width'
p11
I1488
sS'contours'
p12
(tsS'components'
p13
(tsS'anchors'
p14
(tsss."
AnchorPoint: "top" 696 1150 basechar 0
LayerCount: 2
Fore
SplineSet
753 1152 m 2
 52 1152 l 1
 52 970 l 1
 216 970 l 1
 216 182 l 1
 52 182 l 1
 52 0 l 1
 752 0 l 2
 1186 0 1403 223 1403 585 c 0
 1403 897 1189 1152 753 1152 c 2
531 970 m 1
 603 970 676 970 748 970 c 0
 968 970 1067 801 1067 582 c 0
 1067 338 970 182 745 182 c 0
 674 182 602 182 531 182 c 1
 531 970 l 1
EndSplineSet
EndChar

StartChar: Delta
Encoding: 916 916 27
Width: 1198
VWidth: 0
Flags: HW
PickledData: "(dp1
S'org.robofab.postScriptHintData'
p2
(dp3
s."
LayerCount: 2
Fore
SplineSet
71 0 m 257
 1127 0 l 257
 1127 150 l 257
 717 1152 l 257
 477 1152 l 257
 71 150 l 257
 71 0 l 257
298 187 m 257
 576 919 l 257
 839 187 l 257
 298 187 l 257
EndSplineSet
EndChar

StartChar: E
Encoding: 69 69 30
Width: 1249
VWidth: 0
Flags: HW
PickledData: "(dp1
S'org.robofab.postScriptHintData'
p2
(dp3
sS'com.typemytype.robofont.layerData'
p4
(dp5
S'b'
(dp6
S'name'
p7
S'E'
sS'lib'
p8
(dp9
sS'unicodes'
p10
(tsS'width'
p11
I1314
sS'contours'
p12
(tsS'components'
p13
(tsS'anchors'
p14
(tsss."
AnchorPoint: "bot" 622 0 basechar 0
AnchorPoint: "top" 658 1152 basechar 0
LayerCount: 2
Fore
SplineSet
950 781 m 1
 1174 781 l 1
 1174 1152 l 1
 51 1152 l 1
 51 970 l 1
 215 970 l 1
 215 182 l 1
 51 182 l 1
 51 0 l 1
 1180 0 l 1
 1180 401 l 1
 952 401 l 1
 952 183 l 1
 530 183 l 1
 530 511 l 1
 762 511 l 1
 762 403 l 1
 866 403 l 1
 866 812 l 1
 761 812 l 1
 761 693 l 1
 530 693 l 1
 530 967 l 1
 950 970 l 1
 950 781 l 1
EndSplineSet
EndChar

StartChar: Eng
Encoding: 330 330 39
Width: 1601
VWidth: 0
Flags: HW
PickledData: "(dp1
S'org.robofab.postScriptHintData'
p2
(dp3
s."
LayerCount: 2
Fore
SplineSet
868 -379 m 257
 1127 -379 1377 -355 1377 -14 c 258
 1377 325 l 257
 1164 325 l 257
 1164 -11 l 257
 1165 -190 1018 -215 868 -215 c 257
 868 -379 l 257
EndSplineSet
Refer: 79 78 N 1 0 0 1 0 0 2
EndChar

StartChar: Euro
Encoding: 8364 8364 42
Width: 1433
VWidth: 0
Flags: HW
PickledData: "(dp1
S'org.robofab.postScriptHintData'
p2
(dp3
s."
LayerCount: 2
Fore
SplineSet
-19 395 m 257
 662 395 l 257
 702 516 l 257
 296 516 l 257
 296 634 l 257
 662 634 l 257
 702 755 l 257
 21 755 l 257
 -19 634 l 257
 224 634 l 257
 224 516 l 257
 21 516 l 257
 -19 395 l 257
EndSplineSet
Refer: 16 67 N 1 0 0 1 0 0 2
EndChar

StartChar: F
Encoding: 70 70 43
Width: 1188
VWidth: 0
Flags: HW
PickledData: "(dp1
S'org.robofab.postScriptHintData'
p2
(dp3
sS'com.typemytype.robofont.layerData'
p4
(dp5
S'b'
(dp6
S'name'
p7
S'F'
sS'lib'
p8
(dp9
sS'unicodes'
p10
(tsS'width'
p11
I1193
sS'contours'
p12
((dp13
S'points'
p14
((dp15
S'segmentType'
p16
S'line'
p17
sS'x'
I990
sS'smooth'
p18
I0
sS'y'
I1086
s(dp19
g16
S'line'
p20
sS'x'
I990
sg18
I0
sS'y'
I802
s(dp21
g16
S'line'
p22
sS'x'
I1062
sg18
I0
sS'y'
I802
s(dp23
g16
S'line'
p24
sS'x'
I1062
sg18
I0
sS'y'
I1152
s(dp25
g16
S'line'
p26
sS'x'
I122
sg18
I0
sS'y'
I1152
s(dp27
g16
S'line'
p28
sS'x'
I122
sg18
I0
sS'y'
I1086
s(dp29
g16
S'line'
p30
sS'x'
I286
sg18
I0
sS'y'
I1086
s(dp31
g16
S'line'
p32
sS'x'
I286
sg18
I0
sS'y'
I1039
s(dp33
g16
S'line'
p34
sS'x'
I363
sg18
I0
sS'y'
I1039
s(dp35
g16
S'line'
p36
sS'x'
I363
sg18
I0
sS'y'
I1086
stp37
s(dp38
g14
((dp39
g16
S'line'
p40
sS'x'
I286
sg18
I0
sS'y'
I1039
s(dp41
g16
S'line'
p42
sS'x'
I286
sg18
I0
sS'y'
I677
s(dp43
g16
S'line'
p44
sS'x'
I363
sg18
I0
sS'y'
I677
s(dp45
g16
S'line'
p46
sS'x'
I363
sg18
I0
sS'y'
I1039
stp47
s(dp48
g14
((dp49
g16
S'line'
p50
sS'x'
I286
sg18
I0
sS'y'
I677
s(dp51
g16
S'line'
p52
sS'x'
I286
sg18
I0
sS'y'
I65
s(dp53
g16
S'line'
p54
sS'x'
I122
sg18
I0
sS'y'
I65
s(dp55
g16
S'line'
p56
sS'x'
I122
sg18
I0
sS'y'
I0
s(dp57
g16
S'line'
p58
sS'x'
I552
sg18
I0
sS'y'
I0
s(dp59
g16
S'line'
p60
sS'x'
I552
sg18
I0
sS'y'
I65
s(dp61
g16
S'line'
p62
sS'x'
I363
sg18
I0
sS'y'
I65
s(dp63
g16
S'line'
p64
sS'x'
I363
sg18
I0
sS'y'
I539
s(dp65
g16
S'line'
p66
sS'x'
I824
sg18
I0
sS'y'
I539
s(dp67
g16
S'line'
p68
sS'x'
I824
sg18
I0
sS'y'
I378
s(dp69
g16
S'line'
p70
sS'x'
I886
sg18
I0
sS'y'
I378
s(dp71
g16
S'line'
p72
sS'x'
I886
sg18
I0
sS'y'
I764
s(dp73
g16
S'line'
p74
sS'x'
I824
sg18
I0
sS'y'
I764
s(dp75
g16
S'line'
p76
sS'x'
I824
sg18
I0
sS'y'
I601
s(dp77
g16
S'line'
p78
sS'x'
I363
sg18
I0
sS'y'
I601
s(dp79
g16
S'line'
p80
sS'x'
I363
sg18
I0
sS'y'
I677
stp81
stp82
sS'components'
p83
(tsS'anchors'
p84
(tsss."
AnchorPoint: "top" 632 1152 basechar 0
LayerCount: 2
Fore
SplineSet
946 785 m 1
 1147 785 l 1
 1147 1152 l 1
 51 1152 l 1
 51 970 l 1
 215 970 l 1
 215 182 l 1
 51 182 l 1
 51 0 l 1
 694 0 l 1
 694 182 l 1
 530 182 l 1
 530 511 l 1
 758 511 l 1
 758 403 l 1
 873 403 l 1
 873 776 l 1
 756 776 l 1
 756 668 l 1
 530 668 l 1
 530 970 l 1
 669 970 807 970 946 970 c 1
 946 785 l 1
EndSplineSet
EndChar

StartChar: G
Encoding: 71 71 45
Width: 1483
VWidth: 0
Flags: HW
PickledData: "(dp1
S'org.robofab.postScriptHintData'
p2
(dp3
sS'com.typemytype.robofont.layerData'
p4
(dp5
S'b'
(dp6
S'name'
p7
S'G'
sS'lib'
p8
(dp9
sS'unicodes'
p10
(tsS'width'
p11
I1488
sS'contours'
p12
(tsS'components'
p13
(tsS'anchors'
p14
(tsss."
AnchorPoint: "bot" 764 0 basechar 0
AnchorPoint: "top" 779 1152 basechar 0
LayerCount: 2
Fore
SplineSet
771 -21 m 0
 1166 -21 1377 165 1382 601 c 1
 863 601 l 1
 863 419 l 1
 1092 419 l 1
 1083 275 978 195 780 193 c 0
 575 193 413 330 413 580 c 0
 413 823 552 960 781 960 c 0
 936 960 1060 891 1135 739 c 1
 1342 739 l 1
 1342 1161 l 1
 1120 1161 l 1
 1120 1024 l 1
 1072 1101 914 1174 760 1174 c 0
 373 1174 92 939 92 580 c 0
 92 210 339 -21 771 -21 c 0
EndSplineSet
EndChar

StartChar: H
Encoding: 72 72 52
Width: 1537
VWidth: 0
Flags: HW
PickledData: "(dp1
S'org.robofab.postScriptHintData'
p2
(dp3
sS'com.typemytype.robofont.layerData'
p4
(dp5
S'b'
(dp6
S'name'
p7
S'H'
sS'lib'
p8
(dp9
sS'unicodes'
p10
(tsS'width'
p11
I1513
sS'contours'
p12
(tsS'components'
p13
(tsS'anchors'
p14
(tsss."
AnchorPoint: "bot" 769 0 basechar 0
AnchorPoint: "top" 776 1152 basechar 0
LayerCount: 2
Fore
SplineSet
51 0 m 1
 694 0 l 1
 694 182 l 1
 530 182 l 1
 530 497 l 1
 1008 497 l 1
 1008 182 l 1
 844 182 l 1
 844 0 l 1
 1487 0 l 1
 1487 182 l 1
 1323 182 l 1
 1323 970 l 1
 1487 970 l 1
 1487 1152 l 1
 844 1152 l 1
 844 970 l 1
 1008 970 l 1
 1008 679 l 1
 530 679 l 1
 530 970 l 1
 694 970 l 1
 694 1152 l 1
 51 1152 l 1
 51 970 l 1
 215 970 l 1
 215 182 l 1
 51 182 l 1
 51 0 l 1
EndSplineSet
EndChar

StartChar: Hbar
Encoding: 294 294 53
Width: 1418
VWidth: 0
Flags: HW
PickledData: "(dp1
S'org.robofab.postScriptHintData'
p2
(dp3
sS'com.typemytype.robofont.layerData'
p4
(dp5
S'b'
(dp6
S'name'
p7
S'Hbar'
p8
sS'lib'
p9
(dp10
sS'unicodes'
p11
(tsS'width'
p12
I1535
sS'contours'
p13
(tsS'components'
p14
(tsS'anchors'
p15
(tsss."
LayerCount: 2
Fore
SplineSet
105 756 m 257
 1413 756 l 257
 1413 895 l 257
 105 895 l 257
 105 756 l 257
EndSplineSet
Refer: 52 72 N 1 0 0 1 0 0 2
EndChar

StartChar: I
Encoding: 73 73 55
Width: 774
VWidth: 0
Flags: HW
PickledData: "(dp1
S'org.robofab.postScriptHintData'
p2
(dp3
sS'com.typemytype.robofont.layerData'
p4
(dp5
S'b'
(dp6
S'name'
p7
S'I'
sS'lib'
p8
(dp9
sS'unicodes'
p10
(tsS'width'
p11
I786
sS'contours'
p12
(tsS'components'
p13
(tsS'anchors'
p14
(tsss."
AnchorPoint: "top" 384 1150 basechar 0
LayerCount: 2
Fore
SplineSet
66 0 m 1
 709 0 l 1
 709 182 l 1
 545 182 l 1
 545 970 l 1
 709 970 l 1
 709 1152 l 1
 66 1152 l 1
 66 970 l 1
 230 970 l 1
 230 182 l 1
 66 182 l 1
 66 0 l 1
EndSplineSet
EndChar

StartChar: J
Encoding: 74 74 66
Width: 795
VWidth: 0
Flags: HW
PickledData: "(dp1
S'org.robofab.postScriptHintData'
p2
(dp3
sS'com.typemytype.robofont.layerData'
p4
(dp5
S'b'
(dp6
S'name'
p7
S'J'
sS'lib'
p8
(dp9
sS'unicodes'
p10
(tsS'width'
p11
I792
sS'contours'
p12
(tsS'components'
p13
(tsS'anchors'
p14
(tsss."
AnchorPoint: "top" 418 1152 basechar 0
LayerCount: 2
Fore
SplineSet
37 -310 m 1
 220 -310 l 2
 524 -310 585 -125 585 145 c 2
 585 970 l 1
 762 970 l 1
 762 1152 l 1
 80 1152 l 1
 80 970 l 1
 272 970 l 1
 272 115 l 2
 272 21 251 -74 143 -74 c 2
 37 -74 l 1
 37 -310 l 1
EndSplineSet
EndChar

StartChar: K
Encoding: 75 75 68
Width: 1479
VWidth: 0
Flags: HW
PickledData: "(dp1
S'org.robofab.postScriptHintData'
p2
(dp3
sS'com.typemytype.robofont.guides'
p4
((dp5
S'y'
I593
sS'x'
I467
sS'magnetic'
p6
I5
sS'angle'
p7
I0
sS'isGlobal'
p8
I0
stp9
sS'com.typemytype.robofont.layerData'
p10
(dp11
S'b'
(dp12
S'name'
p13
S'K'
sS'lib'
p14
(dp15
sS'unicodes'
p16
(tsS'width'
p17
I1384
sS'contours'
p18
(tsS'components'
p19
(tsS'anchors'
p20
(tsss."
AnchorPoint: "bot" 754 0 basechar 0
AnchorPoint: "top" 758 1152 basechar 0
LayerCount: 2
Fore
SplineSet
801 0 m 1
 1437 0 l 1
 1437 182 l 1
 1306 182 l 1
 861 622 l 1
 1258 970 l 1
 1427 970 l 1
 1427 1152 l 1
 815 1152 l 1
 815 970 l 1
 963 970 l 1
 530 609 l 1
 530 970 l 1
 694 970 l 1
 694 1152 l 1
 51 1152 l 1
 51 970 l 1
 215 970 l 1
 215 182 l 1
 51 182 l 1
 51 0 l 1
 694 0 l 1
 694 182 l 1
 530 182 l 1
 530 567 l 1
 910 182 l 1
 801 182 l 1
 801 0 l 1
EndSplineSet
EndChar

StartChar: L
Encoding: 76 76 70
Width: 1230
VWidth: 0
Flags: HW
PickledData: "(dp1
S'org.robofab.postScriptHintData'
p2
(dp3
sS'com.typemytype.robofont.layerData'
p4
(dp5
S'b'
(dp6
S'name'
p7
S'L'
sS'lib'
p8
(dp9
sS'unicodes'
p10
(tsS'width'
p11
I1189
sS'contours'
p12
(tsS'components'
p13
(tsS'anchors'
p14
(tsss."
AnchorPoint: "bot" 609 0 basechar 0
AnchorPoint: "caron.alt" 730 870 basechar 0
AnchorPoint: "top" 564 1152 basechar 0
LayerCount: 2
Fore
SplineSet
530 182 m 1
 530 970 l 1
 694 970 l 1
 694 1152 l 1
 51 1152 l 1
 51 970 l 1
 215 970 l 1
 215 182 l 1
 51 182 l 1
 51 0 l 1
 1169 0 l 1
 1169 546 l 1
 915 546 l 1
 915 182 l 1
 787 182 658 182 530 182 c 1
EndSplineSet
EndChar

StartChar: Lslash
Encoding: 321 321 76
Width: 1254
VWidth: 0
Flags: HW
PickledData: "(dp1
S'org.robofab.postScriptHintData'
p2
(dp3
sS'com.typemytype.robofont.layerData'
p4
(dp5
S'b'
(dp6
S'name'
p7
S'Lslash'
p8
sS'lib'
p9
(dp10
sS'unicodes'
p11
(tsS'width'
p12
I1189
sS'contours'
p13
(tsS'components'
p14
(tsS'anchors'
p15
(tsss."
LayerCount: 2
Fore
SplineSet
78 373 m 257
 766 684 l 257
 766 832 l 257
 78 520 l 257
 78 373 l 257
EndSplineSet
Refer: 70 76 N 1 0 0 1 0 0 2
EndChar

StartChar: M
Encoding: 77 77 77
Width: 1883
VWidth: 0
Flags: HW
PickledData: "(dp1
S'org.robofab.postScriptHintData'
p2
(dp3
sS'com.typemytype.robofont.layerData'
p4
(dp5
S'b'
(dp6
S'name'
p7
S'M'
sS'lib'
p8
(dp9
sS'unicodes'
p10
(tsS'width'
p11
I1856
sS'contours'
p12
(tsS'components'
p13
(tsS'anchors'
p14
(tsss."
AnchorPoint: "top" 940 1152 basechar 0
LayerCount: 2
Fore
SplineSet
51 0 m 1
 579 0 l 1
 579 182 l 1
 429 182 l 1
 429 950 l 1
 825 32 l 1
 956 32 l 1
 1355 951 l 1
 1355 182 l 1
 1198 182 l 1
 1198 0 l 1
 1834 0 l 1
 1834 182 l 1
 1660 182 l 1
 1660 970 l 1
 1831 970 l 1
 1831 1152 l 1
 1238 1152 l 1
 943 473 l 1
 642 1152 l 1
 51 1152 l 1
 51 970 l 1
 217 970 l 1
 217 182 l 1
 51 182 l 1
 51 0 l 1
EndSplineSet
EndChar

StartChar: N
Encoding: 78 78 79
Width: 1609
VWidth: 0
Flags: HW
PickledData: "(dp1
S'org.robofab.postScriptHintData'
p2
(dp3
sS'com.typemytype.robofont.layerData'
p4
(dp5
S'b'
(dp6
S'name'
p7
S'N'
sS'lib'
p8
(dp9
sS'unicodes'
p10
(tsS'width'
p11
I1571
sS'contours'
p12
(tsS'components'
p13
(tsS'anchors'
p14
(tsss."
AnchorPoint: "bot" 850 0 basechar 0
AnchorPoint: "top" 819 1152 basechar 0
LayerCount: 2
Fore
SplineSet
51 0 m 1
 614 0 l 1
 614 182 l 1
 442 182 l 1
 442 854 l 1
 1117 0 l 1
 1384 0 l 1
 1384 970 l 1
 1570 970 l 1
 1570 1152 l 1
 1001 1152 l 1
 1001 970 l 1
 1169 970 l 1
 1169 420 l 1
 576 1152 l 1
 51 1152 l 1
 51 970 l 1
 230 970 l 1
 230 182 l 1
 51 182 l 1
 51 0 l 1
EndSplineSet
EndChar

StartChar: O
Encoding: 79 79 86
Width: 1511
VWidth: 0
Flags: HW
PickledData: "(dp1
S'org.robofab.postScriptHintData'
p2
(dp3
sS'com.typemytype.robofont.layerData'
p4
(dp5
S'b'
(dp6
S'name'
p7
S'O'
sS'lib'
p8
(dp9
sS'unicodes'
p10
(tsS'width'
p11
I1538
sS'contours'
p12
(tsS'components'
p13
(tsS'anchors'
p14
(tsss."
AnchorPoint: "top" 749 1150 basechar 0
LayerCount: 2
Fore
SplineSet
755 -22 m 0
 758 -22 762 -22 765 -22 c 0
 1155 -22 1426 222 1426 572 c 0
 1426 926 1150 1174 755 1174 c 0
 360 1174 85 927 85 572 c 0
 85 222 357 -22 746 -22 c 0
 749 -22 752 -22 755 -22 c 0
755 192 m 0
 550 192 406 352 406 577 c 0
 406 805 548 961 751 961 c 0
 752 961 754 961 755 961 c 0
 756 961 758 961 759 961 c 0
 963 961 1105 805 1105 578 c 0
 1105 352 960 192 755 192 c 0
EndSplineSet
EndChar

StartChar: OE
Encoding: 338 338 87
Width: 2258
VWidth: 0
Flags: HW
PickledData: "(dp1
S'org.robofab.postScriptHintData'
p2
(dp3
sS'com.typemytype.robofont.layerData'
p4
(dp5
S'b'
(dp6
S'name'
p7
S'OE'
p8
sS'lib'
p9
(dp10
sS'unicodes'
p11
(tsS'width'
p12
I2046
sS'contours'
p13
(tsS'components'
p14
(tsS'anchors'
p15
(tsss."
LayerCount: 2
Fore
SplineSet
991 0 m 258
 2156 0 l 257
 2156 363 l 257
 1925 363 l 257
 1925 170 l 257
 1500 170 l 257
 1500 526 l 257
 1745 526 l 257
 1745 429 l 257
 1849 429 l 257
 1849 799 l 257
 1746 799 l 257
 1746 719 l 257
 1503 719 l 257
 1503 981 l 257
 1924 981 l 257
 1924 792 l 257
 2147 792 l 257
 2147 1152 l 257
 988 1152 l 258
 985 1152 983 1152 980 1152 c 0
 497 1152 221 968 219 596 c 256
 221 198 501 0 991 0 c 258
954 170 m 258
 951 170 948 170 945 170 c 0
 705 170 560 324 558 590 c 256
 560 839 728 979 964 981 c 258
 1186 982 l 257
 1186 173 l 257
 954 170 l 258
EndSplineSet
EndChar

StartChar: Omega
Encoding: 937 937 95
Width: 1457
VWidth: 0
Flags: HW
PickledData: "(dp1
S'org.robofab.postScriptHintData'
p2
(dp3
s."
LayerCount: 2
Fore
SplineSet
89 0 m 257
 663 0 l 257
 663 168 l 257
 453 242 370 442 370 615 c 256
 370 822 498 972 729 972 c 256
 957 972 1086 822 1086 614 c 256
 1086 442 1004 242 794 168 c 257
 794 0 l 257
 1368 0 l 257
 1368 182 l 257
 1108 182 l 257
 1290 290 1368 459 1368 630 c 256
 1368 916 1131 1174 729 1174 c 256
 328 1174 89 915 89 628 c 256
 89 458 168 290 350 182 c 257
 89 182 l 257
 89 0 l 257
EndSplineSet
EndChar

StartChar: Oslash
Encoding: 216 216 96
Width: 1530
VWidth: 0
Flags: HW
PickledData: "(dp1
S'org.robofab.postScriptHintData'
p2
(dp3
sS'com.typemytype.robofont.layerData'
p4
(dp5
S'b'
(dp6
S'name'
p7
S'Oslash'
p8
sS'lib'
p9
(dp10
sS'unicodes'
p11
(tsS'width'
p12
I1439
sS'contours'
p13
(tsS'components'
p14
(tsS'anchors'
p15
(tsss."
LayerCount: 2
Fore
SplineSet
351 -95 m 257
 1317 1156 l 257
 1193 1244 l 257
 227 -6 l 257
 351 -95 l 257
EndSplineSet
Refer: 86 79 N 1 0 0 1 0 0 2
EndChar

StartChar: P
Encoding: 80 80 99
Width: 1241
VWidth: 0
Flags: HW
PickledData: "(dp1
S'org.robofab.postScriptHintData'
p2
(dp3
sS'com.typemytype.robofont.layerData'
p4
(dp5
S'b'
(dp6
S'name'
p7
S'P'
sS'lib'
p8
(dp9
sS'unicodes'
p10
(tsS'width'
p11
I1250
sS'contours'
p12
((dp13
S'points'
p14
((dp15
S'segmentType'
p16
S'line'
p17
sS'x'
I353
sS'smooth'
p18
I0
sS'y'
I1095
s(dp19
g16
S'line'
p20
sS'x'
I759
sg18
I1
sS'y'
I1095
s(dp21
S'y'
I1095
sS'x'
I936
sg18
I0
s(dp22
S'y'
I960
sS'x'
I1024
sg18
I0
s(dp23
g16
S'curve'
p24
sS'x'
I1024
sg18
I1
sS'y'
I823
s(dp25
S'y'
I683
sS'x'
I1024
sg18
I0
s(dp26
S'y'
I544
sS'x'
I934
sg18
I0
s(dp27
g16
S'curve'
p28
sS'x'
I759
sg18
I1
sS'y'
I544
s(dp29
g16
S'line'
p30
sS'x'
I353
sg18
I0
sS'y'
I544
stp31
s(dp32
g14
((dp33
g16
S'line'
p34
sS'x'
I135
sg18
I0
sS'y'
I0
s(dp35
g16
S'line'
p36
sS'x'
I512
sg18
I0
sS'y'
I0
s(dp37
g16
S'line'
p38
sS'x'
I512
sg18
I0
sS'y'
I58
s(dp39
g16
S'line'
p40
sS'x'
I353
sg18
I0
sS'y'
I58
s(dp41
g16
S'line'
p42
sS'x'
I353
sg18
I0
sS'y'
I483
s(dp43
g16
S'line'
p44
sS'x'
I759
sg18
I1
sS'y'
I483
s(dp45
S'y'
I483
sS'x'
I984
sg18
I0
s(dp46
S'y'
I656
sS'x'
I1098
sg18
I0
s(dp47
g16
S'curve'
p48
sS'x'
I1098
sg18
I1
sS'y'
I826
s(dp49
S'y'
I989
sS'x'
I1098
sg18
I0
s(dp50
S'y'
I1154
sS'x'
I984
sg18
I0
s(dp51
g16
S'curve'
p52
sS'x'
I759
sg18
I1
sS'y'
I1154
s(dp53
g16
S'line'
p54
sS'x'
I122
sg18
I0
sS'y'
I1154
s(dp55
g16
S'line'
p56
sS'x'
I122
sg18
I0
sS'y'
I1095
s(dp57
g16
S'line'
p58
sS'x'
I278
sg18
I0
sS'y'
I1095
s(dp59
g16
S'line'
p60
sS'x'
I278
sg18
I0
sS'y'
I58
s(dp61
g16
S'line'
p62
sS'x'
I135
sg18
I0
sS'y'
I58
stp63
stp64
sS'components'
p65
(tsS'anchors'
p66
(tsss."
AnchorPoint: "top" 589 1152 basechar 0
LayerCount: 2
Fore
SplineSet
605 459 m 1
 656 459 l 2
 1074 459 1202 572 1202 810 c 0
 1202 1059 1031 1152 707 1152 c 2
 51 1152 l 1
 51 970 l 1
 215 970 l 1
 215 182 l 1
 51 182 l 1
 51 0 l 1
 694 0 l 1
 694 182 l 1
 530 182 l 1
 530 970 l 1
 593 970 657 970 720 970 c 0
 815 970 886 921 886 811 c 0
 886 695 826 633 666 633 c 2
 605 633 l 1
 605 459 l 1
EndSplineSet
EndChar

StartChar: Q
Encoding: 81 81 101
Width: 1511
VWidth: 0
Flags: HW
PickledData: "(dp1
S'org.robofab.postScriptHintData'
p2
(dp3
sS'com.typemytype.robofont.layerData'
p4
(dp5
S'b'
(dp6
S'name'
p7
S'Q'
sS'lib'
p8
(dp9
sS'unicodes'
p10
(tsS'width'
p11
I1538
sS'contours'
p12
(tsS'components'
p13
(tsS'anchors'
p14
(tsss."
LayerCount: 2
Fore
SplineSet
1317 -325 m 257
 1317 -123 l 257
 1276 -131 1231 -136 1187 -136 c 0
 1046 -136 905 -86 862 68 c 257
 580 70 l 257
 673 -245 954 -338 1176 -338 c 0
 1227 -338 1275 -333 1317 -325 c 257
EndSplineSet
Refer: 86 79 N 1 0 0 1 0 0 2
EndChar

StartChar: R
Encoding: 82 82 102
Width: 1411
VWidth: 0
Flags: HW
PickledData: "(dp1
S'org.robofab.postScriptHintData'
p2
(dp3
sS'com.typemytype.robofont.layerData'
p4
(dp5
S'b'
(dp6
S'name'
p7
S'R'
sS'lib'
p8
(dp9
sS'unicodes'
p10
(tsS'width'
p11
I1373
sS'contours'
p12
((dp13
S'points'
p14
((dp15
S'segmentType'
p16
S'line'
p17
sS'x'
I135
sS'smooth'
p18
I0
sS'y'
I0
s(dp19
g16
S'line'
p20
sS'x'
I512
sg18
I0
sS'y'
I0
s(dp21
g16
S'line'
p22
sS'x'
I512
sg18
I0
sS'y'
I58
s(dp23
g16
S'line'
p24
sS'x'
I353
sg18
I0
sS'y'
I58
s(dp25
g16
S'line'
p26
sS'x'
I353
sg18
I0
sS'y'
I539
s(dp27
g16
S'line'
p28
sS'x'
I641
sg18
I0
sS'y'
I539
s(dp29
g16
S'line'
p30
sS'x'
I961
sg18
I0
sS'y'
I0
s(dp31
g16
S'line'
p32
sS'x'
I1178
sg18
I0
sS'y'
I0
s(dp33
g16
S'line'
p34
sS'x'
I1178
sg18
I0
sS'y'
I58
s(dp35
g16
S'line'
p36
sS'x'
I1015
sg18
I0
sS'y'
I58
s(dp37
g16
S'line'
p38
sS'x'
I721
sg18
I0
sS'y'
I539
s(dp39
S'y'
I539
sS'x'
I945
sg18
I0
s(dp40
S'y'
I696
sS'x'
I1059
sg18
I0
s(dp41
g16
S'curve'
p42
sS'x'
I1059
sg18
I1
sS'y'
I848
s(dp43
S'y'
I1000
sS'x'
I1059
sg18
I0
s(dp44
S'y'
I1154
sS'x'
I945
sg18
I0
s(dp45
g16
S'curve'
p46
sS'x'
I721
sg18
I1
sS'y'
I1154
s(dp47
g16
S'line'
p48
sS'x'
I122
sg18
I0
sS'y'
I1154
s(dp49
g16
S'line'
p50
sS'x'
I122
sg18
I0
sS'y'
I1095
s(dp51
g16
S'line'
p52
sS'x'
I278
sg18
I0
sS'y'
I1095
s(dp53
g16
S'line'
p54
sS'x'
I278
sg18
I0
sS'y'
I58
s(dp55
g16
S'line'
p56
sS'x'
I135
sg18
I0
sS'y'
I58
stp57
s(dp58
g14
((dp59
g16
S'line'
p60
sS'x'
I353
sg18
I0
sS'y'
I1095
s(dp61
g16
S'line'
p62
sS'x'
I721
sg18
I1
sS'y'
I1095
s(dp63
S'y'
I1095
sS'x'
I898
sg18
I0
s(dp64
S'y'
I971
sS'x'
I985
sg18
I0
s(dp65
g16
S'curve'
p66
sS'x'
I985
sg18
I1
sS'y'
I845
s(dp67
S'y'
I723
sS'x'
I985
sg18
I0
s(dp68
S'y'
I600
sS'x'
I896
sg18
I0
s(dp69
g16
S'curve'
p70
sS'x'
I721
sg18
I1
sS'y'
I600
s(dp71
g16
S'line'
p72
sS'x'
I353
sg18
I0
sS'y'
I600
stp73
stp74
sS'components'
p75
(tsS'anchors'
p76
(tsss."
AnchorPoint: "bot" 711 0 basechar 0
AnchorPoint: "top" 591 1152 basechar 0
LayerCount: 2
Fore
SplineSet
968 0 m 1
 1365 0 l 1
 1365 183 l 1
 1197 183 l 1
 995 531 l 1
 1126 566 1251 636 1251 843 c 0
 1251 1093 1056 1152 794 1152 c 2
 51 1152 l 1
 51 970 l 1
 215 970 l 1
 215 182 l 1
 51 182 l 1
 51 0 l 1
 694 0 l 1
 694 182 l 1
 530 182 l 1
 530 970 l 1
 608 970 685 970 763 970 c 0
 881 970 937 911 937 830 c 0
 937 744 893 677 746 677 c 2
 602 677 l 1
 602 501 l 1
 695 501 l 1
 968 0 l 1
EndSplineSet
EndChar

StartChar: S
Encoding: 83 83 106
Width: 1122
VWidth: 0
Flags: HW
PickledData: "(dp1
S'org.robofab.postScriptHintData'
p2
(dp3
sS'com.typemytype.robofont.layerData'
p4
(dp5
S'b'
(dp6
S'name'
p7
S'S'
sS'lib'
p8
(dp9
sS'unicodes'
p10
(tsS'width'
p11
I1170
sS'contours'
p12
((dp13
S'points'
p14
((dp15
S'segmentType'
p16
S'curve'
p17
sS'x'
I636
sS'smooth'
p18
I1
sS'y'
S'-23'
p19
s(dp20
S'y'
S'-23'
p21
sS'x'
I930
sg18
I0
s(dp22
S'y'
I171
sS'x'
I1026
sg18
I0
s(dp23
g16
S'curve'
p24
sS'x'
I1026
sg18
I1
sS'y'
I295
s(dp25
S'y'
I543
sS'x'
I1026
sg18
I0
s(dp26
S'y'
I599
sS'x'
I829
sg18
I0
s(dp27
g16
S'curve'
p28
sS'x'
I606
sg18
I1
sS'y'
I622
s(dp29
S'y'
I643
sS'x'
I405
sg18
I0
s(dp30
S'y'
I667
sS'x'
I269
sg18
I0
s(dp31
g16
S'curve'
p32
sS'x'
I269
sg18
I1
sS'y'
I851
s(dp33
S'y'
I998
sS'x'
I269
sg18
I0
s(dp34
S'y'
I1104
sS'x'
I360
sg18
I0
s(dp35
g16
S'curve'
p36
sS'x'
I573
sg18
I1
sS'y'
I1104
s(dp37
S'y'
I1104
sS'x'
I719
sg18
I0
s(dp38
S'y'
I1024
sS'x'
I885
sg18
I0
s(dp39
g16
S'curve'
p40
sS'x'
I885
sg18
I1
sS'y'
I941
s(dp41
g16
S'line'
p42
sS'x'
I885
sg18
I0
sS'y'
I839
s(dp43
g16
S'line'
p44
sS'x'
I959
sg18
I0
sS'y'
I839
s(dp45
g16
S'line'
p46
sS'x'
I959
sg18
I0
sS'y'
I1152
s(dp47
g16
S'line'
p48
sS'x'
I885
sg18
I0
sS'y'
I1152
s(dp49
g16
S'line'
p50
sS'x'
I885
sg18
I0
sS'y'
I1049
s(dp51
S'y'
I1131
sS'x'
I828
sg18
I0
s(dp52
S'y'
I1172
sS'x'
I673
sg18
I0
s(dp53
g16
S'curve'
p54
sS'x'
I561
sg18
I1
sS'y'
I1172
s(dp55
S'y'
I1172
sS'x'
I360
sg18
I0
s(dp56
S'y'
I1066
sS'x'
I184
sg18
I0
s(dp57
g16
S'curve'
p58
sS'x'
I184
sg18
I1
sS'y'
I863
s(dp59
S'y'
I635
sS'x'
I184
sg18
I0
s(dp60
S'y'
I579
sS'x'
I332
sg18
I0
s(dp61
g16
S'curve'
p62
sS'x'
I584
sg18
I1
sS'y'
I553
s(dp63
S'y'
I531
sS'x'
I805
sg18
I0
s(dp64
S'y'
I488
sS'x'
I942
sg18
I0
s(dp65
g16
S'curve'
p66
sS'x'
I942
sg18
I1
sS'y'
I300
s(dp67
S'y'
I169
sS'x'
I942
sg18
I0
s(dp68
S'y'
I47
sS'x'
I831
sg18
I0
s(dp69
g16
S'curve'
p70
sS'x'
I644
sg18
I1
sS'y'
I47
s(dp71
S'y'
I47
sS'x'
I448
sg18
I0
s(dp72
S'y'
I118
sS'x'
I261
sg18
I0
s(dp73
g16
S'curve'
p74
sS'x'
I261
sg18
I1
sS'y'
I247
s(dp75
g16
S'line'
p76
sS'x'
I261
sg18
I0
sS'y'
I387
s(dp77
g16
S'line'
p78
sS'x'
I187
sg18
I0
sS'y'
I387
s(dp79
g16
S'line'
p80
sS'x'
I187
sg18
I0
sS'y'
S'-1'
p81
s(dp82
g16
S'line'
p83
sS'x'
I261
sg18
I0
sS'y'
S'-1'
p84
s(dp85
g16
S'line'
p86
sS'x'
I261
sg18
I0
sS'y'
I122
s(dp87
S'y'
I22
sS'x'
I335
sg18
I0
s(dp88
S'y'
S'-23'
p89
sS'x'
I496
sg18
I0
stp90
stp91
sS'components'
p92
(tsS'anchors'
p93
(tsss."
AnchorPoint: "bot" 627 0 basechar 0
AnchorPoint: "top" 565 1150 basechar 0
LayerCount: 2
Fore
SplineSet
630 -21 m 0
 899 -21 1041 145 1041 340 c 0
 1041 562 934 637 637 718 c 0
 462 764 419 800 418 876 c 0
 418 941 466 987 557 987 c 0
 660 987 739 936 771 899 c 1
 771 810 l 1
 979 810 l 1
 979 1154 l 1
 771 1154 l 1
 771 1076 l 1
 726 1127 647 1174 517 1174 c 0
 236 1174 111 1022 111 853 c 0
 111 641 225 555 531 477 c 0
 689 438 750 406 750 306 c 0
 750 217 680 170 587 170 c 0
 479 170 380 229 338 274 c 1
 338 419 l 1
 119 419 l 1
 119 0 l 1
 338 0 l 1
 338 82 l 1
 405 18 521 -21 630 -21 c 0
EndSplineSet
EndChar

StartChar: Sigma
Encoding: 931 931 114
Width: 1074
VWidth: 0
Flags: HW
PickledData: "(dp1
S'org.robofab.postScriptHintData'
p2
(dp3
s."
LayerCount: 2
Fore
SplineSet
79 0 m 257
 999 0 l 257
 999 190 l 257
 479 190 l 257
 813 563 l 257
 462 964 l 257
 965 964 l 257
 965 1152 l 257
 96 1152 l 257
 96 1020 l 257
 440 593 l 257
 79 161 l 257
 79 0 l 257
EndSplineSet
EndChar

StartChar: T
Encoding: 84 84 115
Width: 1276
VWidth: 0
Flags: HW
PickledData: "(dp1
S'org.robofab.postScriptHintData'
p2
(dp3
sS'com.typemytype.robofont.layerData'
p4
(dp5
S'b'
(dp6
S'name'
p7
S'T'
sS'lib'
p8
(dp9
sS'unicodes'
p10
(tsS'width'
p11
I1252
sS'contours'
p12
(tsS'components'
p13
(tsS'anchors'
p14
(tsss."
AnchorPoint: "bot" 659 0 basechar 0
AnchorPoint: "top" 642 1152 basechar 0
LayerCount: 2
Fore
SplineSet
25 684 m 1
 237 684 l 1
 237 970 l 1
 320 970 404 970 487 970 c 1
 487 182 l 1
 323 182 l 1
 323 0 l 1
 966 0 l 1
 966 182 l 1
 802 182 l 1
 802 970 l 1
 882 970 962 970 1042 970 c 1
 1042 684 l 1
 1251 684 l 1
 1251 1152 l 1
 25 1152 l 1
 25 684 l 1
EndSplineSet
EndChar

StartChar: Thorn
Encoding: 222 222 121
Width: 1230
VWidth: 0
Flags: HW
PickledData: "(dp1
S'org.robofab.postScriptHintData'
p2
(dp3
sS'com.typemytype.robofont.layerData'
p4
(dp5
S'b'
(dp6
S'name'
p7
S'Thorn'
p8
sS'lib'
p9
(dp10
sS'unicodes'
p11
(tsS'width'
p12
I1124
sS'contours'
p13
(tsS'components'
p14
(tsS'anchors'
p15
(tsss."
LayerCount: 2
Fore
SplineSet
595 328 m 257
 669 328 l 258
 1083 328 1215 421 1215 605 c 256
 1215 799 1051 876 746 876 c 258
 387 876 l 257
 387 732 l 257
 738 732 l 258
 826 732 897 692 897 605 c 256
 897 515 845 464 707 464 c 258
 595 464 l 257
 595 328 l 257
EndSplineSet
Refer: 412 -1 N 1 0 0 1 -123 0 2
EndChar

StartChar: U
Encoding: 85 85 122
Width: 1489
VWidth: 0
Flags: HW
PickledData: "(dp1
S'org.robofab.postScriptHintData'
p2
(dp3
sS'com.typemytype.robofont.layerData'
p4
(dp5
S'b'
(dp6
S'name'
p7
S'U'
sS'lib'
p8
(dp9
sS'unicodes'
p10
(tsS'width'
p11
I1428
sS'contours'
p12
(tsS'components'
p13
(tsS'anchors'
p14
(tsss."
AnchorPoint: "top" 794 1152 basechar 0
LayerCount: 2
Fore
SplineSet
758 -21 m 0
 1090 -21 1284 135 1284 458 c 2
 1284 970 l 1
 1450 970 l 1
 1450 1152 l 1
 896 1152 l 1
 896 970 l 1
 1065 970 l 1
 1065 455 l 2
 1065 278 971 183 789 183 c 0
 615 183 525 278 525 453 c 2
 525 970 l 1
 707 970 l 1
 707 1152 l 1
 44 1152 l 1
 44 970 l 1
 210 970 l 1
 210 466 l 2
 210 163 375 -21 758 -21 c 0
EndSplineSet
EndChar

StartChar: V
Encoding: 86 86 133
Width: 1479
VWidth: 0
Flags: HW
PickledData: "(dp1
S'org.robofab.postScriptHintData'
p2
(dp3
sS'com.typemytype.robofont.layerData'
p4
(dp5
S'b'
(dp6
S'name'
p7
S'V'
sS'lib'
p8
(dp9
sS'unicodes'
p10
(tsS'width'
p11
I1407
sS'contours'
p12
(tsS'components'
p13
(tsS'anchors'
p14
(tsss."
LayerCount: 2
Fore
SplineSet
632 0 m 1
 864 0 l 1
 1274 970 l 1
 1442 970 l 1
 1442 1152 l 1
 894 1152 l 1
 894 970 l 1
 1049 970 l 1
 787 330 l 1
 527 970 l 1
 679 970 l 1
 679 1152 l 1
 44 1152 l 1
 44 970 l 1
 192 970 l 1
 632 0 l 1
EndSplineSet
EndChar

StartChar: W
Encoding: 87 87 134
Width: 1956
VWidth: 0
Flags: HW
PickledData: "(dp1
S'org.robofab.postScriptHintData'
p2
(dp3
sS'com.typemytype.robofont.layerData'
p4
(dp5
S'b'
(dp6
S'name'
p7
S'W'
sS'lib'
p8
(dp9
sS'unicodes'
p10
(tsS'width'
p11
I1935
sS'contours'
p12
(tsS'components'
p13
(tsS'anchors'
p14
(tsss."
AnchorPoint: "top" 1037 1152 basechar 0
LayerCount: 2
Fore
SplineSet
522 0 m 1
 706 0 l 1
 982 682 l 1
 1262 0 l 1
 1454 0 l 1
 1760 970 l 1
 1906 970 l 1
 1906 1152 l 1
 1409 1152 l 1
 1409 970 l 1
 1558 970 l 1
 1383 394 l 1
 1092 1132 l 1
 976 1132 l 1
 675 394 l 1
 506 970 l 1
 640 970 l 1
 640 1152 l 1
 51 1152 l 1
 51 970 l 1
 196 970 l 1
 522 0 l 1
EndSplineSet
EndChar

StartChar: X
Encoding: 88 88 139
Width: 1443
VWidth: 0
Flags: HW
PickledData: "(dp1
S'org.robofab.postScriptHintData'
p2
(dp3
sS'com.typemytype.robofont.layerData'
p4
(dp5
S'b'
(dp6
S'name'
p7
S'X'
sS'lib'
p8
(dp9
sS'unicodes'
p10
(tsS'width'
p11
I1434
sS'contours'
p12
(tsS'components'
p13
(tsS'anchors'
p14
(tsss."
LayerCount: 2
Fore
SplineSet
37 0 m 1
 597 0 l 1
 597 179 l 1
 455 179 l 1
 672 435 l 1
 881 179 l 1
 754 179 l 1
 754 0 l 1
 1406 0 l 1
 1406 179 l 1
 1248 179 l 1
 881 604 l 1
 1204 973 l 1
 1369 973 l 1
 1369 1152 l 1
 825 1152 l 1
 825 973 l 1
 951 973 l 1
 759 740 l 1
 567 973 l 1
 678 973 l 1
 678 1152 l 1
 53 1152 l 1
 53 973 l 1
 194 973 l 1
 547 572 l 1
 200 179 l 1
 37 179 l 1
 37 0 l 1
EndSplineSet
EndChar

StartChar: Y
Encoding: 89 89 140
Width: 1389
VWidth: 0
Flags: HW
PickledData: "(dp1
S'org.robofab.postScriptHintData'
p2
(dp3
sS'com.typemytype.robofont.layerData'
p4
(dp5
S'b'
(dp6
S'name'
p7
S'Y'
sS'lib'
p8
(dp9
sS'unicodes'
p10
(tsS'width'
p11
I1337
sS'contours'
p12
(tsS'components'
p13
(tsS'anchors'
p14
(tsss."
AnchorPoint: "top" 692 1150 basechar 0
LayerCount: 2
Fore
SplineSet
350 0 m 1
 1029 0 l 1
 1029 182 l 1
 846 182 l 1
 846 476 l 1
 1202 970 l 1
 1366 970 l 1
 1366 1152 l 1
 815 1152 l 1
 815 970 l 1
 944 970 l 1
 724 642 l 1
 493 970 l 1
 624 970 l 1
 624 1152 l 1
 -1 1152 l 1
 -1 970 l 1
 156 970 l 1
 530 474 l 1
 530 182 l 1
 350 182 l 1
 350 0 l 1
EndSplineSet
EndChar

StartChar: Z
Encoding: 90 90 145
Width: 1238
VWidth: 0
Flags: HW
PickledData: "(dp1
S'org.robofab.postScriptHintData'
p2
(dp3
sS'com.typemytype.robofont.layerData'
p4
(dp5
S'b'
(dp6
S'name'
p7
S'Z'
sS'lib'
p8
(dp9
sS'unicodes'
p10
(tsS'width'
p11
I1256
sS'contours'
p12
(tsS'components'
p13
(tsS'anchors'
p14
(tsss."
AnchorPoint: "top" 639 1152 basechar 0
LayerCount: 2
Fore
SplineSet
84 0 m 1
 1158 0 l 1
 1158 528 l 1
 951 528 l 1
 951 183 l 1
 471 183 l 1
 1138 974 l 1
 1138 1152 l 1
 89 1152 l 1
 89 657 l 1
 298 657 l 1
 298 970 l 1
 729 970 l 1
 84 195 l 1
 84 0 l 1
EndSplineSet
EndChar

StartChar: a
Encoding: 97 97 149
Width: 983
VWidth: 0
Flags: HW
PickledData: "(dp1
S'org.robofab.postScriptHintData'
p2
(dp3
sS'com.typemytype.robofont.layerData'
p4
(dp5
S'b'
(dp6
S'name'
p7
S'a'
sS'lib'
p8
(dp9
sS'unicodes'
p10
(tsS'width'
p11
I1003
sS'contours'
p12
((dp13
S'points'
p14
((dp15
S'segmentType'
p16
S'curve'
p17
sS'x'
I310
sS'smooth'
p18
I1
sS'y'
S'-14'
p19
s(dp20
S'y'
S'-14'
p21
sS'x'
I507
sg18
I0
s(dp22
S'y'
I21
sS'x'
I593
sg18
I0
s(dp23
g16
S'curve'
p24
sS'x'
I687
sg18
I0
sS'y'
I91
s(dp25
g16
S'line'
p26
sS'x'
I703
sg18
I0
sS'y'
S'-1'
p27
s(dp28
g16
S'line'
p29
sS'x'
I890
sg18
I0
sS'y'
S'-1'
p30
s(dp31
g16
S'line'
p32
sS'x'
I890
sg18
I0
sS'y'
I57
s(dp33
g16
S'line'
p34
sS'x'
I764
sg18
I0
sS'y'
I57
s(dp35
g16
S'line'
p36
sS'x'
I764
sg18
I1
sS'y'
I569
s(dp37
S'y'
I672
sS'x'
I764
sg18
I0
s(dp38
S'y'
I819
sS'x'
I710
sg18
I0
s(dp39
g16
S'curve'
p40
sS'x'
I461
sg18
I1
sS'y'
I819
s(dp41
S'y'
I819
sS'x'
I332
sg18
I0
s(dp42
S'y'
I792
sS'x'
I226
sg18
I0
s(dp43
g16
S'curve'
p44
sS'x'
I155
sg18
I0
sS'y'
I724
s(dp45
g16
S'line'
p46
sS'x'
I190
sg18
I0
sS'y'
I668
s(dp47
S'y'
I726
sS'x'
I247
sg18
I0
s(dp48
S'y'
I755
sS'x'
I339
sg18
I0
s(dp49
g16
S'curve'
p50
sS'x'
I459
sg18
I1
sS'y'
I755
s(dp51
S'y'
I755
sS'x'
I600
sg18
I0
s(dp52
S'y'
I706
sS'x'
I687
sg18
I0
s(dp53
g16
S'curve'
p54
sS'x'
I687
sg18
I1
sS'y'
I551
s(dp55
g16
S'line'
p56
sS'x'
I687
sg18
I0
sS'y'
I428
s(dp57
S'y'
I443
sS'x'
I609
sg18
I0
s(dp58
S'y'
I455
sS'x'
I539
sg18
I0
s(dp59
g16
S'curve'
p60
sS'x'
I465
sg18
I1
sS'y'
I455
s(dp61
S'y'
I455
sS'x'
I295
sg18
I0
s(dp62
S'y'
I433
sS'x'
I117
sg18
I0
s(dp63
g16
S'curve'
p64
sS'x'
I117
sg18
I1
sS'y'
I222
s(dp65
S'y'
I96
sS'x'
I117
sg18
I0
s(dp66
S'y'
S'-14'
p67
sS'x'
I206
sg18
I0
stp68
s(dp69
g14
((dp70
g16
S'curve'
p71
sS'x'
I401
sg18
I1
sS'y'
I50
s(dp72
S'y'
I50
sS'x'
I246
sg18
I0
s(dp73
S'y'
I142
sS'x'
I195
sg18
I0
s(dp74
g16
S'curve'
p75
sS'x'
I195
sg18
I1
sS'y'
I220
s(dp76
S'y'
I390
sS'x'
I195
sg18
I0
s(dp77
S'y'
I393
sS'x'
I346
sg18
I0
s(dp78
g16
S'curve'
p79
sS'x'
I462
sg18
I1
sS'y'
I393
s(dp80
S'y'
I393
sS'x'
I559
sg18
I0
s(dp81
S'y'
I368
sS'x'
I687
sg18
I0
s(dp82
g16
S'curve'
p83
sS'x'
I687
sg18
I0
sS'y'
I368
s(dp84
g16
S'line'
p85
sS'x'
I687
sg18
I0
sS'y'
I151
s(dp86
S'y'
I76
sS'x'
I606
sg18
I0
s(dp87
S'y'
I50
sS'x'
I511
sg18
I0
stp88
stp89
sS'components'
p90
(tsS'anchors'
p91
(tsss."
AnchorPoint: "top" 446 804 basechar 0
LayerCount: 2
Fore
SplineSet
414 133 m 0
 352 133 309 172 309 231 c 0
 309 319 375 345 446 345 c 0
 496 345 538 337 568 327 c 1
 568 189 l 1
 521 152 464 133 414 133 c 0
343 -21 m 0
 441 -21 527 6 600 60 c 1
 621 0 l 1
 959 0 l 1
 959 183 l 1
 842 183 l 1
 842 515 l 2
 842 728 665 825 451 825 c 0
 324 825 183 794 69 725 c 1
 141 560 l 1
 254 614 355 636 425 636 c 0
 516 636 568 592 568 500 c 2
 568 459 l 1
 520 470 467 476 412 476 c 0
 240 476 57 414 57 231 c 0
 57 73 182 -21 343 -21 c 0
EndSplineSet
EndChar

StartChar: acute
Encoding: 180 180 153
Width: 660
VWidth: 0
Flags: HW
PickledData: "(dp1
S'org.robofab.postScriptHintData'
p2
(dp3
sS'com.typemytype.robofont.layerData'
p4
(dp5
S'b'
(dp6
S'name'
p7
S'acute'
p8
sS'lib'
p9
(dp10
sS'unicodes'
p11
(tsS'width'
p12
I579
sS'contours'
p13
(tsS'components'
p14
(tsS'anchors'
p15
(tsss."
AnchorPoint: "top" 232 804 mark 0
LayerCount: 2
Fore
SplineSet
170 944 m 257
 335 944 l 257
 544 1292 l 257
 271 1292 l 257
 170 944 l 257
EndSplineSet
EndChar

StartChar: ae
Encoding: 230 230 155
Width: 1478
VWidth: 0
Flags: HW
PickledData: "(dp1
S'org.robofab.postScriptHintData'
p2
(dp3
sS'com.typemytype.robofont.layerData'
p4
(dp5
S'b'
(dp6
S'name'
p7
S'ae'
p8
sS'lib'
p9
(dp10
sS'unicodes'
p11
(tsS'width'
p12
I1542
sS'contours'
p13
(tsS'components'
p14
(tsS'anchors'
p15
(tsss."
AnchorPoint: "top" 744 804 basechar 0
LayerCount: 2
Fore
SplineSet
400 -22 m 256
 505 -22 588 0 715 83 c 257
 797 17 911 -20 1050 -20 c 256
 1201 -20 1339 33 1417 108 c 257
 1338 254 l 257
 1255 196 1165 168 1081 168 c 256
 960 168 869 234 861 359 c 257
 1422 359 l 257
 1422 645 1275 826 1023 826 c 256
 907 826 802 793 736 733 c 257
 675 793 568 825 458 825 c 256
 328 825 186 792 73 724 c 257
 144 560 l 257
 257 614 359 636 431 636 c 256
 523 636 576 592 576 500 c 258
 576 458 l 257
 529 468 473 475 418 475 c 256
 248 475 65 414 65 231 c 256
 65 11 282 -22 400 -22 c 256
440 129 m 256
 379 129 316 154 316 229 c 256
 316 317 379 344 451 344 c 256
 497 344 553 334 579 332 c 257
 586 284 602 232 623 194 c 257
 578 162 517 129 440 129 c 256
864 495 m 257
 880 597 941 663 1031 663 c 256
 1126 663 1177 597 1180 495 c 257
 864 495 l 257
EndSplineSet
EndChar

StartChar: ampersand
Encoding: 38 38 160
Width: 1505
VWidth: 0
Flags: HW
PickledData: "(dp1
S'org.robofab.postScriptHintData'
p2
(dp3
sS'com.typemytype.robofont.layerData'
p4
(dp5
S'b'
(dp6
S'name'
p7
S'ampersand'
p8
sS'lib'
p9
(dp10
sS'unicodes'
p11
(tsS'width'
p12
I1363
sS'contours'
p13
(tsS'components'
p14
(tsS'anchors'
p15
(tsss."
LayerCount: 2
Fore
SplineSet
553 -21 m 256
 703 -21 823 27 925 115 c 257
 1016 0 l 257
 1382 0 l 257
 1382 180 l 257
 1189 180 l 257
 1097 282 l 257
 1158 357 1203 437 1237 533 c 257
 1379 536 l 257
 1379 710 l 257
 1067 710 l 257
 1044 624 1014 517 955 442 c 257
 762 651 l 257
 939 734 998 827 998 945 c 256
 998 1074 877 1198 674 1198 c 256
 455 1198 322 1076 322 934 c 256
 322 831 359 764 416 691 c 257
 236 614 110 513 110 353 c 256
 110 156 275 -21 553 -21 c 256
593 176 m 256
 462 176 388 288 388 364 c 256
 388 447 441 507 537 553 c 257
 793 265 l 257
 732 199 669 176 593 176 c 256
646 795 m 257
 602 852 574 896 574 949 c 256
 574 1007 608 1040 674 1040 c 256
 729 1040 771 1005 771 942 c 256
 771 880 740 839 646 795 c 257
EndSplineSet
EndChar

StartChar: approxequal
Encoding: 8776 8776 163
Width: 1247
VWidth: 0
Flags: HW
PickledData: "(dp1
S'org.robofab.postScriptHintData'
p2
(dp3
sS'com.typemytype.robofont.layerData'
p4
(dp5
S'b'
(dp6
S'name'
p7
S'approxequal'
p8
sS'lib'
p9
(dp10
sS'unicodes'
p11
(tsS'width'
p12
I1245
sS'contours'
p13
(tsS'components'
p14
(tsS'anchors'
p15
(tsss."
LayerCount: 2
Fore
SplineSet
174 325 m 257
 228 384 322 438 401 438 c 256
 464 438 511 425 602 385 c 256
 734 329 775 319 849 319 c 256
 947 319 1022 352 1097 437 c 257
 1097 627 l 257
 1043 570 951 514 870 514 c 256
 809 514 761 528 669 568 c 256
 538 624 497 633 421 633 c 256
 325 633 251 600 174 517 c 257
 174 325 l 257
174 691 m 257
 228 750 322 804 401 804 c 256
 464 804 511 791 602 751 c 256
 734 695 775 685 849 685 c 256
 947 685 1022 718 1097 803 c 257
 1097 993 l 257
 1043 936 951 880 870 880 c 256
 809 880 761 894 669 934 c 256
 538 990 497 999 421 999 c 256
 325 999 251 966 174 883 c 257
 174 691 l 257
EndSplineSet
EndChar

StartChar: asciicircum
Encoding: 94 94 165
Width: 1113
VWidth: 0
Flags: HW
PickledData: "(dp1
S'org.robofab.postScriptHintData'
p2
(dp3
sS'com.typemytype.robofont.layerData'
p4
(dp5
S'b'
(dp6
S'name'
p7
S'asciicircum'
p8
sS'lib'
p9
(dp10
sS'unicodes'
p11
(tsS'width'
p12
I933
sS'contours'
p13
(tsS'components'
p14
(tsS'anchors'
p15
(tsss."
LayerCount: 2
Fore
SplineSet
82 412 m 257
 314 412 l 257
 555 981 l 257
 796 412 l 257
 1028 412 l 257
 658 1184 l 257
 449 1184 l 257
 82 412 l 257
EndSplineSet
EndChar

StartChar: asciitilde
Encoding: 126 126 166
Width: 1218
VWidth: 0
Flags: HW
PickledData: "(dp1
S'org.robofab.postScriptHintData'
p2
(dp3
sS'com.typemytype.robofont.layerData'
p4
(dp5
S'b'
(dp6
S'name'
p7
S'asciitilde'
p8
sS'lib'
p9
(dp10
sS'unicodes'
p11
(tsS'width'
p12
I1220
sS'contours'
p13
(tsS'components'
p14
(tsS'anchors'
p15
(tsss."
LayerCount: 2
Fore
SplineSet
840 461 m 256
 936 461 1017 508 1085 588 c 257
 1058 731 l 257
 993 666 925 630 847 630 c 256
 710 630 559 757 386 757 c 256
 284 757 202 714 132 627 c 257
 155 489 l 257
 227 562 289 597 370 597 c 256
 523 597 674 461 840 461 c 256
EndSplineSet
EndChar

StartChar: asterisk
Encoding: 42 42 167
Width: 923
VWidth: 0
Flags: HW
PickledData: "(dp1
S'org.robofab.postScriptHintData'
p2
(dp3
sS'com.typemytype.robofont.layerData'
p4
(dp5
S'b'
(dp6
S'name'
p7
S'asterisk'
p8
sS'lib'
p9
(dp10
sS'unicodes'
p11
(tsS'width'
p12
I931
sS'contours'
p13
(tsS'components'
p14
(tsS'anchors'
p15
(tsss."
LayerCount: 2
Fore
SplineSet
332 411 m 257
 464 736 l 257
 600 411 l 257
 793 548 l 257
 539 772 l 257
 864 798 l 257
 807 1011 l 257
 497 845 l 257
 584 1182 l 257
 348 1182 l 257
 434 845 l 257
 127 1011 l 257
 67 798 l 257
 394 772 l 257
 137 548 l 257
 332 411 l 257
EndSplineSet
EndChar

StartChar: at
Encoding: 64 64 168
Width: 1479
VWidth: 0
Flags: HW
PickledData: "(dp1
S'org.robofab.postScriptHintData'
p2
(dp3
sS'com.typemytype.robofont.layerData'
p4
(dp5
S'b'
(dp6
S'name'
p7
S'at'
p8
sS'lib'
p9
(dp10
sS'unicodes'
p11
(tsS'width'
p12
I1481
sS'contours'
p13
(tsS'components'
p14
(tsS'anchors'
p15
(tsss."
LayerCount: 2
Fore
SplineSet
798 -66 m 256
 983 -66 1126 -15 1242 75 c 257
 1168 163 l 257
 1070 86 945 49 798 49 c 256
 442 49 245 252 245 556 c 256
 245 883 472 1116 783 1116 c 256
 1081 1116 1240 915 1240 700 c 256
 1240 462 1074 335 1008 335 c 256
 997 335 992 348 992 372 c 0
 992 395 996 428 1006 472 c 258
 1108 947 l 257
 965 947 l 257
 945 841 l 257
 903 926 831 963 751 963 c 256
 506 963 383 736 383 532 c 256
 383 326 515 213 653 213 c 256
 730 213 806 245 866 326 c 257
 877 242 917 213 967 213 c 256
 1216 213 1372 452 1372 701 c 256
 1372 962 1198 1233 788 1233 c 256
 348 1233 105 892 105 558 c 256
 105 243 324 -66 798 -66 c 256
683 327 m 256
 575 327 524 423 524 530 c 256
 524 676 600 845 738 845 c 256
 839 845 904 776 904 668 c 256
 904 510 805 327 683 327 c 256
EndSplineSet
EndChar

StartChar: b
Encoding: 98 98 170
Width: 1156
VWidth: 0
Flags: HW
PickledData: "(dp1
S'org.robofab.postScriptHintData'
p2
(dp3
sS'com.typemytype.robofont.layerData'
p4
(dp5
S'b'
(dp6
S'name'
p7
S'b'
sS'lib'
p8
(dp9
sS'unicodes'
p10
(tsS'width'
p11
I1128
sS'contours'
p12
(tsS'components'
p13
(tsS'anchors'
p14
(tsss."
AnchorPoint: "top" 752 804 basechar 0
LayerCount: 2
Fore
SplineSet
701 -21 m 0
 913 -21 1112 135 1112 419 c 0
 1112 666 954 826 721 826 c 0
 637 826 552 799 471 749 c 1
 471 1174 l 1
 43 1174 l 1
 43 992 l 1
 196 992 l 1
 196 182 l 1
 41 182 l 1
 41 0 l 1
 471 0 l 1
 471 49 l 1
 542 2 621 -21 701 -21 c 0
471 608 m 1
 519 629 564 639 607 639 c 0
 757 639 823 526 823 401 c 0
 823 239 720 151 590 151 c 0
 554 151 514 158 471 177 c 1
 471 608 l 1
EndSplineSet
EndChar

StartChar: backslash
Encoding: 92 92 171
Width: 739
VWidth: 0
Flags: HW
PickledData: "(dp1
S'org.robofab.postScriptHintData'
p2
(dp3
sS'com.typemytype.robofont.layerData'
p4
(dp5
S'b'
(dp6
S'name'
p7
S'backslash'
p8
sS'lib'
p9
(dp10
sS'unicodes'
p11
(tsS'width'
p12
I773
sS'contours'
p13
(tsS'components'
p14
(tsS'anchors'
p15
(tsss."
LayerCount: 2
Fore
SplineSet
617 -21 m 257
 858 -21 l 257
 76 1313 l 257
 -166 1313 l 257
 617 -21 l 257
EndSplineSet
EndChar

StartChar: bar
Encoding: 124 124 172
Width: 591
VWidth: 0
Flags: HW
PickledData: "(dp1
S'org.robofab.postScriptHintData'
p2
(dp3
sS'com.typemytype.robofont.layerData'
p4
(dp5
S'b'
(dp6
S'name'
p7
S'bar'
p8
sS'lib'
p9
(dp10
sS'unicodes'
p11
(tsS'width'
p12
I506
sS'contours'
p13
(tsS'components'
p14
(tsS'anchors'
p15
(tsss."
LayerCount: 2
Fore
SplineSet
184 -217 m 257
 408 -217 l 257
 408 1195 l 257
 184 1195 l 257
 184 -217 l 257
EndSplineSet
EndChar

StartChar: braceleft
Encoding: 123 123 174
Width: 877
VWidth: 0
Flags: HW
PickledData: "(dp1
S'org.robofab.postScriptHintData'
p2
(dp3
sS'com.typemytype.robofont.layerData'
p4
(dp5
S'b'
(dp6
S'name'
p7
S'braceleft'
p8
sS'lib'
p9
(dp10
sS'unicodes'
p11
(tsS'width'
p12
I656
sS'contours'
p13
(tsS'components'
p14
(tsS'anchors'
p15
(tsss."
LayerCount: 2
Fore
SplineSet
668 -219 m 258
 768 -219 l 257
 768 -61 l 257
 586 -61 571 -25 571 110 c 256
 571 396 550 477 344 519 c 257
 557 558 572 646 572 958 c 256
 572 1065 600 1099 768 1099 c 257
 768 1258 l 257
 668 1258 l 258
 317 1258 313 1104 313 885 c 0
 313 880 313 875 313 870 c 256
 313 690 271 597 123 597 c 257
 123 442 l 257
 273 442 313 348 313 165 c 258
 313 157 l 2
 313 -66 315 -219 668 -219 c 258
EndSplineSet
EndChar

StartChar: braceright
Encoding: 125 125 175
Width: 877
VWidth: 0
Flags: HW
PickledData: "(dp1
S'org.robofab.postScriptHintData'
p2
(dp3
sS'com.typemytype.robofont.layerData'
p4
(dp5
S'b'
(dp6
S'name'
p7
S'braceright'
p8
sS'lib'
p9
(dp10
sS'unicodes'
p11
(tsS'width'
p12
I657
sS'contours'
p13
(tsS'components'
p14
(tsS'anchors'
p15
(tsss."
LayerCount: 2
Fore
SplineSet
150 -219 m 257
 250 -219 l 258
 603 -219 605 -66 605 157 c 2
 605 165 l 258
 605 348 645 442 795 442 c 257
 795 597 l 257
 647 597 605 691 605 872 c 256
 605 876 605 879 605 883 c 0
 605 1103 602 1258 250 1258 c 258
 150 1258 l 257
 150 1099 l 257
 318 1099 346 1065 346 958 c 256
 346 646 361 558 574 519 c 257
 367 477 347 395 347 107 c 256
 347 -25 331 -61 150 -61 c 257
 150 -219 l 257
EndSplineSet
EndChar

StartChar: bracketleft
Encoding: 91 91 176
Width: 845
VWidth: 0
Flags: HW
PickledData: "(dp1
S'org.robofab.postScriptHintData'
p2
(dp3
sS'com.typemytype.robofont.layerData'
p4
(dp5
S'b'
(dp6
S'name'
p7
S'bracketleft'
p8
sS'lib'
p9
(dp10
sS'unicodes'
p11
(tsS'width'
p12
I688
sS'contours'
p13
(tsS'components'
p14
(tsS'anchors'
p15
(tsss."
LayerCount: 2
Fore
SplineSet
263 -223 m 257
 695 -223 l 257
 695 -63 l 257
 510 -63 l 257
 510 1104 l 257
 695 1104 l 257
 695 1260 l 257
 263 1260 l 257
 263 -223 l 257
EndSplineSet
EndChar

StartChar: bracketright
Encoding: 93 93 177
Width: 845
VWidth: 0
Flags: HW
PickledData: "(dp1
S'org.robofab.postScriptHintData'
p2
(dp3
sS'com.typemytype.robofont.layerData'
p4
(dp5
S'b'
(dp6
S'name'
p7
S'bracketright'
p8
sS'lib'
p9
(dp10
sS'unicodes'
p11
(tsS'width'
p12
I687
sS'contours'
p13
(tsS'components'
p14
(tsS'anchors'
p15
(tsss."
LayerCount: 2
Fore
SplineSet
150 -223 m 257
 582 -223 l 257
 582 1260 l 257
 150 1260 l 257
 150 1104 l 257
 336 1104 l 257
 336 -63 l 257
 150 -63 l 257
 150 -223 l 257
EndSplineSet
EndChar

StartChar: breve
Encoding: 728 728 178
Width: 751
VWidth: 0
Flags: HW
PickledData: "(dp1
S'org.robofab.postScriptHintData'
p2
(dp3
sS'com.typemytype.robofont.layerData'
p4
(dp5
S'b'
(dp6
S'name'
p7
S'breve'
p8
sS'lib'
p9
(dp10
sS'unicodes'
p11
(tsS'width'
p12
I575
sS'contours'
p13
(tsS'components'
p14
(tsS'anchors'
p15
(tsss."
AnchorPoint: "top" 372 804 mark 0
LayerCount: 2
Fore
SplineSet
372 903 m 256
 554 903 665 1010 682 1199 c 257
 504 1199 l 257
 495 1117 448 1072 374 1072 c 256
 297 1072 251 1117 239 1199 c 257
 70 1199 l 257
 80 1010 190 903 372 903 c 256
EndSplineSet
EndChar

StartChar: breveinvertedcomb
Encoding: 785 785 179
Width: 584
VWidth: 0
Flags: HW
PickledData: "(dp1
S'org.robofab.postScriptHintData'
p2
(dp3
sS'com.typemytype.robofont.layerData'
p4
(dp5
S'b'
(dp6
S'name'
p7
S'uni0311'
p8
sS'lib'
p9
(dp10
sS'unicodes'
p11
(tsS'width'
p12
I584
sS'contours'
p13
(tsS'components'
p14
(tsS'anchors'
p15
(tsss."
AnchorPoint: "top" 292 822 mark 0
LayerCount: 2
Fore
SplineSet
-25 921 m 257
 156 921 l 257
 168 1001 213 1043 287 1043 c 256
 359 1043 404 1001 413 921 c 257
 603 921 l 257
 586 1114 471 1225 285 1225 c 256
 99 1225 -15 1114 -25 921 c 257
EndSplineSet
EndChar

StartChar: brokenbar
Encoding: 166 166 180
Width: 575
VWidth: 0
Flags: HW
PickledData: "(dp1
S'org.robofab.postScriptHintData'
p2
(dp3
sS'com.typemytype.robofont.layerData'
p4
(dp5
S'b'
(dp6
S'name'
p7
S'brokenbar'
p8
sS'lib'
p9
(dp10
sS'unicodes'
p11
(tsS'width'
p12
I467
sS'contours'
p13
(tsS'components'
p14
(tsS'anchors'
p15
(tsss."
LayerCount: 2
Fore
SplineSet
184 -229 m 257
 393 -229 l 257
 393 336 l 257
 184 336 l 257
 184 -229 l 257
184 625 m 257
 393 625 l 257
 393 1190 l 257
 184 1190 l 257
 184 625 l 257
EndSplineSet
EndChar

StartChar: bullet
Encoding: 8226 8226 181
Width: 559
VWidth: 0
Flags: HW
PickledData: "(dp1
S'org.robofab.postScriptHintData'
p2
(dp3
sS'com.typemytype.robofont.layerData'
p4
(dp5
S'b'
(dp6
S'name'
p7
S'bullet'
p8
sS'lib'
p9
(dp10
sS'unicodes'
p11
(tsS'width'
p12
I559
sS'contours'
p13
(tsS'components'
p14
(tsS'anchors'
p15
(tsss."
LayerCount: 2
Fore
SplineSet
280 368 m 256
 396 368 481 455 481 562 c 256
 481 672 396 754 280 754 c 256
 164 754 80 666 80 562 c 256
 80 460 164 368 280 368 c 256
EndSplineSet
EndChar

StartChar: c
Encoding: 99 99 182
Width: 976
VWidth: 0
Flags: HW
PickledData: "(dp1
S'org.robofab.postScriptHintData'
p2
(dp3
sS'com.typemytype.robofont.layerData'
p4
(dp5
S'b'
(dp6
S'name'
p7
S'c'
sS'lib'
p8
(dp9
sS'unicodes'
p10
(tsS'width'
p11
I1040
sS'contours'
p12
((dp13
S'points'
p14
((dp15
S'y'
S'-14'
p16
sS'x'
I599
sS'smooth'
p17
I0
s(dp18
S'y'
I33
sS'x'
I758
sg17
I0
s(dp19
S'segmentType'
p20
S'curve'
p21
sS'x'
I868
sg17
I0
sS'y'
I142
s(dp22
g20
S'line'
p23
sS'x'
I845
sg17
I0
sS'y'
I213
s(dp24
S'y'
I105
sS'x'
I763
sg17
I0
s(dp25
S'y'
I51
sS'x'
I637
sg17
I0
s(dp26
g20
S'curve'
p27
sS'x'
I515
sg17
I1
sS'y'
I51
s(dp28
S'y'
I51
sS'x'
I316
sg17
I0
s(dp29
S'y'
I193
sS'x'
I169
sg17
I0
s(dp30
g20
S'curve'
p31
sS'x'
I169
sg17
I1
sS'y'
I406
s(dp32
S'y'
I630
sS'x'
I169
sg17
I0
s(dp33
S'y'
I755
sS'x'
I336
sg17
I0
s(dp34
g20
S'curve'
p35
sS'x'
I515
sg17
I1
sS'y'
I755
s(dp36
S'y'
I755
sS'x'
I705
sg17
I0
s(dp37
S'y'
I657
sS'x'
I768
sg17
I0
s(dp38
g20
S'curve'
p39
sS'x'
I776
sg17
I0
sS'y'
I570
s(dp40
g20
S'line'
p41
sS'x'
I840
sg17
I0
sS'y'
I570
s(dp42
g20
S'line'
p43
sS'x'
I840
sg17
I0
sS'y'
I825
s(dp44
g20
S'line'
p45
sS'x'
I767
sg17
I0
sS'y'
I825
s(dp46
g20
S'line'
p47
sS'x'
I767
sg17
I0
sS'y'
I714
s(dp48
S'y'
I764
sS'x'
I736
sg17
I0
s(dp49
S'y'
I819
sS'x'
I645
sg17
I0
s(dp50
g20
S'curve'
p51
sS'x'
I522
sg17
I1
sS'y'
I819
s(dp52
S'y'
I819
sS'x'
F268.96812951340218
sg17
I0
s(dp53
S'y'
I650
sS'x'
I90
sg17
I0
s(dp54
g20
S'curve'
p55
sS'x'
I90
sg17
I1
sS'y'
I406
s(dp56
S'y'
I145
sS'x'
I90
sg17
I0
s(dp57
S'y'
S'-14'
p58
sS'x'
I286
sg17
I0
s(dp59
g20
S'curve'
p60
sS'x'
I515
sg17
I1
sS'y'
S'-14'
p61
stp62
stp63
sS'components'
p64
(tsS'anchors'
p65
(tsss."
AnchorPoint: "bot" 536 0 basechar 0
AnchorPoint: "top" 546 804 basechar 0
LayerCount: 2
Fore
SplineSet
327 413 m 0
 327 556 412 637 528 637 c 0
 622 637 695 584 724 457 c 1
 901 457 l 1
 901 806 l 1
 705 806 l 1
 702 735 l 1
 668 789 573 826 487 826 c 0
 221 826 46 653 46 410 c 0
 46 147 231 -21 521 -21 c 0
 672 -21 813 43 909 136 c 1
 821 285 l 1
 746 221 660 170 541 170 c 0
 407 170 327 266 327 413 c 0
EndSplineSet
EndChar

StartChar: caron
Encoding: 711 711 184
Width: 773
VWidth: 0
Flags: HW
PickledData: "(dp1
S'org.robofab.postScriptHintData'
p2
(dp3
sS'com.typemytype.robofont.layerData'
p4
(dp5
S'b'
(dp6
S'name'
p7
S'caron'
p8
sS'lib'
p9
(dp10
sS'unicodes'
p11
(tsS'width'
p12
I586
sS'contours'
p13
(tsS'components'
p14
(tsS'anchors'
p15
(tsss."
AnchorPoint: "top" 388 804 mark 0
LayerCount: 2
Fore
SplineSet
240 922 m 257
 534 922 l 257
 681 1264 l 257
 507 1264 l 257
 387 1045 l 257
 266 1264 l 257
 80 1264 l 257
 240 922 l 257
EndSplineSet
EndChar

StartChar: caron.alt
Encoding: 65539 -1 185
Width: 600
VWidth: 0
Flags: HW
PickledData: "(dp1
S'org.robofab.postScriptHintData'
p2
(dp3
s."
AnchorPoint: "caron.alt" 59 804 mark 0
LayerCount: 2
Fore
SplineSet
103 674 m 257
 317 674 415 756 415 908 c 258
 415 1174 l 257
 103 1174 l 257
 103 947 l 257
 230 947 l 257
 230 856 202 817 103 810 c 257
 103 674 l 257
EndSplineSet
EndChar

StartChar: cedilla
Encoding: 184 184 190
Width: 542
VWidth: 0
Flags: HW
PickledData: "(dp1
S'org.robofab.postScriptHintData'
p2
(dp3
sS'com.typemytype.robofont.layerData'
p4
(dp5
S'b'
(dp6
S'name'
p7
S'cedilla'
p8
sS'lib'
p9
(dp10
sS'unicodes'
p11
(tsS'width'
p12
I456
sS'contours'
p13
(tsS'components'
p14
(tsS'anchors'
p15
(tsss."
AnchorPoint: "bot" 303 0 mark 0
LayerCount: 2
Fore
SplineSet
290 -410 m 256
 389 -410 474 -367 474 -262 c 256
 474 -194 424 -130 320 -114 c 257
 348 4 l 257
 245 4 l 257
 175 -174 l 257
 256 -180 293 -202 293 -244 c 256
 293 -290 262 -306 218 -306 c 256
 181 -306 135 -293 93 -278 c 257
 93 -358 l 257
 152 -391 224 -410 290 -410 c 256
EndSplineSet
EndChar

StartChar: cent
Encoding: 162 162 191
Width: 981
VWidth: 0
Flags: HW
PickledData: "(dp1
S'org.robofab.postScriptHintData'
p2
(dp3
sS'com.typemytype.robofont.layerData'
p4
(dp5
S'b'
(dp6
S'name'
p7
S'cent'
p8
sS'lib'
p9
(dp10
sS'unicodes'
p11
(tsS'width'
p12
I969
sS'contours'
p13
(tsS'components'
p14
(tsS'anchors'
p15
(tsss."
LayerCount: 2
Fore
SplineSet
388 -403 m 257
 703 1188 l 257
 621 1201 l 257
 308 -390 l 257
 388 -403 l 257
EndSplineSet
Refer: 182 99 N 1 0 0 1 0 0 2
EndChar

StartChar: circumflex
Encoding: 710 710 192
Width: 786
VWidth: 0
Flags: HW
PickledData: "(dp1
S'org.robofab.postScriptHintData'
p2
(dp3
sS'com.typemytype.robofont.layerData'
p4
(dp5
S'b'
(dp6
S'name'
p7
S'circumflex'
p8
sS'lib'
p9
(dp10
sS'unicodes'
p11
(tsS'width'
p12
I618
sS'contours'
p13
(tsS'components'
p14
(tsS'anchors'
p15
(tsss."
AnchorPoint: "top" 397 804 mark 0
LayerCount: 2
Fore
SplineSet
84 922 m 257
 256 922 l 257
 392 1173 l 257
 529 922 l 257
 702 922 l 257
 581 1273 l 257
 203 1273 l 257
 84 922 l 257
EndSplineSet
EndChar

StartChar: colon
Encoding: 58 58 193
Width: 805
VWidth: 0
Flags: HW
PickledData: "(dp1
S'org.robofab.postScriptHintData'
p2
(dp3
sS'com.typemytype.robofont.layerData'
p4
(dp5
S'b'
(dp6
S'name'
p7
S'colon'
p8
sS'lib'
p9
(dp10
sS'unicodes'
p11
(tsS'width'
p12
I560
sS'contours'
p13
(tsS'components'
p14
(tsS'anchors'
p15
(tsss."
LayerCount: 2
Fore
SplineSet
251 32 m 257
 550 32 l 257
 550 329 l 257
 251 329 l 257
 251 32 l 257
251 641 m 257
 550 641 l 257
 550 943 l 257
 251 943 l 257
 251 641 l 257
EndSplineSet
EndChar

StartChar: comma
Encoding: 44 44 194
Width: 718
VWidth: 0
Flags: HW
PickledData: "(dp1
S'org.robofab.postScriptHintData'
p2
(dp3
sS'com.typemytype.robofont.layerData'
p4
(dp5
S'b'
(dp6
S'name'
p7
S'comma'
p8
sS'lib'
p9
(dp10
sS'unicodes'
p11
(tsS'width'
p12
I522
sS'contours'
p13
(tsS'components'
p14
(tsS'anchors'
p15
(tsss."
LayerCount: 2
Fore
SplineSet
241 -276 m 257
 484 -275 558 -201 558 39 c 256
 558 113 552 243 545 300 c 257
 523 300 256 300 237 298 c 257
 237 280 240 18 240 0 c 257
 402 0 l 257
 402 -114 347 -159 241 -171 c 257
 241 -276 l 257
EndSplineSet
EndChar

StartChar: commaaccent
Encoding: 65540 -1 195
Width: 531
VWidth: 0
Flags: HW
PickledData: "(dp1
S'org.robofab.postScriptHintData'
p2
(dp3
sS'com.typemytype.robofont.layerData'
p4
(dp5
S'b'
(dp6
S'name'
p7
S'commaaccent'
p8
sS'lib'
p9
(dp10
sS'unicodes'
p11
(tsS'width'
p12
I352
sS'contours'
p13
(tsS'components'
p14
(tsS'anchors'
p15
(tsss."
AnchorPoint: "bot" 283 0 mark 0
LayerCount: 2
Fore
SplineSet
122 -611 m 257
 336 -611 434 -530 434 -378 c 258
 434 -112 l 257
 122 -112 l 257
 122 -339 l 257
 249 -339 l 257
 249 -430 221 -469 122 -476 c 257
 122 -611 l 257
EndSplineSet
EndChar

StartChar: commaturnedabovecomb
Encoding: 786 786 196
Width: 600
VWidth: 0
Flags: HW
PickledData: "(dp1
S'org.robofab.postScriptHintData'
p2
(dp3
s."
AnchorPoint: "top" 238 804 mark 0
LayerCount: 2
Fore
SplineSet
110 923 m 257
 417 923 l 257
 414 1214 l 257
 248 1214 l 257
 248 1315 309 1356 412 1368 c 257
 412 1467 l 257
 184 1467 100 1402 100 1183 c 256
 100 1127 104 966 110 923 c 257
EndSplineSet
EndChar

StartChar: copyright
Encoding: 169 169 197
Width: 1538
VWidth: 0
Flags: HW
PickledData: "(dp1
S'org.robofab.postScriptHintData'
p2
(dp3
sS'com.typemytype.robofont.layerData'
p4
(dp5
S'b'
(dp6
S'name'
p7
S'copyright'
p8
sS'lib'
p9
(dp10
sS'unicodes'
p11
(tsS'width'
p12
I1538
sS'contours'
p13
(tsS'components'
p14
(tsS'anchors'
p15
(tsss."
LayerCount: 2
Fore
SplineSet
782 276 m 256
 901 276 1022 339 1073 428 c 257
 974 492 l 257
 937 433 859 391 785 391 c 256
 678 391 602 479 602 604 c 256
 602 726 678 812 785 812 c 256
 860 812 926 759 945 683 c 257
 1060 683 l 257
 1060 913 l 257
 940 913 l 257
 941 855 l 257
 908 897 837 926 768 926 c 256
 582 926 451 791 451 601 c 256
 451 411 588 276 782 276 c 256
767 103 m 256
 483 103 282 309 282 600 c 256
 282 896 483 1106 767 1106 c 256
 1053 1106 1255 896 1255 600 c 256
 1255 309 1053 103 767 103 c 256
767 -22 m 256
 1147 -22 1415 237 1415 603 c 256
 1415 970 1147 1230 767 1230 c 256
 390 1230 123 970 123 603 c 256
 123 237 390 -22 767 -22 c 256
EndSplineSet
EndChar

StartChar: currency
Encoding: 164 164 198
Width: 1146
VWidth: 0
Flags: HW
PickledData: "(dp1
S'org.robofab.postScriptHintData'
p2
(dp3
sS'com.typemytype.robofont.layerData'
p4
(dp5
S'b'
(dp6
S'name'
p7
S'currency'
p8
sS'lib'
p9
(dp10
sS'unicodes'
p11
(tsS'width'
p12
I1010
sS'contours'
p13
(tsS'components'
p14
(tsS'anchors'
p15
(tsss."
LayerCount: 2
Fore
SplineSet
282 451 m 257
 370 538 l 257
 427 509 489 486 569 486 c 256
 648 486 712 504 773 539 c 257
 863 451 l 257
 932 519 l 257
 847 603 l 257
 891 654 921 719 921 806 c 256
 921 882 897 951 849 1005 c 257
 932 1088 l 257
 863 1157 l 257
 775 1069 l 257
 723 1100 654 1124 571 1124 c 256
 487 1124 420 1100 368 1071 c 257
 282 1157 l 257
 213 1088 l 257
 293 1007 l 257
 247 949 220 880 220 802 c 256
 220 719 253 650 295 601 c 257
 213 519 l 257
 282 451 l 257
569 600 m 256
 437 600 353 702 353 810 c 256
 353 906 441 1006 571 1006 c 256
 688 1006 786 909 786 808 c 256
 786 702 703 600 569 600 c 256
EndSplineSet
EndChar

StartChar: d
Encoding: 100 100 199
Width: 1117
VWidth: 0
Flags: HW
PickledData: "(dp1
S'org.robofab.postScriptHintData'
p2
(dp3
sS'com.typemytype.robofont.layerData'
p4
(dp5
S'b'
(dp6
S'name'
p7
S'd'
sS'lib'
p8
(dp9
sS'unicodes'
p10
(tsS'width'
p11
I1089
sS'contours'
p12
(tsS'components'
p13
(tsS'anchors'
p14
(tsss."
AnchorPoint: "caron.alt" 1009 804 basechar 0
AnchorPoint: "top" 310 804 basechar 0
LayerCount: 2
Fore
SplineSet
691 0 m 1
 1070 0 l 1
 1070 182 l 1
 966 182 l 1
 966 1174 l 1
 544 1174 l 1
 544 992 l 1
 691 992 l 1
 691 744 l 1
 617 794 534 826 452 826 c 0
 222 826 48 664 48 392 c 0
 48 135 235 -22 482 -22 c 0
 561 -22 630 2 691 42 c 1
 691 0 l 1
691 194 m 1
 638 175 588 165 545 165 c 0
 425 165 337 250 337 399 c 0
 337 561 426 639 553 639 c 0
 596 639 643 629 691 610 c 1
 691 194 l 1
EndSplineSet
EndChar

StartChar: dagger
Encoding: 8224 8224 200
Width: 831
VWidth: 0
Flags: HW
PickledData: "(dp1
S'org.robofab.postScriptHintData'
p2
(dp3
sS'com.typemytype.robofont.layerData'
p4
(dp5
S'b'
(dp6
S'name'
p7
S'dagger'
p8
sS'lib'
p9
(dp10
sS'unicodes'
p11
(tsS'width'
p12
I833
sS'contours'
p13
(tsS'components'
p14
(tsS'anchors'
p15
(tsss."
LayerCount: 2
Fore
SplineSet
370 -227 m 257
 458 -227 l 257
 458 157 499 399 539 576 c 257
 458 765 l 257
 757 718 l 257
 757 913 l 257
 458 869 l 257
 522 1235 l 257
 310 1235 l 257
 370 869 l 257
 72 913 l 257
 72 718 l 257
 370 765 l 257
 293 576 l 257
 330 396 370 153 370 -227 c 257
EndSplineSet
EndChar

StartChar: daggerdbl
Encoding: 8225 8225 201
Width: 810
VWidth: 0
Flags: HW
PickledData: "(dp1
S'org.robofab.postScriptHintData'
p2
(dp3
sS'com.typemytype.robofont.layerData'
p4
(dp5
S'b'
(dp6
S'name'
p7
S'daggerdbl'
p8
sS'lib'
p9
(dp10
sS'unicodes'
p11
(tsS'width'
p12
I784
sS'contours'
p13
(tsS'components'
p14
(tsS'anchors'
p15
(tsss."
LayerCount: 2
Fore
SplineSet
300 -227 m 257
 513 -227 l 257
 449 37 l 257
 747 -6 l 257
 747 189 l 257
 469 141 l 257
 456 506 l 257
 469 865 l 257
 747 818 l 257
 747 1012 l 257
 449 969 l 257
 513 1233 l 257
 300 1233 l 257
 361 969 l 257
 63 1012 l 257
 63 818 l 257
 341 865 l 257
 353 508 l 257
 341 141 l 257
 63 189 l 257
 63 -6 l 257
 361 37 l 257
 300 -227 l 257
EndSplineSet
EndChar

StartChar: dblgravecmb
Encoding: 783 783 202
Width: 759
VWidth: 0
Flags: HW
PickledData: "(dp1
S'org.robofab.postScriptHintData'
p2
(dp3
sS'com.typemytype.robofont.layerData'
p4
(dp5
S'b'
(dp6
S'name'
p7
S'uni030F'
p8
sS'lib'
p9
(dp10
sS'unicodes'
p11
(tsS'width'
p12
I677
sS'contours'
p13
(tsS'components'
p14
(tsS'anchors'
p15
(tsss."
AnchorPoint: "top" 488 804 mark 0
LayerCount: 2
Fore
SplineSet
199 944 m 257
 364 944 l 257
 263 1292 l 257
 -10 1292 l 257
 199 944 l 257
579 944 m 257
 744 944 l 257
 643 1292 l 257
 370 1292 l 257
 579 944 l 257
EndSplineSet
EndChar

StartChar: degree
Encoding: 176 176 206
Width: 712
VWidth: 0
Flags: HW
PickledData: "(dp1
S'org.robofab.postScriptHintData'
p2
(dp3
sS'com.typemytype.robofont.layerData'
p4
(dp5
S'b'
(dp6
S'name'
p7
S'degree'
p8
sS'lib'
p9
(dp10
sS'unicodes'
p11
(tsS'width'
p12
I653
sS'contours'
p13
(tsS'components'
p14
(tsS'anchors'
p15
(tsss."
LayerCount: 2
Fore
SplineSet
357 802 m 256
 219 802 174 904 174 982 c 256
 176 1059 222 1160 352 1160 c 256
 493 1160 538 1050 538 985 c 256
 538 900 487 802 357 802 c 256
355 713 m 256
 556 715 627 865 627 981 c 256
 627 1096 553 1246 355 1246 c 256
 159 1246 86 1096 86 981 c 256
 86 863 156 713 355 713 c 256
EndSplineSet
EndChar

StartChar: dieresis
Encoding: 168 168 207
Width: 910
VWidth: 0
Flags: HW
PickledData: "(dp1
S'org.robofab.postScriptHintData'
p2
(dp3
sS'com.typemytype.robofont.layerData'
p4
(dp5
S'b'
(dp6
S'name'
p7
S'dieresis'
p8
sS'lib'
p9
(dp10
sS'unicodes'
p11
(tsS'width'
p12
I661
sS'contours'
p13
(tsS'components'
p14
(tsS'anchors'
p15
(tsss."
AnchorPoint: "top" 452 804 mark 0
LayerCount: 2
Fore
SplineSet
211 912 m 256
 305 912 363 977 362 1057 c 257
 362 1148 296 1201 211 1201 c 256
 128 1201 60 1141 60 1059 c 0
 60 975 127 912 211 912 c 256
699 912 m 256
 793 912 851 977 850 1057 c 257
 850 1148 783 1201 699 1201 c 256
 616 1201 548 1141 548 1059 c 0
 548 975 614 912 699 912 c 256
EndSplineSet
EndChar

StartChar: divide
Encoding: 247 247 208
Width: 895
VWidth: 0
Flags: HW
PickledData: "(dp1
S'org.robofab.postScriptHintData'
p2
(dp3
sS'com.typemytype.robofont.layerData'
p4
(dp5
S'b'
(dp6
S'name'
p7
S'divide'
p8
sS'lib'
p9
(dp10
sS'unicodes'
p11
(tsS'width'
p12
I895
sS'contours'
p13
(tsS'components'
p14
(tsS'anchors'
p15
(tsss."
LayerCount: 2
Fore
SplineSet
333 101 m 257
 564 101 l 257
 564 321 l 257
 333 321 l 257
 333 101 l 257
59 454 m 257
 836 454 l 257
 836 615 l 257
 59 615 l 257
 59 454 l 257
333 745 m 257
 564 745 l 257
 564 964 l 257
 333 964 l 257
 333 745 l 257
EndSplineSet
EndChar

StartChar: dollar
Encoding: 36 36 209
Width: 1120
VWidth: 0
Flags: HW
PickledData: "(dp1
S'org.robofab.postScriptHintData'
p2
(dp3
sS'com.typemytype.robofont.layerData'
p4
(dp5
S'b'
(dp6
S'name'
p7
S'dollar'
p8
sS'lib'
p9
(dp10
sS'unicodes'
p11
(tsS'width'
p12
I1034
sS'contours'
p13
(tsS'components'
p14
(tsS'anchors'
p15
(tsss."
LayerCount: 2
Fore
SplineSet
521 -178 m 257
 620 -178 l 257
 620 1360 l 257
 521 1360 l 257
 521 -178 l 257
EndSplineSet
Refer: 106 83 N 1 0 0 1 -24 0 2
EndChar

StartChar: dotaccent
Encoding: 729 729 211
Width: 450
VWidth: 0
Flags: HW
PickledData: "(dp1
S'org.robofab.postScriptHintData'
p2
(dp3
sS'com.typemytype.robofont.layerData'
p4
(dp5
S'b'
(dp6
S'name'
p7
S'dotaccent'
p8
sS'lib'
p9
(dp10
sS'unicodes'
p11
(tsS'width'
p12
I219
sS'contours'
p13
(tsS'components'
p14
(tsS'anchors'
p15
(tsss."
AnchorPoint: "top" 228 804 mark 0
LayerCount: 2
Fore
SplineSet
228 967 m 256
 328 967 398 1033 398 1128 c 0
 398 1223 330 1291 228 1291 c 256
 128 1291 58 1224 58 1130 c 256
 58 1034 128 967 228 967 c 256
EndSplineSet
EndChar

StartChar: dotlessj
Encoding: 567 567 214
Width: 602
VWidth: 0
Flags: HW
PickledData: "(dp1
S'org.robofab.postScriptHintData'
p2
(dp3
sS'com.typemytype.robofont.layerData'
p4
(dp5
S'b'
(dp6
S'name'
p7
S'uni0237'
p8
sS'lib'
p9
(dp10
sS'unicodes'
p11
(tsS'width'
p12
I583
sS'contours'
p13
(tsS'components'
p14
(tsS'anchors'
p15
(tsss."
AnchorPoint: "top" 331 804 basechar 0
LayerCount: 2
Fore
SplineSet
-8 -344 m 257
 96 -344 l 258
 484 -344 509 -126 509 73 c 0
 509 102 508 130 508 157 c 258
 508 804 l 257
 68 804 l 257
 68 622 l 257
 226 622 l 257
 226 42 l 258
 226 -106 179 -135 69 -135 c 258
 -8 -135 l 257
 -8 -344 l 257
EndSplineSet
EndChar

StartChar: e
Encoding: 101 101 217
Width: 945
VWidth: 0
Flags: HW
PickledData: "(dp1
S'org.robofab.postScriptHintData'
p2
(dp3
sS'com.typemytype.robofont.layerData'
p4
(dp5
S'b'
(dp6
S'name'
p7
S'e'
sS'lib'
p8
(dp9
sS'unicodes'
p10
(tsS'width'
p11
I1054
sS'contours'
p12
((dp13
S'points'
p14
((dp15
S'segmentType'
p16
S'line'
p17
sS'x'
I119
sS'smooth'
p18
I0
sS'y'
I442
s(dp19
S'y'
I592
sS'x'
I130
sg18
I0
s(dp20
S'y'
I755
sS'x'
I244
sg18
I0
s(dp21
g16
S'curve'
p22
sS'x'
I455
sg18
I1
sS'y'
I755
s(dp23
S'y'
I755
sS'x'
I647
sg18
I0
s(dp24
S'y'
I616
sS'x'
I751
sg18
I0
s(dp25
g16
S'curve'
p26
sS'x'
I768
sg18
I0
sS'y'
I442
stp27
s(dp28
g14
((dp29
g16
S'line'
p30
sS'x'
I838
sg18
I0
sS'y'
I383
s(dp31
S'y'
I601
sS'x'
I837
sg18
I0
s(dp32
S'y'
I819
sS'x'
F726.76831688899995
sg18
I0
s(dp33
g16
S'curve'
p34
sS'x'
I450
sg18
I1
sS'y'
I819
s(dp35
S'y'
I819
sS'x'
I180
sg18
I0
s(dp36
S'y'
I618
sS'x'
I38
sg18
I0
s(dp37
g16
S'curve'
p38
sS'x'
I38
sg18
I1
sS'y'
I403
s(dp39
S'y'
I150
sS'x'
I38
sg18
I0
s(dp40
S'y'
S'-14'
p41
sS'x'
I232
sg18
I0
s(dp42
g16
S'curve'
p43
sS'x'
I511
sg18
I1
sS'y'
S'-14'
p44
s(dp45
S'y'
S'-14'
p46
sS'x'
I657
sg18
I0
s(dp47
S'y'
I34
sS'x'
I761
sg18
I0
s(dp48
g16
S'curve'
p49
sS'x'
I868
sg18
I0
sS'y'
I139
s(dp50
g16
S'line'
p51
sS'x'
I836
sg18
I0
sS'y'
I197
s(dp52
S'y'
I103
sS'x'
I747
sg18
I0
s(dp53
S'y'
I50
sS'x'
I652
sg18
I0
s(dp54
g16
S'curve'
p55
sS'x'
I515
sg18
I1
sS'y'
I50
s(dp56
S'y'
I50
sS'x'
I347
sg18
I0
s(dp57
S'y'
I162
sS'x'
I182
sg18
I0
s(dp58
g16
S'curve'
p59
sS'x'
I169
sg18
I0
sS'y'
I383
stp60
stp61
sS'components'
p62
(tsS'anchors'
p63
(tsss."
AnchorPoint: "bot" 497 0 basechar 0
AnchorPoint: "top" 483 804 basechar 0
LayerCount: 2
Fore
SplineSet
331 495 m 1
 347 597 413 663 498 663 c 0
 588 663 648 597 651 495 c 1
 331 495 l 1
517 -20 m 0
 667 -20 807 34 887 108 c 1
 809 254 l 1
 734 203 644 168 549 168 c 0
 430 168 336 234 329 359 c 1
 893 359 l 1
 893 645 737 827 490 827 c 0
 217 827 43 660 43 396 c 0
 43 142 227 -20 517 -20 c 0
EndSplineSet
EndChar

StartChar: eight
Encoding: 56 56 225
Width: 1164
VWidth: 0
Flags: HW
PickledData: "(dp1
S'org.robofab.postScriptHintData'
p2
(dp3
sS'com.typemytype.robofont.layerData'
p4
(dp5
S'b'
(dp6
S'name'
p7
S'eight'
p8
sS'lib'
p9
(dp10
sS'unicodes'
p11
(tsS'width'
p12
I1109
sS'contours'
p13
(tsS'components'
p14
(tsS'anchors'
p15
(tsss."
LayerCount: 2
Fore
SplineSet
585 1174 m 0
 321 1174 142 1046 142 864 c 256
 142 742 211 641 333 600 c 257
 188 565 99 451 99 310 c 256
 99 120 287 -22 587 -22 c 256
 877 -22 1064 119 1064 310 c 256
 1064 449 977 565 833 606 c 257
 953 649 1020 747 1020 865 c 256
 1020 1047 844 1174 585 1174 c 0
587 136 m 256
 477 136 405 209 405 313 c 256
 405 443 470 533 513 533 c 0
 514 533 515 533 516 533 c 256
 659 500 761 433 761 312 c 256
 761 208 690 136 587 136 c 256
635 670 m 256
 520 700 431 763 431 857 c 256
 431 953 489 1018 582 1018 c 256
 678 1018 736 951 736 857 c 256
 736 748 678 670 640 670 c 0
 638 670 637 670 635 670 c 256
EndSplineSet
EndChar

StartChar: emdash
Encoding: 8212 8212 228
Width: 1914
VWidth: 0
Flags: HW
PickledData: "(dp1
S'org.robofab.postScriptHintData'
p2
(dp3
sS'com.typemytype.robofont.layerData'
p4
(dp5
S'b'
(dp6
S'name'
p7
S'emdash'
p8
sS'lib'
p9
(dp10
sS'unicodes'
p11
(tsS'width'
p12
I2045
sS'contours'
p13
(tsS'components'
p14
(tsS'anchors'
p15
(tsss."
LayerCount: 2
Fore
SplineSet
70 319 m 257
 1844 319 l 257
 1844 455 l 257
 70 455 l 257
 70 319 l 257
EndSplineSet
EndChar

StartChar: emptyset
Encoding: 8709 8709 229
Width: 1349
VWidth: 0
Flags: HW
PickledData: "(dp1
S'org.robofab.postScriptHintData'
p2
(dp3
s."
LayerCount: 2
Fore
SplineSet
241 -64 m 257
 355 71 l 257
 446 11 556 -22 674 -22 c 256
 978 -22 1226 222 1226 525 c 256
 1226 676 1165 811 1067 910 c 257
 1182 1045 l 257
 1114 1104 l 257
 999 968 l 257
 907 1033 795 1073 674 1073 c 256
 372 1073 123 852 123 525 c 256
 123 357 186 219 288 124 c 257
 178 -7 l 257
 241 -64 l 257
358 207 m 257
 281 284 236 395 236 524 c 256
 236 783 425 971 674 971 c 256
 771 971 860 939 931 887 c 257
 358 207 l 257
673 80 m 256
 579 80 494 105 424 152 c 257
 997 827 l 257
 1070 746 1114 639 1114 524 c 256
 1114 287 923 80 673 80 c 256
EndSplineSet
EndChar

StartChar: endash
Encoding: 8211 8211 230
Width: 1011
VWidth: 0
Flags: HW
PickledData: "(dp1
S'org.robofab.postScriptHintData'
p2
(dp3
sS'com.typemytype.robofont.layerData'
p4
(dp5
S'b'
(dp6
S'name'
p7
S'endash'
p8
sS'lib'
p9
(dp10
sS'unicodes'
p11
(tsS'width'
p12
I1222
sS'contours'
p13
(tsS'components'
p14
(tsS'anchors'
p15
(tsss."
LayerCount: 2
Fore
SplineSet
70 337 m 257
 941 337 l 257
 941 473 l 257
 70 473 l 257
 70 337 l 257
EndSplineSet
EndChar

StartChar: eng
Encoding: 331 331 231
Width: 1185
VWidth: 0
Flags: HW
PickledData: "(dp1
S'org.robofab.postScriptHintData'
p2
(dp3
s."
LayerCount: 2
Fore
SplineSet
551 -329 m 257
 811 -329 1037 -239 1037 102 c 258
 1037 509 l 258
 1037 724 913 826 758 826 c 256
 594 826 455 731 316 559 c 257
 316 427 l 257
 410 553 522 622 638 622 c 256
 713 622 764 572 764 465 c 258
 764 105 l 258
 764 -74 702 -135 553 -135 c 257
 551 -329 l 257
EndSplineSet
Refer: 299 -1 N 1 0 0 1 -99 0 2
EndChar

StartChar: equal
Encoding: 61 61 233
Width: 1141
VWidth: 0
Flags: HW
PickledData: "(dp1
S'org.robofab.postScriptHintData'
p2
(dp3
sS'com.typemytype.robofont.layerData'
p4
(dp5
S'b'
(dp6
S'name'
p7
S'equal'
p8
sS'lib'
p9
(dp10
sS'unicodes'
p11
(tsS'width'
p12
I1209
sS'contours'
p13
(tsS'components'
p14
(tsS'anchors'
p15
(tsss."
LayerCount: 2
Fore
SplineSet
161 212 m 257
 980 212 l 257
 980 397 l 257
 161 397 l 257
 161 212 l 257
161 611 m 257
 980 611 l 257
 980 797 l 257
 161 797 l 257
 161 611 l 257
EndSplineSet
EndChar

StartChar: estimated
Encoding: 8494 8494 234
Width: 1114
VWidth: 0
Flags: HW
PickledData: "(dp1
S'org.robofab.postScriptHintData'
p2
(dp3
s."
LayerCount: 2
Fore
SplineSet
976 111 m 257
 945 156 l 257
 840 84 742 50 657 50 c 0
 492 50 377 178 360 401 c 257
 967 401 l 257
 967 649 862 826 580 826 c 256
 312 826 134 656 134 420 c 256
 134 125 366 -20 607 -20 c 0
 740 -20 875 24 976 111 c 257
361 461 m 257
 366 671 488 779 608 779 c 0
 727 779 844 674 844 461 c 257
 361 461 l 257
EndSplineSet
EndChar

StartChar: eth
Encoding: 240 240 235
Width: 1049
VWidth: 0
Flags: HW
PickledData: "(dp1
S'org.robofab.postScriptHintData'
p2
(dp3
sS'com.typemytype.robofont.layerData'
p4
(dp5
S'b'
(dp6
S'name'
p7
S'eth'
p8
sS'lib'
p9
(dp10
sS'unicodes'
p11
(tsS'width'
p12
I1022
sS'contours'
p13
(tsS'components'
p14
(tsS'anchors'
p15
(tsss."
LayerCount: 2
Fore
SplineSet
558 -21 m 256
 844 -21 1021 187 1021 431 c 256
 1021 1048 636 1270 393 1425 c 257
 282 1283 l 257
 485 1147 671 984 771 735 c 257
 770 735 681 795 528 795 c 256
 274 795 132 595 132 401 c 256
 132 172 268 -21 558 -21 c 256
578 178 m 256
 461 178 388 273 388 414 c 256
 388 542 457 623 573 623 c 256
 688 623 769 546 769 412 c 256
 769 276 705 178 578 178 c 256
368 893 m 257
 988 1186 l 257
 915 1344 l 257
 293 1052 l 257
 368 893 l 257
EndSplineSet
EndChar

StartChar: exclam
Encoding: 33 33 236
Width: 575
VWidth: 0
Flags: HW
PickledData: "(dp1
S'org.robofab.postScriptHintData'
p2
(dp3
sS'com.typemytype.robofont.layerData'
p4
(dp5
S'b'
(dp6
S'name'
p7
S'exclam'
p8
sS'lib'
p9
(dp10
sS'unicodes'
p11
(tsS'width'
p12
I502
sS'contours'
p13
(tsS'components'
p14
(tsS'anchors'
p15
(tsss."
LayerCount: 2
Fore
SplineSet
240 398 m 257
 346 398 l 257
 415 891 l 257
 415 1180 l 257
 160 1180 l 257
 160 891 l 257
 240 398 l 257
137 0 m 257
 435 0 l 257
 435 260 l 257
 137 260 l 257
 137 0 l 257
EndSplineSet
EndChar

StartChar: f
Encoding: 102 102 238
Width: 837
VWidth: 0
Flags: HW
PickledData: "(dp1
S'org.robofab.postScriptHintData'
p2
(dp3
sS'com.typemytype.robofont.layerData'
p4
(dp5
S'b'
(dp6
S'name'
p7
S'f'
sS'lib'
p8
(dp9
sS'unicodes'
p10
(tsS'width'
p11
I748
sS'contours'
p12
(tsS'components'
p13
(tsS'anchors'
p14
(tsss."
AnchorPoint: "top" 429 1175 basechar 0
LayerCount: 2
Fore
SplineSet
68 0 m 1
 748 0 l 1
 748 182 l 1
 521 182 l 1
 521 622 l 1
 742 622 l 1
 742 804 l 1
 521 804 l 1
 521 916 l 2
 521 1044 563 1070 610 1070 c 0
 679 1070 687 1027 699 951 c 1
 902 1013 l 1
 883 1170 792 1240 576 1240 c 0
 299 1240 246 1054 246 876 c 2
 246 804 l 1
 70 804 l 1
 70 622 l 1
 246 622 l 1
 246 182 l 1
 68 182 l 1
 68 0 l 1
EndSplineSet
EndChar

StartChar: ff
Encoding: 65542 -1 240
Width: 1600
VWidth: 0
Flags: HW
PickledData: "(dp1
S'org.robofab.postScriptHintData'
p2
(dp3
sS'com.typemytype.robofont.layerData'
p4
(dp5
S'b'
(dp6
S'name'
p7
S'ff'
p8
sS'lib'
p9
(dp10
sS'unicodes'
p11
(tsS'width'
p12
I1351
sS'contours'
p13
(tsS'components'
p14
(tsS'anchors'
p15
(tsss."
LayerCount: 2
Fore
SplineSet
851 0 m 257
 1497 0 l 257
 1497 182 l 257
 1289 182 l 257
 1289 622 l 257
 1496 622 l 257
 1496 804 l 257
 1289 804 l 257
 1289 916 l 258
 1289 1044 1311 1070 1358 1070 c 256
 1410 1070 1417 1027 1429 951 c 257
 1632 1013 l 257
 1613 1170 1523 1240 1344 1240 c 256
 1067 1240 1014 1090 1014 876 c 258
 1014 804 l 257
 649 804 l 257
 649 622 l 257
 1014 622 l 257
 1014 182 l 257
 851 182 l 257
 851 0 l 257
EndSplineSet
Refer: 238 102 N 1 0 0 1 0 0 2
EndChar

StartChar: ffi
Encoding: 65543 -1 241
Width: 2028
VWidth: 0
Flags: HW
PickledData: "(dp1
S'org.robofab.postScriptHintData'
p2
(dp3
sS'com.typemytype.robofont.layerData'
p4
(dp5
S'b'
(dp6
S'name'
p7
S'ffi'
p8
sS'lib'
p9
(dp10
sS'unicodes'
p11
(tsS'width'
p12
I1751
sS'contours'
p13
(tsS'components'
p14
(tsS'anchors'
p15
(tsss."
LayerCount: 2
Fore
SplineSet
65 0 m 257
 634 0 l 257
 634 182 l 257
 503 182 l 257
 503 622 l 257
 834 622 l 257
 834 804 l 257
 503 804 l 257
 503 924 l 258
 503 1027 588 1075 706 1075 c 256
 806 1075 929 1041 1045 980 c 257
 1106 1112 l 257
 978 1212 806 1266 648 1266 c 256
 424 1266 228 1157 228 918 c 258
 228 804 l 257
 64 804 l 257
 64 622 l 257
 228 622 l 257
 228 182 l 257
 65 182 l 257
 65 0 l 257
EndSplineSet
Refer: 243 64257 N 1 0 0 1 644 0 2
EndChar

StartChar: ffl
Encoding: 65544 -1 242
Width: 2121
VWidth: 0
Flags: HW
PickledData: "(dp1
S'org.robofab.postScriptHintData'
p2
(dp3
sS'com.typemytype.robofont.layerData'
p4
(dp5
S'b'
(dp6
S'name'
p7
S'ffl'
p8
sS'lib'
p9
(dp10
sS'unicodes'
p11
(tsS'width'
p12
I1771
sS'contours'
p13
(tsS'components'
p14
(tsS'anchors'
p15
(tsss."
LayerCount: 2
Fore
SplineSet
80 0 m 257
 648 0 l 257
 648 182 l 257
 518 182 l 257
 518 622 l 257
 848 622 l 257
 848 804 l 257
 518 804 l 257
 518 924 l 258
 518 1027 602 1075 721 1075 c 256
 821 1075 944 1041 1059 980 c 257
 1121 1112 l 257
 992 1212 820 1266 663 1266 c 256
 438 1266 243 1157 243 918 c 258
 243 804 l 257
 78 804 l 257
 78 622 l 257
 243 622 l 257
 243 182 l 257
 80 182 l 257
 80 0 l 257
EndSplineSet
Refer: 246 64258 N 1 0 0 1 658 0 2
EndChar

StartChar: fi
Encoding: 64257 64257 243
Width: 1385
VWidth: 0
Flags: HW
PickledData: "(dp1
S'org.robofab.postScriptHintData'
p2
(dp3
sS'com.typemytype.robofont.layerData'
p4
(dp5
S'b'
(dp6
S'name'
p7
S'fi'
p8
sS'lib'
p9
(dp10
sS'unicodes'
p11
(tsS'width'
p12
I1222
sS'contours'
p13
(tsS'components'
p14
(tsS'anchors'
p15
(tsss."
LayerCount: 2
Fore
SplineSet
101 0 m 257
 726 0 l 257
 726 182 l 257
 539 182 l 257
 539 622 l 257
 952 622 l 257
 952 182 l 257
 823 182 l 257
 823 0 l 257
 1340 0 l 257
 1340 182 l 257
 1226 182 l 257
 1226 804 l 257
 539 804 l 257
 539 902 l 258
 539 1098 640 1164 773 1164 c 256
 887 1164 940 1129 957 1116 c 257
 945 1094 938 1070 938 1048 c 256
 938 984 991 935 1081 935 c 256
 1182 935 1232 999 1232 1068 c 256
 1232 1215 1018 1303 781 1303 c 256
 562 1303 264 1228 264 875 c 258
 264 804 l 257
 99 804 l 257
 99 622 l 257
 264 622 l 257
 264 182 l 257
 101 182 l 257
 101 0 l 257
EndSplineSet
EndChar

StartChar: five
Encoding: 53 53 244
Width: 1137
VWidth: 0
Flags: HW
PickledData: "(dp1
S'org.robofab.postScriptHintData'
p2
(dp3
sS'com.typemytype.robofont.layerData'
p4
(dp5
S'b'
(dp6
S'name'
p7
S'five'
p8
sS'lib'
p9
(dp10
sS'unicodes'
p11
(tsS'width'
p12
I1054
sS'contours'
p13
(tsS'components'
p14
(tsS'anchors'
p15
(tsss."
LayerCount: 2
Fore
SplineSet
565 -23 m 256
 847 -23 1034 132 1034 366 c 256
 1034 605 886 762 661 762 c 256
 557 762 452 724 404 667 c 257
 424 965 l 257
 779 965 l 257
 779 847 l 257
 976 847 l 257
 976 1152 l 257
 198 1152 l 257
 168 543 l 257
 380 459 l 257
 433 522 524 559 585 559 c 256
 690 559 758 490 758 383 c 256
 758 269 674 195 548 195 c 256
 439 195 322 250 245 329 c 257
 119 152 l 257
 214 49 383 -23 565 -23 c 256
EndSplineSet
EndChar

StartChar: fj
Encoding: 0 0 245
Width: 1371
VWidth: 0
Flags: HW
PickledData: "(dp1
S'org.robofab.postScriptHintData'
p2
(dp3
sS'com.typemytype.robofont.layerData'
p4
(dp5
S'b'
(dp6
S'name'
p7
S'fj'
p8
sS'lib'
p9
(dp10
sS'unicodes'
p11
(tsS'width'
p12
I1275
sS'contours'
p13
(tsS'components'
p14
(tsS'anchors'
p15
(tsss."
LayerCount: 2
Fore
SplineSet
761 -407 m 257
 866 -407 l 258
 1253 -407 1278 -189 1278 10 c 0
 1278 39 1277 67 1277 94 c 258
 1277 804 l 257
 539 804 l 257
 539 902 l 258
 539 1098 640 1164 773 1164 c 256
 887 1164 940 1129 957 1116 c 257
 945 1094 938 1070 938 1048 c 256
 938 984 991 935 1081 935 c 256
 1182 935 1232 999 1232 1068 c 256
 1232 1215 1018 1303 781 1303 c 256
 562 1303 264 1228 264 875 c 258
 264 804 l 257
 99 804 l 257
 99 622 l 257
 264 622 l 257
 264 182 l 257
 101 182 l 257
 101 0 l 257
 726 0 l 257
 726 182 l 257
 539 182 l 257
 539 622 l 257
 995 622 l 257
 995 -21 l 258
 995 -169 948 -198 839 -198 c 258
 761 -198 l 257
 761 -407 l 257
EndSplineSet
EndChar

StartChar: fl
Encoding: 64258 64258 246
Width: 1384
VWidth: 0
Flags: HW
PickledData: "(dp1
S'org.robofab.postScriptHintData'
p2
(dp3
sS'com.typemytype.robofont.layerData'
p4
(dp5
S'b'
(dp6
S'name'
p7
S'fl'
p8
sS'lib'
p9
(dp10
sS'unicodes'
p11
(tsS'width'
p12
I1274
sS'contours'
p13
(tsS'components'
p14
(tsS'anchors'
p15
(tsss."
LayerCount: 2
Fore
SplineSet
80 0 m 257
 705 0 l 257
 705 182 l 257
 518 182 l 257
 518 622 l 257
 704 622 l 257
 704 804 l 257
 518 804 l 257
 518 958 l 258
 518 1070 640 1120 780 1120 c 256
 852 1120 916 1109 916 1039 c 258
 916 183 l 258
 916 91 958 0 1083 0 c 258
 1330 0 l 257
 1330 183 l 257
 1190 183 l 257
 1191 1121 l 258
 1191 1249 1003 1316 794 1316 c 256
 534 1316 243 1230 243 930 c 258
 243 804 l 257
 78 804 l 257
 78 622 l 257
 243 622 l 257
 243 182 l 257
 80 182 l 257
 80 0 l 257
EndSplineSet
EndChar

StartChar: florin
Encoding: 402 402 247
Width: 1143
VWidth: 0
Flags: HW
PickledData: "(dp1
S'org.robofab.postScriptHintData'
p2
(dp3
sS'com.typemytype.robofont.layerData'
p4
(dp5
S'b'
(dp6
S'name'
p7
S'florin'
p8
sS'lib'
p9
(dp10
sS'unicodes'
p11
(tsS'width'
p12
I1142
sS'contours'
p13
(tsS'components'
p14
(tsS'anchors'
p15
(tsss."
LayerCount: 2
Fore
SplineSet
184 -347 m 256
 387 -347 522 -259 580 36 c 258
 704 669 l 257
 913 669 l 257
 934 783 l 257
 724 783 l 257
 756 948 l 257
 780 1078 800 1140 852 1140 c 256
 897 1140 920 1075 920 969 c 257
 1065 969 1108 1027 1108 1102 c 256
 1108 1176 1029 1233 860 1233 c 256
 651 1233 546 1125 508 937 c 258
 477 783 l 257
 316 783 l 257
 296 669 l 257
 457 669 l 257
 336 37 l 258
 296 -171 262 -245 180 -245 c 256
 140 -245 88 -232 60 -222 c 257
 35 -325 l 257
 72 -337 132 -347 184 -347 c 256
EndSplineSet
EndChar

StartChar: foundryicon
Encoding: 65545 -1 248
Width: 1347
VWidth: 0
Flags: HW
PickledData: "(dp1
S'org.robofab.postScriptHintData'
p2
(dp3
sS'com.typemytype.robofont.layerData'
p4
(dp5
S'b'
(dp6
S'name'
p7
S'foundryicon'
p8
sS'lib'
p9
(dp10
sS'unicodes'
p11
(tsS'width'
p12
I0
sS'contours'
p13
(tsS'components'
p14
(tsS'anchors'
p15
(tsss."
LayerCount: 2
Fore
SplineSet
485 405 m 257
 485 672 l 257
 591 672 l 257
 761 523 l 257
 761 672 l 257
 867 672 l 257
 867 405 l 257
 761 405 l 257
 591 552 l 257
 591 405 l 257
 485 405 l 257
280 2 m 257
 669 278 l 257
 1066 2 l 257
 922 461 l 257
 1313 755 l 257
 828 755 l 257
 669 1215 l 257
 519 755 l 257
 34 755 l 257
 423 461 l 257
 280 2 l 257
EndSplineSet
EndChar

StartChar: four
Encoding: 52 52 249
Width: 1104
VWidth: 0
Flags: HW
PickledData: "(dp1
S'org.robofab.postScriptHintData'
p2
(dp3
sS'com.typemytype.robofont.layerData'
p4
(dp5
S'b'
(dp6
S'name'
p7
S'four'
p8
sS'lib'
p9
(dp10
sS'unicodes'
p11
(tsS'width'
p12
I973
sS'contours'
p13
(tsS'components'
p14
(tsS'anchors'
p15
(tsss."
LayerCount: 2
Fore
SplineSet
351 0 m 257
 966 0 l 257
 966 182 l 257
 808 182 l 257
 808 366 l 257
 978 366 l 257
 978 528 l 257
 808 528 l 257
 808 1152 l 257
 527 1152 l 257
 34 523 l 257
 59 366 l 257
 537 366 l 257
 537 182 l 257
 351 182 l 257
 351 0 l 257
252 528 m 257
 537 914 l 257
 537 528 l 257
 252 528 l 257
EndSplineSet
EndChar

StartChar: fraction
Encoding: 8260 8260 251
Width: 848
VWidth: 0
Flags: HW
PickledData: "(dp1
S'org.robofab.postScriptHintData'
p2
(dp3
sS'com.typemytype.robofont.layerData'
p4
(dp5
S'b'
(dp6
S'name'
p7
S'fraction'
p8
sS'lib'
p9
(dp10
sS'unicodes'
p11
(tsS'width'
p12
I708
sS'contours'
p13
(tsS'components'
p14
(tsS'anchors'
p15
(tsss."
LayerCount: 2
Fore
SplineSet
-52 -78 m 257
 97 -78 l 257
 896 1222 l 257
 751 1222 l 257
 -52 -78 l 257
EndSplineSet
EndChar

StartChar: g
Encoding: 103 103 252
Width: 1115
VWidth: 0
Flags: HW
PickledData: "(dp1
S'org.robofab.postScriptHintData'
p2
(dp3
sS'com.typemytype.robofont.layerData'
p4
(dp5
S'b'
(dp6
S'name'
p7
S'g'
sS'lib'
p8
(dp9
sS'unicodes'
p10
(tsS'width'
p11
I1131
sS'contours'
p12
((dp13
S'points'
p14
((dp15
S'segmentType'
p16
S'curve'
p17
sS'x'
I510
sS'smooth'
p18
I1
sS'y'
S'-333'
p19
s(dp20
S'y'
S'-333'
p21
sS'x'
I722
sg18
I0
s(dp22
S'y'
S'-225'
p23
sS'x'
I880
sg18
I0
s(dp24
g16
S'curve'
p25
sS'x'
I880
sg18
I0
sS'y'
I15
s(dp26
g16
S'line'
p27
sS'x'
I880
sg18
I0
sS'y'
I735
s(dp28
g16
S'line'
p29
sS'x'
I1005
sg18
I0
sS'y'
I735
s(dp30
g16
S'line'
p31
sS'x'
I1005
sg18
I0
sS'y'
I789
s(dp32
g16
S'line'
p33
sS'x'
I804
sg18
I0
sS'y'
I789
s(dp34
g16
S'line'
p35
sS'x'
I804
sg18
I0
sS'y'
I673
s(dp36
S'y'
I673
sS'x'
I804
sg18
I0
s(dp37
S'y'
S'-2'
p38
sS'x'
I804
sg18
I0
s(dp39
g16
S'curve'
p40
sS'x'
I804
sg18
I1
sS'y'
S'-2'
p41
s(dp42
S'y'
S'-173'
p43
sS'x'
I804
sg18
I0
s(dp44
S'y'
S'-271'
p45
sS'x'
I695
sg18
I0
s(dp46
g16
S'curve'
p47
sS'x'
I515
sg18
I1
sS'y'
S'-271'
p48
s(dp49
S'y'
S'-271'
p50
sS'x'
I444
sg18
I0
s(dp51
S'y'
S'-255'
p52
sS'x'
I362
sg18
I0
s(dp53
g16
S'curve'
p54
sS'x'
I272
sg18
I0
sS'y'
S'-224'
p55
s(dp56
g16
S'line'
p57
sS'x'
I257
sg18
I0
sS'y'
S'-289'
p58
s(dp59
S'y'
S'-318'
p60
sS'x'
I345
sg18
I0
s(dp61
S'y'
S'-333'
p62
sS'x'
I431
sg18
I0
stp63
stp64
sS'components'
p65
(tsS'anchors'
p66
(tsss."
AnchorPoint: "top" 547 804 basechar 0
LayerCount: 2
Fore
SplineSet
677 44 m 1
 677 -133 620 -200 478 -200 c 0
 392 -200 309 -186 204 -153 c 1
 158 -342 l 1
 261 -374 363 -397 482 -397 c 0
 740 -397 957 -300 957 37 c 2
 957 624 l 1
 1078 624 l 1
 1078 804 l 1
 729 804 l 1
 707 737 l 1
 631 789 544 824 458 824 c 0
 228 824 54 666 54 399 c 0
 54 147 241 -7 488 -7 c 0
 558 -7 621 12 677 44 c 1
676 620 m 1
 677 198 l 1
 632 184 588 177 551 177 c 0
 431 177 343 260 343 406 c 0
 343 565 432 641 559 641 c 0
 596 641 635 634 676 620 c 1
EndSplineSet
EndChar

StartChar: germandbls
Encoding: 223 223 259
Width: 1231
VWidth: 0
Flags: HW
PickledData: "(dp1
S'org.robofab.postScriptHintData'
p2
(dp3
sS'com.typemytype.robofont.layerData'
p4
(dp5
S'b'
(dp6
S'name'
p7
S'germandbls'
p8
sS'lib'
p9
(dp10
sS'unicodes'
p11
(tsS'width'
p12
I1143
sS'contours'
p13
(tsS'components'
p14
(tsS'anchors'
p15
(tsss."
LayerCount: 2
Fore
SplineSet
1164 405 m 0
 1164 591 1025 705 841 734 c 257
 982 775 1057 888 1057 1006 c 0
 1057 1199 909 1325 652 1325 c 256
 338 1325 179 1152 179 876 c 258
 179 182 l 257
 46 182 l 257
 46 0 l 257
 562 0 l 257
 562 182 l 257
 459 182 l 257
 459 892 l 258
 459 1031 550 1119 657 1119 c 256
 742 1119 810 1070 810 979 c 256
 810 865 726 786 576 786 c 257
 576 621 l 257
 758 617 860 528 860 392 c 0
 860 280 787 182 653 182 c 257
 653 0 l 257
 1013 0 1164 168 1164 405 c 0
EndSplineSet
EndChar

StartChar: grave
Encoding: 96 96 260
Width: 591
VWidth: 0
Flags: HW
PickledData: "(dp1
S'org.robofab.postScriptHintData'
p2
(dp3
sS'com.typemytype.robofont.layerData'
p4
(dp5
S'b'
(dp6
S'name'
p7
S'grave'
p8
sS'lib'
p9
(dp10
sS'unicodes'
p11
(tsS'width'
p12
I407
sS'contours'
p13
(tsS'components'
p14
(tsS'anchors'
p15
(tsss."
AnchorPoint: "top" 380 804 mark 0
LayerCount: 2
Fore
SplineSet
295 944 m 257
 460 944 l 257
 359 1292 l 257
 85 1292 l 257
 295 944 l 257
EndSplineSet
EndChar

StartChar: greater
Encoding: 62 62 261
Width: 1189
VWidth: 0
Flags: HW
PickledData: "(dp1
S'org.robofab.postScriptHintData'
p2
(dp3
sS'com.typemytype.robofont.layerData'
p4
(dp5
S'b'
(dp6
S'name'
p7
S'greater'
p8
sS'lib'
p9
(dp10
sS'unicodes'
p11
(tsS'width'
p12
I1079
sS'contours'
p13
(tsS'components'
p14
(tsS'anchors'
p15
(tsss."
LayerCount: 2
Fore
SplineSet
198 60 m 257
 1131 466 l 257
 1131 709 l 257
 198 1128 l 257
 198 903 l 257
 913 592 l 257
 198 288 l 257
 198 60 l 257
EndSplineSet
EndChar

StartChar: greaterequal
Encoding: 8805 8805 262
Width: 1073
VWidth: 0
Flags: HW
PickledData: "(dp1
S'org.robofab.postScriptHintData'
p2
(dp3
sS'com.typemytype.robofont.layerData'
p4
(dp5
S'b'
(dp6
S'name'
p7
S'greaterequal'
p8
sS'lib'
p9
(dp10
sS'unicodes'
p11
(tsS'width'
p12
I1035
sS'contours'
p13
(tsS'components'
p14
(tsS'anchors'
p15
(tsss."
LayerCount: 2
Fore
SplineSet
131 253 m 257
 1010 680 l 257
 1010 784 l 257
 131 1213 l 257
 131 1012 l 257
 744 731 l 257
 131 457 l 257
 131 253 l 257
131 0 m 257
 1010 0 l 257
 1010 185 l 257
 131 185 l 257
 131 0 l 257
EndSplineSet
EndChar

StartChar: guillemotleft
Encoding: 171 171 263
Width: 1176
VWidth: 0
Flags: HW
PickledData: "(dp1
S'org.robofab.postScriptHintData'
p2
(dp3
sS'com.typemytype.robofont.layerData'
p4
(dp5
S'b'
(dp6
S'name'
p7
S'guillemotleft'
p8
sS'lib'
p9
(dp10
sS'unicodes'
p11
(tsS'width'
p12
I954
sS'contours'
p13
(tsS'components'
p14
(tsS'anchors'
p15
(tsss."
LayerCount: 2
Fore
SplineSet
408 118 m 257
 617 118 l 257
 390 557 l 257
 617 999 l 257
 408 999 l 257
 106 554 l 257
 408 118 l 257
881 118 m 257
 1090 118 l 257
 863 557 l 257
 1090 999 l 257
 881 999 l 257
 579 554 l 257
 881 118 l 257
EndSplineSet
EndChar

StartChar: guillemotright
Encoding: 187 187 264
Width: 1138
VWidth: 0
Flags: HW
PickledData: "(dp1
S'org.robofab.postScriptHintData'
p2
(dp3
sS'com.typemytype.robofont.layerData'
p4
(dp5
S'b'
(dp6
S'name'
p7
S'guillemotright'
p8
sS'lib'
p9
(dp10
sS'unicodes'
p11
(tsS'width'
p12
I954
sS'contours'
p13
(tsS'components'
p14
(tsS'anchors'
p15
(tsss."
LayerCount: 2
Fore
SplineSet
106 118 m 257
 314 118 l 257
 617 562 l 257
 314 999 l 257
 106 999 l 257
 332 560 l 257
 106 118 l 257
579 118 m 257
 787 118 l 257
 1090 562 l 257
 787 999 l 257
 579 999 l 257
 805 560 l 257
 579 118 l 257
EndSplineSet
EndChar

StartChar: guilsinglleft
Encoding: 8249 8249 265
Width: 806
VWidth: 0
Flags: HW
PickledData: "(dp1
S'org.robofab.postScriptHintData'
p2
(dp3
sS'com.typemytype.robofont.layerData'
p4
(dp5
S'b'
(dp6
S'name'
p7
S'guilsinglleft'
p8
sS'lib'
p9
(dp10
sS'unicodes'
p11
(tsS'width'
p12
I619
sS'contours'
p13
(tsS'components'
p14
(tsS'anchors'
p15
(tsss."
LayerCount: 2
Fore
SplineSet
437 118 m 257
 646 118 l 257
 420 557 l 257
 646 999 l 257
 437 999 l 257
 111 554 l 257
 437 118 l 257
EndSplineSet
EndChar

StartChar: guilsinglright
Encoding: 8250 8250 266
Width: 806
VWidth: 0
Flags: HW
PickledData: "(dp1
S'org.robofab.postScriptHintData'
p2
(dp3
sS'com.typemytype.robofont.layerData'
p4
(dp5
S'b'
(dp6
S'name'
p7
S'guilsinglright'
p8
sS'lib'
p9
(dp10
sS'unicodes'
p11
(tsS'width'
p12
I619
sS'contours'
p13
(tsS'components'
p14
(tsS'anchors'
p15
(tsss."
LayerCount: 2
Fore
SplineSet
179 118 m 257
 388 118 l 257
 714 562 l 257
 388 999 l 257
 179 999 l 257
 406 560 l 257
 179 118 l 257
EndSplineSet
EndChar

StartChar: h
Encoding: 104 104 267
Width: 1209
VWidth: 0
Flags: HW
PickledData: "(dp1
S'org.robofab.postScriptHintData'
p2
(dp3
sS'com.typemytype.robofont.layerData'
p4
(dp5
S'b'
(dp6
S'name'
p7
S'h'
sS'lib'
p8
(dp9
sS'unicodes'
p10
(tsS'width'
p11
I1115
sS'contours'
p12
(tsS'components'
p13
(tsS'anchors'
p14
(tsss."
AnchorPoint: "top" 631 1125 basechar 0
LayerCount: 2
Fore
SplineSet
47 0 m 1
 582 0 l 1
 582 182 l 1
 460 182 l 1
 460 552 l 1
 523 598 590 622 659 622 c 0
 734 622 785 572 785 465 c 2
 785 182 l 1
 681 182 l 1
 681 0 l 1
 1197 0 l 1
 1197 182 l 1
 1059 182 l 1
 1059 509 l 1
 1060 724 934 826 779 826 c 0
 663 826 559 779 460 690 c 1
 460 1174 l 1
 48 1174 l 1
 48 992 l 1
 185 992 l 1
 185 182 l 1
 47 182 l 1
 47 0 l 1
EndSplineSet
EndChar

StartChar: hungarumlaut
Encoding: 733 733 270
Width: 983
VWidth: 0
Flags: HW
PickledData: "(dp1
S'org.robofab.postScriptHintData'
p2
(dp3
sS'com.typemytype.robofont.layerData'
p4
(dp5
S'b'
(dp6
S'name'
p7
S'hungarumlaut'
p8
sS'lib'
p9
(dp10
sS'unicodes'
p11
(tsS'width'
p12
I757
sS'contours'
p13
(tsS'components'
p14
(tsS'anchors'
p15
(tsss."
AnchorPoint: "top" 390 804 mark 0
LayerCount: 2
Fore
SplineSet
134 944 m 257
 299 944 l 257
 508 1292 l 257
 235 1292 l 257
 134 944 l 257
514 944 m 257
 679 944 l 257
 888 1292 l 257
 615 1292 l 257
 514 944 l 257
EndSplineSet
EndChar

StartChar: hyphen
Encoding: 45 45 271
Width: 660
VWidth: 0
Flags: HW
PickledData: "(dp1
S'org.robofab.postScriptHintData'
p2
(dp3
sS'com.typemytype.robofont.layerData'
p4
(dp5
S'b'
(dp6
S'name'
p7
S'hyphen'
p8
sS'lib'
p9
(dp10
sS'unicodes'
p11
(tsS'width'
p12
I782
sS'contours'
p13
(tsS'components'
p14
(tsS'anchors'
p15
(tsss."
LayerCount: 2
Fore
SplineSet
60 388 m 257
 600 388 l 257
 600 567 l 257
 60 567 l 257
 60 388 l 257
EndSplineSet
EndChar

StartChar: i
Encoding: 105 105 272
Width: 648
VWidth: 0
Flags: HW
PickledData: "(dp1
S'org.robofab.postScriptHintData'
p2
(dp3
sS'com.typemytype.robofont.layerData'
p4
(dp5
S'b'
(dp6
S'name'
p7
S'i'
sS'lib'
p8
(dp9
sS'unicodes'
p10
(tsS'width'
p11
I651
sS'contours'
p12
(tsS'components'
p13
(tsS'anchors'
p14
(tsss."
AnchorPoint: "top" 318 803 basechar 0
LayerCount: 2
Fore
SplineSet
331 966 m 0
 431 966 501 1032 501 1127 c 0
 501 1222 433 1290 331 1290 c 0
 231 1290 161 1223 161 1129 c 0
 161 1033 231 966 331 966 c 0
83 0 m 1
 600 0 l 1
 600 182 l 1
 486 182 l 1
 486 389 486 597 486 804 c 1
 88 804 l 1
 88 622 l 1
 212 622 l 1
 212 182 l 1
 83 182 l 1
 83 0 l 1
EndSplineSet
EndChar

StartChar: infinity
Encoding: 8734 8734 281
Width: 1658
VWidth: 0
Flags: HW
PickledData: "(dp1
S'org.robofab.postScriptHintData'
p2
(dp3
sS'com.typemytype.robofont.layerData'
p4
(dp5
S'b'
(dp6
S'name'
p7
S'infinity'
p8
sS'lib'
p9
(dp10
sS'unicodes'
p11
(tsS'width'
p12
I1599
sS'contours'
p13
(tsS'components'
p14
(tsS'anchors'
p15
(tsss."
LayerCount: 2
Fore
SplineSet
1186 106 m 256
 1412 106 1526 303 1526 495 c 256
 1526 718 1409 885 1189 885 c 256
 1048 885 944 815 852 659 c 257
 756 825 622 891 476 891 c 256
 271 891 132 726 132 501 c 256
 132 249 293 111 476 111 c 256
 606 111 722 198 805 344 c 257
 914 182 1047 106 1186 106 c 256
488 282 m 256
 361 282 305 387 305 499 c 256
 305 634 387 721 482 721 c 256
 581 721 645 652 714 501 c 257
 646 355 572 282 488 282 c 256
1174 276 m 256
 1078 276 1005 358 945 495 c 257
 1021 646 1085 715 1170 715 c 256
 1281 715 1356 619 1356 497 c 256
 1356 384 1288 276 1174 276 c 256
EndSplineSet
EndChar

StartChar: integral
Encoding: 8747 8747 282
Width: 1009
VWidth: 0
Flags: HW
PickledData: "(dp1
S'org.robofab.postScriptHintData'
p2
(dp3
sS'com.typemytype.robofont.layerData'
p4
(dp5
S'b'
(dp6
S'name'
p7
S'integral'
p8
sS'lib'
p9
(dp10
sS'unicodes'
p11
(tsS'width'
p12
I953
sS'contours'
p13
(tsS'components'
p14
(tsS'anchors'
p15
(tsss."
LayerCount: 2
Fore
SplineSet
282 -304 m 256
 599 -304 638 32 638 355 c 256
 638 545 607 762 607 890 c 256
 607 1058 621 1108 668 1108 c 256
 707 1108 725 1055 725 952 c 257
 896 952 940 1015 940 1072 c 256
 940 1141 860 1198 706 1198 c 256
 385 1198 340 892 340 604 c 256
 340 417 381 169 381 5 c 256
 381 -166 357 -214 321 -214 c 256
 278 -214 257 -175 257 -51 c 257
 84 -51 42 -113 42 -167 c 256
 42 -236 113 -304 282 -304 c 256
EndSplineSet
EndChar

StartChar: j
Encoding: 106 106 285
Width: 602
VWidth: 0
Flags: HW
PickledData: "(dp1
S'org.robofab.postScriptHintData'
p2
(dp3
sS'com.typemytype.robofont.layerData'
p4
(dp5
S'b'
(dp6
S'name'
p7
S'j'
sS'lib'
p8
(dp9
sS'unicodes'
p10
(tsS'width'
p11
I594
sS'contours'
p12
(tsS'components'
p13
(tsS'anchors'
p14
(tsss."
LayerCount: 2
Fore
SplineSet
332 967 m 0
 432 967 502 1033 502 1128 c 0
 502 1223 434 1291 332 1291 c 0
 232 1291 162 1224 162 1130 c 0
 162 1034 232 967 332 967 c 0
-8 -344 m 1
 96 -344 l 2
 484 -344 509 -126 509 73 c 0
 509 102 508 130 508 157 c 2
 508 804 l 1
 68 804 l 1
 68 622 l 1
 226 622 l 1
 226 42 l 2
 226 -106 179 -135 69 -135 c 2
 -8 -135 l 1
 -8 -344 l 1
EndSplineSet
EndChar

StartChar: k
Encoding: 107 107 287
Width: 1159
VWidth: 0
Flags: HW
PickledData: "(dp1
S'org.robofab.postScriptHintData'
p2
(dp3
sS'com.typemytype.robofont.guides'
p4
((dp5
S'y'
I421
sS'x'
I474
sS'magnetic'
p6
I5
sS'angle'
p7
I0
sS'isGlobal'
p8
I0
stp9
sS'com.typemytype.robofont.layerData'
p10
(dp11
S'b'
(dp12
S'name'
p13
S'k'
sS'lib'
p14
(dp15
sS'unicodes'
p16
(tsS'width'
p17
I1106
sS'contours'
p18
(tsS'components'
p19
(tsS'anchors'
p20
(tsss."
AnchorPoint: "bot" 617 0 basechar 0
AnchorPoint: "top" 821 979 basechar 0
LayerCount: 2
Fore
SplineSet
820 0 m 1
 1122 0 l 1
 1122 183 l 1
 974 183 l 1
 753 434 l 1
 977 624 l 1
 1096 624 l 1
 1096 804 l 1
 596 804 l 1
 596 624 l 1
 740 624 l 1
 466 412 l 1
 820 0 l 1
47 0 m 1
 582 0 l 1
 582 182 l 1
 460 182 l 1
 460 1174 l 1
 48 1174 l 1
 48 992 l 1
 185 992 l 1
 185 182 l 1
 47 182 l 1
 47 0 l 1
EndSplineSet
EndChar

StartChar: kgreenlandic
Encoding: 312 312 289
Width: 1247
VWidth: 0
Flags: HW
PickledData: "(dp1
S'org.robofab.postScriptHintData'
p2
(dp3
sS'com.typemytype.robofont.layerData'
p4
(dp5
S'b'
(dp6
S'name'
p7
S'kgreenlandic'
p8
sS'lib'
p9
(dp10
sS'unicodes'
p11
(tsS'width'
p12
I1129
sS'contours'
p13
(tsS'components'
p14
(tsS'anchors'
p15
(tsss."
LayerCount: 2
Fore
SplineSet
115 0 m 257
 655 0 l 257
 655 183 l 257
 536 183 l 257
 536 376 l 257
 823 183 l 257
 768 183 l 257
 768 0 l 257
 1254 0 l 257
 1254 183 l 257
 1108 183 l 257
 803 392 l 257
 1089 624 l 257
 1235 624 l 257
 1235 804 l 257
 683 804 l 257
 683 624 l 257
 806 624 l 257
 536 390 l 257
 536 804 l 257
 112 804 l 257
 112 624 l 257
 262 624 l 257
 262 183 l 257
 115 183 l 257
 115 0 l 257
EndSplineSet
EndChar

StartChar: l
Encoding: 108 108 290
Width: 632
VWidth: 0
Flags: HW
PickledData: "(dp1
S'org.robofab.postScriptHintData'
p2
(dp3
sS'com.typemytype.robofont.layerData'
p4
(dp5
S'b'
(dp6
S'name'
p7
S'l'
sS'lib'
p8
(dp9
sS'unicodes'
p10
(tsS'width'
p11
I603
sS'contours'
p12
(tsS'components'
p13
(tsS'anchors'
p14
(tsss."
AnchorPoint: "bot" 328 0 basechar 0
AnchorPoint: "caron.alt" 492 870 basechar 0
AnchorPoint: "top" 319 1152 basechar 0
LayerCount: 2
Fore
SplineSet
53 0 m 1
 588 0 l 1
 588 182 l 1
 466 182 l 1
 466 1174 l 1
 54 1174 l 1
 54 992 l 1
 191 992 l 1
 191 182 l 1
 53 182 l 1
 53 0 l 1
EndSplineSet
EndChar

StartChar: lc_ascender_stem
Encoding: 65547 -1 292
Width: 1388
VWidth: 0
Flags: HW
PickledData: "(dp1
S'org.robofab.postScriptHintData'
p2
(dp3
sS'com.schriftgestaltung.Glyphs.Export'
p4
I00
sS'com.typemytype.robofont.layerData'
p5
(dp6
S'b'
(dp7
S'name'
p8
S'lc_descender_stem'
p9
sS'lib'
p10
(dp11
sS'unicodes'
p12
(tsS'width'
p13
I1220
sS'contours'
p14
(tsS'components'
p15
(tsS'anchors'
p16
(tsss."
LayerCount: 2
Fore
SplineSet
205 0 m 257
 740 0 l 257
 740 182 l 257
 618 182 l 257
 618 1174 l 257
 206 1174 l 257
 206 992 l 257
 343 992 l 257
 343 182 l 257
 205 182 l 257
 205 0 l 257
EndSplineSet
EndChar

StartChar: lc_ascender_stem_1
Encoding: 65548 -1 293
Width: 600
VWidth: 0
Flags: HW
PickledData: "(dp1
S'org.robofab.postScriptHintData'
p2
(dp3
sS'com.schriftgestaltung.Glyphs.Export'
p4
I00
sS'com.typemytype.robofont.layerData'
p5
(dp6
S'b'
(dp7
S'name'
p8
S'lc_ascender_stem_1'
p9
sS'lib'
p10
(dp11
sS'unicodes'
p12
(tsS'width'
p13
I600
sS'contours'
p14
(tsS'components'
p15
(tsS'anchors'
p16
(tsss."
LayerCount: 2
Fore
SplineSet
188 0 m 257
 618 0 l 257
 618 1174 l 257
 190 1174 l 257
 190 992 l 257
 343 992 l 257
 343 182 l 257
 188 182 l 257
 188 0 l 257
EndSplineSet
EndChar

StartChar: lc_ascender_stem_2
Encoding: 65549 -1 294
Width: 600
VWidth: 0
Flags: HW
PickledData: "(dp1
S'org.robofab.postScriptHintData'
p2
(dp3
sS'com.schriftgestaltung.Glyphs.Export'
p4
I00
sS'com.typemytype.robofont.layerData'
p5
(dp6
S'b'
(dp7
S'name'
p8
S'lc_descender_stem'
p9
sS'lib'
p10
(dp11
sS'unicodes'
p12
(tsS'width'
p13
I600
sS'contours'
p14
(tsS'components'
p15
(tsS'anchors'
p16
(tsss."
LayerCount: 2
Fore
SplineSet
336 0 m 257
 715 0 l 257
 715 182 l 257
 611 182 l 257
 611 1174 l 257
 189 1174 l 257
 189 992 l 257
 336 992 l 257
 336 0 l 257
EndSplineSet
EndChar

StartChar: lc_bowl_left
Encoding: 65550 -1 295
Width: 1530
VWidth: 0
Flags: HW
PickledData: "(dp1
S'org.robofab.postScriptHintData'
p2
(dp3
sS'com.schriftgestaltung.Glyphs.Export'
p4
I00
sS'com.typemytype.robofont.layerData'
p5
(dp6
S'b'
(dp7
S'name'
p8
S'lc_bowl_left'
p9
sS'lib'
p10
(dp11
sS'unicodes'
p12
(tsS'width'
p13
I1259
sS'contours'
p14
((dp15
S'points'
p16
((dp17
S'segmentType'
p18
S'line'
p19
sS'x'
I134
sS'smooth'
p20
I0
sS'y'
I121
s(dp21
S'y'
I36
sS'x'
I206
sg20
I0
s(dp22
S'y'
S'-16'
p23
sS'x'
I320
sg20
I0
s(dp24
g18
S'curve'
p25
sS'x'
I464
sg20
I1
sS'y'
S'-16'
p26
s(dp27
S'y'
S'-16'
p28
sS'x'
I739
sg20
I0
s(dp29
S'y'
I185
sS'x'
I886
sg20
I0
s(dp30
g18
S'curve'
p31
sS'x'
I886
sg20
I1
sS'y'
I387
s(dp32
S'y'
I573
sS'x'
I886
sg20
I0
s(dp33
S'y'
I817
sS'x'
I774
sg20
I0
s(dp34
g18
S'curve'
p35
sS'x'
I467
sg20
I1
sS'y'
I817
s(dp36
S'y'
I817
sS'x'
I309
sg20
I0
s(dp37
S'y'
I733
sS'x'
I179
sg20
I0
s(dp38
g18
S'curve'
p39
sS'x'
I134
sg20
I0
sS'y'
I684
s(dp40
g18
S'line'
p41
sS'x'
I134
sg20
I0
sS'y'
I618
s(dp42
S'y'
I725
sS'x'
I273
sg20
I0
s(dp43
S'y'
I753
sS'x'
I353
sg20
I0
s(dp44
g18
S'curve'
p45
sS'x'
I470
sg20
I1
sS'y'
I753
s(dp46
S'y'
I753
sS'x'
I701
sg20
I0
s(dp47
S'y'
I568
sS'x'
I810
sg20
I0
s(dp48
g18
S'curve'
p49
sS'x'
I810
sg20
I1
sS'y'
I395
s(dp50
S'y'
I204
sS'x'
I810
sg20
I0
s(dp51
S'y'
I48
sS'x'
I680
sg20
I0
s(dp52
g18
S'curve'
p53
sS'x'
I468
sg20
I1
sS'y'
I48
s(dp54
S'y'
I48
sS'x'
I346
sg20
I0
s(dp55
S'y'
I62
sS'x'
I263
sg20
I0
s(dp56
g18
S'curve'
p57
sS'x'
I134
sg20
I0
sS'y'
I194
stp58
stp59
sS'components'
p60
(tsS'anchors'
p61
(tsss."
LayerCount: 2
Fore
SplineSet
632 -22 m 256
 798 -22 919 84 1021 220 c 257
 1021 288 l 257
 914 211 786 165 695 165 c 256
 575 165 487 250 487 399 c 256
 487 561 576 639 703 639 c 256
 801 639 923 585 1019 495 c 257
 1019 568 l 257
 927 701 763 826 602 826 c 256
 372 826 198 664 198 392 c 256
 198 135 385 -22 632 -22 c 256
EndSplineSet
EndChar

StartChar: lc_bowl_right
Encoding: 65551 -1 296
Width: 1530
VWidth: 0
Flags: HW
PickledData: "(dp1
S'org.robofab.postScriptHintData'
p2
(dp3
sS'com.schriftgestaltung.Glyphs.Export'
p4
I00
sS'com.typemytype.robofont.layerData'
p5
(dp6
S'b'
(dp7
S'name'
p8
S'lc_bowl_right'
p9
sS'lib'
p10
(dp11
sS'unicodes'
p12
(tsS'width'
p13
I1259
sS'contours'
p14
((dp15
S'points'
p16
((dp17
S'segmentType'
p18
S'line'
p19
sS'x'
I268
sS'smooth'
p20
I0
sS'y'
I121
s(dp21
S'y'
I36
sS'x'
I340
sg20
I0
s(dp22
S'y'
S'-16'
p23
sS'x'
I454
sg20
I0
s(dp24
g18
S'curve'
p25
sS'x'
I598
sg20
I1
sS'y'
S'-16'
p26
s(dp27
S'y'
S'-16'
p28
sS'x'
I873
sg20
I0
s(dp29
S'y'
I185
sS'x'
I1020
sg20
I0
s(dp30
g18
S'curve'
p31
sS'x'
I1020
sg20
I1
sS'y'
I387
s(dp32
S'y'
I573
sS'x'
I1020
sg20
I0
s(dp33
S'y'
I817
sS'x'
I908
sg20
I0
s(dp34
g18
S'curve'
p35
sS'x'
I601
sg20
I1
sS'y'
I817
s(dp36
S'y'
I817
sS'x'
I443
sg20
I0
s(dp37
S'y'
I733
sS'x'
I313
sg20
I0
s(dp38
g18
S'curve'
p39
sS'x'
I268
sg20
I0
sS'y'
I684
s(dp40
g18
S'line'
p41
sS'x'
I268
sg20
I0
sS'y'
I618
s(dp42
S'y'
I725
sS'x'
I407
sg20
I0
s(dp43
S'y'
I753
sS'x'
I487
sg20
I0
s(dp44
g18
S'curve'
p45
sS'x'
I604
sg20
I1
sS'y'
I753
s(dp46
S'y'
I753
sS'x'
I835
sg20
I0
s(dp47
S'y'
I568
sS'x'
I944
sg20
I0
s(dp48
g18
S'curve'
p49
sS'x'
I944
sg20
I1
sS'y'
I395
s(dp50
S'y'
I204
sS'x'
I944
sg20
I0
s(dp51
S'y'
I48
sS'x'
I814
sg20
I0
s(dp52
g18
S'curve'
p53
sS'x'
I602
sg20
I1
sS'y'
I48
s(dp54
S'y'
I48
sS'x'
I480
sg20
I0
s(dp55
S'y'
I62
sS'x'
I397
sg20
I0
s(dp56
g18
S'curve'
p57
sS'x'
I268
sg20
I0
sS'y'
I194
stp58
stp59
sS'components'
p60
(tsS'anchors'
p61
(tsss."
LayerCount: 2
Fore
SplineSet
716 -21 m 256
 928 -21 1127 135 1127 419 c 256
 1127 666 969 826 736 826 c 256
 591 826 441 743 316 605 c 257
 324 508 l 257
 445 599 535 639 622 639 c 256
 772 639 838 526 838 401 c 256
 838 239 735 151 605 151 c 256
 527 151 433 183 323 297 c 257
 318 231 l 257
 421 59 565 -21 716 -21 c 256
EndSplineSet
EndChar

StartChar: lc_descender_stem
Encoding: 65552 -1 297
Width: 1439
VWidth: 0
Flags: HW
PickledData: "(dp1
S'org.robofab.postScriptHintData'
p2
(dp3
sS'com.schriftgestaltung.Glyphs.Export'
p4
I00
sS'com.typemytype.robofont.layerData'
p5
(dp6
S'b'
(dp7
S'name'
p8
S'lc_descender_stem'
p9
sS'lib'
p10
(dp11
sS'unicodes'
p12
(tsS'width'
p13
I1206
sS'contours'
p14
(tsS'components'
p15
(tsS'anchors'
p16
(tsss."
LayerCount: 2
Fore
SplineSet
91 -364 m 257
 686 -364 l 257
 686 -182 l 257
 511 -182 l 257
 513 628 l 257
 506 804 l 257
 91 804 l 257
 91 622 l 257
 237 622 l 257
 237 -182 l 257
 91 -182 l 257
 91 -364 l 257
EndSplineSet
EndChar

StartChar: lc_xheight_curved_stem
Encoding: 65553 -1 298
Width: 1498
VWidth: 0
Flags: HW
PickledData: "(dp1
S'org.robofab.postScriptHintData'
p2
(dp3
sS'com.schriftgestaltung.Glyphs.Export'
p4
I00
sS'com.typemytype.robofont.layerData'
p5
(dp6
S'b'
(dp7
S'name'
p8
S'lc_xheight_curved_stem'
p9
sS'lib'
p10
(dp11
sS'unicodes'
p12
(tsS'width'
p13
I1236
sS'contours'
p14
((dp15
S'points'
p16
((dp17
S'segmentType'
p18
S'line'
p19
sS'x'
I351
sS'smooth'
p20
I0
sS'y'
I643
s(dp21
S'y'
I715
sS'x'
I455
sg20
I0
s(dp22
S'y'
I756
sS'x'
I545
sg20
I0
s(dp23
g18
S'curve'
p24
sS'x'
I675
sg20
I1
sS'y'
I756
s(dp25
S'y'
I756
sS'x'
I821
sg20
I0
s(dp26
S'y'
I676
sS'x'
I849
sg20
I0
s(dp27
g18
S'curve'
p28
sS'x'
I849
sg20
I1
sS'y'
I577
s(dp29
g18
S'line'
p30
sS'x'
I849
sg20
I0
sS'y'
I58
s(dp31
g18
S'line'
p32
sS'x'
I688
sg20
I0
sS'y'
I58
s(dp33
g18
S'line'
p34
sS'x'
I688
sg20
I0
sS'y'
I0
s(dp35
g18
S'line'
p36
sS'x'
I1073
sg20
I0
sS'y'
I0
s(dp37
g18
S'line'
p38
sS'x'
I1073
sg20
I0
sS'y'
I58
s(dp39
g18
S'line'
p40
sS'x'
I924
sg20
I0
sS'y'
I58
s(dp41
g18
S'line'
p42
sS'x'
I924
sg20
I1
sS'y'
I592
s(dp43
S'y'
I697
sS'x'
I924
sg20
I0
s(dp44
S'y'
I820
sS'x'
I866
sg20
I0
s(dp45
g18
S'curve'
p46
sS'x'
I682
sg20
I1
sS'y'
I820
s(dp47
S'y'
I820
sS'x'
I557
sg20
I0
s(dp48
S'y'
I789
sS'x'
I468
sg20
I0
s(dp49
g18
S'curve'
p50
sS'x'
I348
sg20
I0
sS'y'
I709
stp51
stp52
sS'components'
p53
(tsS'anchors'
p54
(tsss."
LayerCount: 2
Fore
SplineSet
840 0 m 257
 1356 0 l 257
 1356 182 l 257
 1218 182 l 257
 1218 509 l 257
 1219 724 1093 826 938 826 c 256
 774 826 635 731 497 559 c 257
 497 427 l 257
 590 553 702 622 818 622 c 256
 893 622 944 572 944 465 c 258
 944 182 l 257
 840 182 l 257
 840 0 l 257
EndSplineSet
EndChar

StartChar: lc_xheight_stem
Encoding: 65554 -1 299
Width: 797
VWidth: 0
Flags: HW
PickledData: "(dp1
S'org.robofab.postScriptHintData'
p2
(dp3
sS'com.schriftgestaltung.Glyphs.Export'
p4
I00
sS'com.typemytype.robofont.layerData'
p5
(dp6
S'b'
(dp7
S'name'
p8
S'lc_xheight_stem'
p9
sS'lib'
p10
(dp11
sS'unicodes'
p12
(tsS'width'
p13
I688
sS'contours'
p14
(tsS'components'
p15
(tsS'anchors'
p16
(tsss."
LayerCount: 2
Fore
SplineSet
143 0 m 257
 660 0 l 257
 660 182 l 257
 546 182 l 257
 546 389 546 597 546 804 c 257
 148 804 l 257
 148 622 l 257
 272 622 l 257
 272 182 l 257
 143 182 l 257
 143 0 l 257
EndSplineSet
EndChar

StartChar: less
Encoding: 60 60 303
Width: 1189
VWidth: 0
Flags: HW
PickledData: "(dp1
S'org.robofab.postScriptHintData'
p2
(dp3
sS'com.typemytype.robofont.layerData'
p4
(dp5
S'b'
(dp6
S'name'
p7
S'less'
p8
sS'lib'
p9
(dp10
sS'unicodes'
p11
(tsS'width'
p12
I1077
sS'contours'
p13
(tsS'components'
p14
(tsS'anchors'
p15
(tsss."
LayerCount: 2
Fore
SplineSet
991 60 m 257
 991 288 l 257
 277 592 l 257
 991 903 l 257
 991 1128 l 257
 59 709 l 257
 59 466 l 257
 991 60 l 257
EndSplineSet
EndChar

StartChar: lessequal
Encoding: 8804 8804 304
Width: 1073
VWidth: 0
Flags: HW
PickledData: "(dp1
S'org.robofab.postScriptHintData'
p2
(dp3
sS'com.typemytype.robofont.layerData'
p4
(dp5
S'b'
(dp6
S'name'
p7
S'lessequal'
p8
sS'lib'
p9
(dp10
sS'unicodes'
p11
(tsS'width'
p12
I1034
sS'contours'
p13
(tsS'components'
p14
(tsS'anchors'
p15
(tsss."
LayerCount: 2
Fore
SplineSet
950 253 m 257
 950 457 l 257
 337 731 l 257
 950 1012 l 257
 950 1213 l 257
 71 784 l 257
 71 680 l 257
 950 253 l 257
71 0 m 257
 950 0 l 257
 950 185 l 257
 71 185 l 257
 71 0 l 257
EndSplineSet
EndChar

StartChar: logicalnot
Encoding: 172 172 306
Width: 1137
VWidth: 0
Flags: HW
PickledData: "(dp1
S'org.robofab.postScriptHintData'
p2
(dp3
sS'com.typemytype.robofont.layerData'
p4
(dp5
S'b'
(dp6
S'name'
p7
S'logicalnot'
p8
sS'lib'
p9
(dp10
sS'unicodes'
p11
(tsS'width'
p12
I1122
sS'contours'
p13
(tsS'components'
p14
(tsS'anchors'
p15
(tsss."
LayerCount: 2
Fore
SplineSet
809 300 m 257
 968 300 l 257
 968 828 l 257
 109 828 l 257
 109 648 l 257
 809 648 l 257
 809 300 l 257
EndSplineSet
EndChar

StartChar: lozenge
Encoding: 9674 9674 307
Width: 1136
VWidth: 0
Flags: HW
PickledData: "(dp1
S'org.robofab.postScriptHintData'
p2
(dp3
sS'com.typemytype.robofont.layerData'
p4
(dp5
S'b'
(dp6
S'name'
p7
S'lozenge'
p8
sS'lib'
p9
(dp10
sS'unicodes'
p11
(tsS'width'
p12
I1136
sS'contours'
p13
(tsS'components'
p14
(tsS'anchors'
p15
(tsss."
LayerCount: 2
Fore
SplineSet
521 0 m 257
 615 0 l 257
 1094 613 l 257
 615 1222 l 257
 521 1222 l 257
 42 613 l 257
 521 0 l 257
570 184 m 257
 248 613 l 257
 570 1031 l 257
 888 613 l 257
 570 184 l 257
EndSplineSet
EndChar

StartChar: lslash
Encoding: 322 322 308
Width: 566
VWidth: 0
Flags: HW
PickledData: "(dp1
S'org.robofab.postScriptHintData'
p2
(dp3
sS'com.typemytype.robofont.layerData'
p4
(dp5
S'b'
(dp6
S'name'
p7
S'lslash'
p8
sS'lib'
p9
(dp10
sS'unicodes'
p11
(tsS'width'
p12
I709
sS'contours'
p13
(tsS'components'
p14
(tsS'anchors'
p15
(tsss."
LayerCount: 2
Fore
SplineSet
27 368 m 257
 597 663 l 257
 597 880 l 257
 27 578 l 257
 27 368 l 257
EndSplineSet
Refer: 290 108 N 1 0 0 1 0 0 2
EndChar

StartChar: m
Encoding: 109 109 309
Width: 1836
VWidth: 0
Flags: HW
PickledData: "(dp1
S'org.robofab.postScriptHintData'
p2
(dp3
sS'com.typemytype.robofont.layerData'
p4
(dp5
S'b'
(dp6
S'name'
p7
S'm'
sS'lib'
p8
(dp9
sS'unicodes'
p10
(tsS'width'
p11
I1630
sS'contours'
p12
(tsS'components'
p13
(tsS'anchors'
p14
(tsss."
AnchorPoint: "top" 959 804 basechar 0
LayerCount: 2
Fore
SplineSet
46 0 m 1
 582 0 l 1
 582 182 l 1
 464 182 l 1
 464 569 l 1
 521 604 581 622 643 622 c 0
 721 622 774 572 774 465 c 2
 774 182 l 1
 666 182 l 1
 666 0 l 1
 1201 0 l 1
 1201 182 l 1
 1058 182 l 1
 1058 509 l 2
 1058 524 1057 538 1056 552 c 1
 1121 598 1191 622 1262 622 c 0
 1340 622 1393 572 1393 465 c 2
 1393 182 l 1
 1285 182 l 1
 1285 0 l 1
 1820 0 l 1
 1820 182 l 1
 1677 182 l 1
 1677 509 l 1
 1678 724 1548 826 1387 826 c 0
 1256 826 1140 769 1029 665 c 1
 982 773 883 826 768 826 c 0
 658 826 559 786 464 711 c 1
 464 804 l 1
 51 804 l 1
 51 622 l 1
 180 622 l 1
 180 182 l 1
 46 182 l 1
 46 0 l 1
EndSplineSet
EndChar

StartChar: macron
Encoding: 175 175 310
Width: 598
VWidth: 0
Flags: HW
PickledData: "(dp1
S'org.robofab.postScriptHintData'
p2
(dp3
sS'com.typemytype.robofont.layerData'
p4
(dp5
S'b'
(dp6
S'name'
p7
S'macron'
p8
sS'lib'
p9
(dp10
sS'unicodes'
p11
(tsS'width'
p12
I390
sS'contours'
p13
(tsS'components'
p14
(tsS'anchors'
p15
(tsss."
AnchorPoint: "top" 308 804 mark 0
LayerCount: 2
Fore
SplineSet
47 965 m 257
 551 965 l 257
 551 1098 l 257
 47 1098 l 257
 47 965 l 257
EndSplineSet
EndChar

StartChar: minus
Encoding: 8722 8722 313
Width: 924
VWidth: 0
Flags: HW
PickledData: "(dp1
S'org.robofab.postScriptHintData'
p2
(dp3
sS'com.typemytype.robofont.layerData'
p4
(dp5
S'b'
(dp6
S'name'
p7
S'minus'
p8
sS'lib'
p9
(dp10
sS'unicodes'
p11
(tsS'width'
p12
I930
sS'contours'
p13
(tsS'components'
p14
(tsS'anchors'
p15
(tsss."
LayerCount: 2
Fore
SplineSet
68 398 m 257
 856 398 l 257
 856 578 l 257
 68 578 l 257
 68 398 l 257
EndSplineSet
EndChar

StartChar: mu
Encoding: 956 956 314
Width: 1157
VWidth: 0
Flags: HW
PickledData: "(dp1
S'org.robofab.postScriptHintData'
p2
(dp3
s."
LayerCount: 2
Fore
SplineSet
135 -262 m 257
 409 -262 l 257
 409 418 l 257
 135 418 l 257
 135 -262 l 257
EndSplineSet
Refer: 409 117 N 1 0 0 1 0 0 2
EndChar

StartChar: multiply
Encoding: 215 215 315
Width: 1043
VWidth: 0
Flags: HW
PickledData: "(dp1
S'org.robofab.postScriptHintData'
p2
(dp3
sS'com.typemytype.robofont.layerData'
p4
(dp5
S'b'
(dp6
S'name'
p7
S'multiply'
p8
sS'lib'
p9
(dp10
sS'unicodes'
p11
(tsS'width'
p12
I929
sS'contours'
p13
(tsS'components'
p14
(tsS'anchors'
p15
(tsss."
LayerCount: 2
Fore
SplineSet
255 112 m 257
 520 371 l 257
 781 116 l 257
 907 242 l 257
 647 497 l 257
 912 757 l 257
 790 881 l 257
 523 621 l 257
 263 877 l 257
 136 751 l 257
 397 494 l 257
 131 235 l 257
 255 112 l 257
EndSplineSet
EndChar

StartChar: n
Encoding: 110 110 316
Width: 1187
VWidth: 0
Flags: HW
PickledData: "(dp1
S'org.robofab.postScriptHintData'
p2
(dp3
sS'com.typemytype.robofont.layerData'
p4
(dp5
S'b'
(dp6
S'name'
p7
S'n'
sS'lib'
p8
(dp9
sS'unicodes'
p10
(tsS'width'
p11
I1085
sS'contours'
p12
(tsS'components'
p13
(tsS'anchors'
p14
(tsss."
AnchorPoint: "bot" 628 0 basechar 0
AnchorPoint: "top" 619 804 basechar 0
LayerCount: 2
Fore
SplineSet
46 0 m 1
 563 0 l 1
 563 182 l 1
 449 182 l 1
 449 560 l 1
 509 601 572 622 637 622 c 0
 712 622 763 572 763 465 c 2
 763 182 l 1
 659 182 l 1
 659 0 l 1
 1175 0 l 1
 1175 182 l 1
 1037 182 l 1
 1037 509 l 1
 1038 724 912 826 757 826 c 0
 645 826 545 782 449 699 c 1
 449 804 l 1
 51 804 l 1
 51 622 l 1
 175 622 l 1
 175 182 l 1
 46 182 l 1
 46 0 l 1
EndSplineSet
EndChar

StartChar: nine
Encoding: 57 57 321
Width: 1110
VWidth: 0
Flags: HW
PickledData: "(dp1
S'org.robofab.postScriptHintData'
p2
(dp3
sS'com.typemytype.robofont.layerData'
p4
(dp5
S'b'
(dp6
S'name'
p7
S'nine'
p8
sS'lib'
p9
(dp10
sS'unicodes'
p11
(tsS'width'
p12
I988
sS'contours'
p13
(tsS'components'
p14
(tsS'anchors'
p15
(tsss."
LayerCount: 2
Fore
SplineSet
489 -138 m 257
 831 274 l 257
 998 466 1023 604 1023 750 c 256
 1023 993 860 1174 565 1174 c 256
 297 1174 109 1033 109 744 c 256
 109 536 269 368 500 368 c 256
 614 368 709 433 709 479 c 257
 297 19 l 257
 489 -138 l 257
557 546 m 256
 443 546 378 633 378 751 c 256
 378 897 447 979 561 979 c 256
 686 979 744 893 744 753 c 256
 744 629 670 546 557 546 c 256
EndSplineSet
EndChar

StartChar: notequal
Encoding: 8800 8800 323
Width: 1145
VWidth: 0
Flags: HW
PickledData: "(dp1
S'org.robofab.postScriptHintData'
p2
(dp3
sS'com.typemytype.robofont.layerData'
p4
(dp5
S'b'
(dp6
S'name'
p7
S'notequal'
p8
sS'lib'
p9
(dp10
sS'unicodes'
p11
(tsS'width'
p12
I1145
sS'contours'
p13
(tsS'components'
p14
(tsS'anchors'
p15
(tsss."
LayerCount: 2
Fore
SplineSet
355 0 m 257
 540 0 l 257
 590 198 l 257
 1023 198 l 257
 1023 377 l 257
 637 377 l 257
 689 585 l 257
 1023 585 l 257
 1023 764 l 257
 738 764 l 257
 788 962 l 257
 605 962 l 257
 550 764 l 257
 122 764 l 257
 122 585 l 257
 503 585 l 257
 448 377 l 257
 122 377 l 257
 122 198 l 257
 401 198 l 257
 355 0 l 257
EndSplineSet
EndChar

StartChar: numbersign
Encoding: 35 35 325
Width: 1293
VWidth: 0
Flags: HW
PickledData: "(dp1
S'org.robofab.postScriptHintData'
p2
(dp3
sS'com.typemytype.robofont.layerData'
p4
(dp5
S'b'
(dp6
S'name'
p7
S'numbersign'
p8
sS'lib'
p9
(dp10
sS'unicodes'
p11
(tsS'width'
p12
I1226
sS'contours'
p13
(tsS'components'
p14
(tsS'anchors'
p15
(tsss."
LayerCount: 2
Fore
SplineSet
208 -4 m 257
 401 -4 l 257
 463 307 l 257
 708 307 l 257
 647 -4 l 257
 840 -4 l 257
 902 307 l 257
 1149 307 l 257
 1169 465 l 257
 937 465 l 257
 990 733 l 257
 1214 733 l 257
 1234 892 l 257
 1024 892 l 257
 1084 1187 l 257
 888 1187 l 257
 829 892 l 257
 586 892 l 257
 644 1187 l 257
 449 1187 l 257
 391 892 l 257
 157 892 l 257
 137 733 l 257
 356 733 l 257
 303 465 l 257
 92 465 l 257
 72 307 l 257
 269 307 l 257
 208 -4 l 257
497 465 m 257
 550 733 l 257
 795 733 l 257
 742 465 l 257
 497 465 l 257
EndSplineSet
EndChar

StartChar: o
Encoding: 111 111 326
Width: 1022
VWidth: 0
Flags: HW
PickledData: "(dp1
S'org.robofab.postScriptHintData'
p2
(dp3
sS'com.typemytype.robofont.layerData'
p4
(dp5
S'b'
(dp6
S'name'
p7
S'o'
sS'lib'
p8
(dp9
sS'unicodes'
p10
(tsS'width'
p11
I1004
sS'contours'
p12
(tsS'components'
p13
(tsS'anchors'
p14
(tsss."
AnchorPoint: "top" 500 817 basechar 0
LayerCount: 2
Fore
SplineSet
510 -22 m 0
 788 -22 978 153 978 411 c 0
 978 658 788 826 511 826 c 0
 234 826 45 658 45 411 c 0
 45 153 234 -22 510 -22 c 0
511 167 m 0
 510 167 510 167 509 167 c 0
 400 167 325 265 325 410 c 0
 325 545 401 637 510 637 c 0
 621 637 696 545 696 411 c 0
 696 266 622 167 513 167 c 0
 512 167 512 167 511 167 c 0
EndSplineSet
EndChar

StartChar: oe
Encoding: 339 339 331
Width: 1628
VWidth: 0
Flags: HW
PickledData: "(dp1
S'org.robofab.postScriptHintData'
p2
(dp3
sS'com.typemytype.robofont.layerData'
p4
(dp5
S'b'
(dp6
S'name'
p7
S'oe'
p8
sS'lib'
p9
(dp10
sS'unicodes'
p11
(tsS'width'
p12
I1695
sS'contours'
p13
(tsS'components'
p14
(tsS'anchors'
p15
(tsss."
LayerCount: 2
Fore
SplineSet
513 -22 m 256
 680 -22 783 51 838 131 c 257
 892 51 1005 -21 1184 -21 c 256
 1334 -21 1462 26 1545 107 c 257
 1455 246 l 257
 1384 195 1293 164 1209 164 c 256
 1079 164 992 232 985 358 c 257
 1552 358 l 257
 1552 639 1414 827 1153 827 c 256
 1007 827 902 767 839 675 c 257
 772 772 648 826 520 826 c 256
 245 826 63 656 63 409 c 256
 63 155 236 -22 513 -22 c 256
519 164 m 256
 518 164 518 164 517 164 c 0
 404 164 333 262 333 409 c 256
 333 545 405 638 518 638 c 256
 632 638 704 545 704 409 c 256
 704 262 632 164 521 164 c 0
 520 164 520 164 519 164 c 256
987 492 m 257
 1004 598 1064 663 1161 663 c 256
 1261 663 1311 596 1316 492 c 257
 987 492 l 257
EndSplineSet
EndChar

StartChar: ogonek
Encoding: 731 731 332
Width: 319
VWidth: 0
Flags: HW
PickledData: "(dp1
S'org.robofab.postScriptHintData'
p2
(dp3
sS'com.typemytype.robofont.layerData'
p4
(dp5
S'b'
(dp6
S'name'
p7
S'ogonek'
p8
sS'lib'
p9
(dp10
sS'unicodes'
p11
(tsS'width'
p12
I487
sS'contours'
p13
(tsS'components'
p14
(tsS'anchors'
p15
(tsss."
LayerCount: 2
Fore
SplineSet
231 -388 m 256
 281 -388 325 -377 385 -348 c 257
 385 -222 l 257
 357 -232 333 -235 309 -235 c 256
 234 -235 195 -194 195 -127 c 256
 195 -92 206 -44 245 10 c 257
 132 10 l 257
 69 -67 45 -141 45 -206 c 256
 45 -310 117 -388 231 -388 c 256
EndSplineSet
EndChar

StartChar: one
Encoding: 49 49 336
Width: 1004
VWidth: 0
Flags: HW
PickledData: "(dp1
S'org.robofab.postScriptHintData'
p2
(dp3
sS'com.typemytype.robofont.layerData'
p4
(dp5
S'b'
(dp6
S'name'
p7
S'one'
p8
sS'lib'
p9
(dp10
sS'unicodes'
p11
(tsS'width'
p12
I722
sS'contours'
p13
(tsS'components'
p14
(tsS'anchors'
p15
(tsss."
LayerCount: 2
Fore
SplineSet
188 0 m 257
 875 0 l 257
 875 183 l 257
 685 183 l 257
 685 1150 l 257
 183 1094 l 257
 183 914 l 257
 388 946 l 257
 388 183 l 257
 188 183 l 257
 188 0 l 257
EndSplineSet
EndChar

StartChar: onehalf
Encoding: 189 189 337
Width: 2251
VWidth: 0
Flags: HW
PickledData: "(dp1
S'org.robofab.postScriptHintData'
p2
(dp3
sS'com.typemytype.robofont.layerData'
p4
(dp5
S'b'
(dp6
S'name'
p7
S'onehalf'
p8
sS'lib'
p9
(dp10
sS'unicodes'
p11
(tsS'width'
p12
I1910
sS'contours'
p13
(tsS'components'
p14
(tsS'anchors'
p15
(tsss."
LayerCount: 2
Fore
SplineSet
1441 0 m 257
 2070 0 l 257
 2066 264 l 257
 1921 264 l 257
 1919 120 l 257
 1679 120 l 257
 1894 321 l 258
 1991 413 2056 491 2056 585 c 256
 2056 769 1887 834 1738 834 c 256
 1516 834 1419 712 1419 576 c 256
 1419 538 1426 499 1442 462 c 257
 1617 462 l 257
 1609 492 1604 522 1604 549 c 256
 1604 639 1649 695 1738 695 c 256
 1812 695 1852 654 1852 581 c 0
 1852 536 1810 480 1755 427 c 258
 1441 132 l 257
 1441 0 l 257
196 335 m 257
 683 335 l 257
 683 465 l 257
 549 465 l 257
 549 1152 l 257
 192 1112 l 257
 192 984 l 257
 337 1007 l 257
 337 465 l 257
 196 465 l 257
 196 335 l 257
625 -72 m 257
 774 -72 l 257
 1572 1228 l 257
 1428 1228 l 257
 625 -72 l 257
EndSplineSet
EndChar

StartChar: onequarter
Encoding: 188 188 338
Width: 2194
VWidth: 0
Flags: HW
PickledData: "(dp1
S'org.robofab.postScriptHintData'
p2
(dp3
sS'com.typemytype.robofont.layerData'
p4
(dp5
S'b'
(dp6
S'name'
p7
S'onequarter'
p8
sS'lib'
p9
(dp10
sS'unicodes'
p11
(tsS'width'
p12
I1825
sS'contours'
p13
(tsS'components'
p14
(tsS'anchors'
p15
(tsss."
LayerCount: 2
Fore
SplineSet
1560 0 m 257
 1996 0 l 257
 1996 129 l 257
 1884 129 l 257
 1884 260 l 257
 2005 260 l 257
 2005 374 l 257
 1884 374 l 257
 1884 818 l 257
 1685 818 l 257
 1335 371 l 257
 1352 260 l 257
 1692 260 l 257
 1692 129 l 257
 1560 129 l 257
 1560 0 l 257
196 335 m 257
 683 335 l 257
 683 465 l 257
 549 465 l 257
 549 1152 l 257
 192 1112 l 257
 192 984 l 257
 337 1007 l 257
 337 465 l 257
 196 465 l 257
 196 335 l 257
619 -72 m 257
 767 -72 l 257
 1566 1228 l 257
 1421 1228 l 257
 619 -72 l 257
1484 374 m 257
 1692 649 l 257
 1692 374 l 257
 1484 374 l 257
EndSplineSet
EndChar

StartChar: ordfeminine
Encoding: 170 170 340
Width: 917
VWidth: 0
Flags: HW
PickledData: "(dp1
S'org.robofab.postScriptHintData'
p2
(dp3
sS'com.typemytype.robofont.layerData'
p4
(dp5
S'b'
(dp6
S'name'
p7
S'ordfeminine'
p8
sS'lib'
p9
(dp10
sS'unicodes'
p11
(tsS'width'
p12
I743
sS'contours'
p13
(tsS'components'
p14
(tsS'anchors'
p15
(tsss."
LayerCount: 2
Fore
SplineSet
362 469 m 256
 444 469 515 492 576 537 c 257
 593 487 l 257
 875 487 l 257
 875 638 l 257
 777 638 l 257
 777 916 l 258
 777 1093 631 1174 452 1174 c 256
 346 1174 228 1148 134 1091 c 257
 193 953 l 257
 287 998 372 1017 429 1017 c 256
 507 1017 549 979 549 904 c 258
 549 869 l 257
 509 878 465 884 419 884 c 256
 276 884 123 831 123 679 c 256
 123 547 228 469 362 469 c 256
421 597 m 256
 369 597 333 629 333 679 c 256
 333 752 389 774 447 774 c 256
 489 774 525 767 549 759 c 257
 549 644 l 257
 510 613 463 597 421 597 c 256
EndSplineSet
EndChar

StartChar: ordmasculine
Encoding: 186 186 341
Width: 1011
VWidth: 0
Flags: HW
PickledData: "(dp1
S'org.robofab.postScriptHintData'
p2
(dp3
sS'com.typemytype.robofont.layerData'
p4
(dp5
S'b'
(dp6
S'name'
p7
S'ordmasculine'
p8
sS'lib'
p9
(dp10
sS'unicodes'
p11
(tsS'width'
p12
I813
sS'contours'
p13
(tsS'components'
p14
(tsS'anchors'
p15
(tsss."
LayerCount: 2
Fore
SplineSet
501 626 m 256
 500 626 499 626 498 626 c 0
 408 626 347 707 347 828 c 256
 347 940 409 1017 501 1017 c 256
 593 1017 656 940 656 828 c 256
 656 708 594 626 504 626 c 0
 503 626 502 626 501 626 c 256
501 468 m 256
 732 468 890 614 890 829 c 256
 890 1034 733 1174 502 1174 c 256
 270 1174 113 1034 113 829 c 256
 113 614 270 468 501 468 c 256
EndSplineSet
EndChar

StartChar: oslash
Encoding: 248 248 342
Width: 1025
VWidth: 0
Flags: HW
PickledData: "(dp1
S'org.robofab.postScriptHintData'
p2
(dp3
sS'com.typemytype.robofont.layerData'
p4
(dp5
S'b'
(dp6
S'name'
p7
S'oslash'
p8
sS'lib'
p9
(dp10
sS'unicodes'
p11
(tsS'width'
p12
I1064
sS'contours'
p13
(tsS'components'
p14
(tsS'anchors'
p15
(tsss."
LayerCount: 2
Fore
SplineSet
305 -119 m 257
 822 890 l 257
 728 933 l 257
 211 -76 l 257
 305 -119 l 257
EndSplineSet
Refer: 326 111 N 1 0 0 1 0 0 2
EndChar

StartChar: p
Encoding: 112 112 345
Width: 1115
VWidth: 0
Flags: HW
PickledData: "(dp1
S'org.robofab.postScriptHintData'
p2
(dp3
sS'com.typemytype.robofont.layerData'
p4
(dp5
S'b'
(dp6
S'name'
p7
S'p'
sS'lib'
p8
(dp9
sS'unicodes'
p10
(tsS'width'
p11
I1097
sS'contours'
p12
(tsS'components'
p13
(tsS'anchors'
p14
(tsss."
AnchorPoint: "top" 572 804 basechar 0
LayerCount: 2
Fore
SplineSet
20 -364 m 1
 615 -364 l 1
 615 -182 l 1
 440 -182 l 1
 441 41 l 1
 509 -1 582 -21 658 -21 c 0
 870 -21 1069 135 1069 419 c 0
 1069 666 911 826 678 826 c 0
 597 826 515 800 437 754 c 1
 435 804 l 1
 20 804 l 1
 20 622 l 1
 166 622 l 1
 166 -182 l 1
 20 -182 l 1
 20 -364 l 1
441 171 m 1
 442 614 l 1
 485 631 525 639 564 639 c 0
 714 639 780 526 780 401 c 0
 780 239 677 151 547 151 c 0
 514 151 479 156 441 171 c 1
EndSplineSet
EndChar

StartChar: paragraph
Encoding: 182 182 346
Width: 1195
VWidth: 0
Flags: HW
PickledData: "(dp1
S'org.robofab.postScriptHintData'
p2
(dp3
sS'com.typemytype.robofont.layerData'
p4
(dp5
S'b'
(dp6
S'name'
p7
S'paragraph'
p8
sS'lib'
p9
(dp10
sS'unicodes'
p11
(tsS'width'
p12
I1096
sS'contours'
p13
(tsS'components'
p14
(tsS'anchors'
p15
(tsss."
LayerCount: 2
Fore
SplineSet
458 0 m 257
 1146 0 l 257
 1146 183 l 257
 978 183 l 257
 978 971 l 257
 1141 971 l 257
 1141 1152 l 257
 525 1152 l 258
 151 1152 91 942 91 790 c 256
 91 630 199 434 444 434 c 0
 450 434 456 434 462 434 c 258
 718 434 l 257
 718 183 l 257
 458 183 l 257
 458 0 l 257
517 607 m 257
 517 971 l 257
 718 971 l 257
 718 609 l 257
 517 607 l 257
EndSplineSet
EndChar

StartChar: parenleft
Encoding: 40 40 347
Width: 717
VWidth: 0
Flags: HW
PickledData: "(dp1
S'org.robofab.postScriptHintData'
p2
(dp3
sS'com.typemytype.robofont.layerData'
p4
(dp5
S'b'
(dp6
S'name'
p7
S'parenleft'
p8
sS'lib'
p9
(dp10
sS'unicodes'
p11
(tsS'width'
p12
I595
sS'contours'
p13
(tsS'components'
p14
(tsS'anchors'
p15
(tsss."
LayerCount: 2
Fore
SplineSet
599 -141 m 257
 596 26 l 257
 478 129 416 323 416 518 c 256
 416 712 478 906 596 1011 c 257
 599 1171 l 257
 274 1011 108 761 108 513 c 256
 108 269 271 23 599 -141 c 257
EndSplineSet
EndChar

StartChar: parenright
Encoding: 41 41 348
Width: 717
VWidth: 0
Flags: HW
PickledData: "(dp1
S'org.robofab.postScriptHintData'
p2
(dp3
sS'com.typemytype.robofont.layerData'
p4
(dp5
S'b'
(dp6
S'name'
p7
S'parenright'
p8
sS'lib'
p9
(dp10
sS'unicodes'
p11
(tsS'width'
p12
I595
sS'contours'
p13
(tsS'components'
p14
(tsS'anchors'
p15
(tsss."
LayerCount: 2
Fore
SplineSet
155 -141 m 257
 483 23 647 269 647 513 c 256
 647 761 480 1011 155 1171 c 257
 158 1011 l 257
 276 906 338 712 338 518 c 256
 338 323 276 129 158 26 c 257
 155 -141 l 257
EndSplineSet
EndChar

StartChar: partialdiff
Encoding: 8706 8706 349
Width: 995
VWidth: 0
Flags: HW
PickledData: "(dp1
S'org.robofab.postScriptHintData'
p2
(dp3
sS'com.typemytype.robofont.layerData'
p4
(dp5
S'b'
(dp6
S'name'
p7
S'partialdiff'
p8
sS'lib'
p9
(dp10
sS'unicodes'
p11
(tsS'width'
p12
I1006
sS'contours'
p13
(tsS'components'
p14
(tsS'anchors'
p15
(tsss."
LayerCount: 2
Fore
SplineSet
401 -21 m 256
 793 -21 924 432 924 732 c 256
 924 1037 785 1240 496 1240 c 256
 309 1240 201 1156 201 1048 c 256
 201 984 257 931 408 931 c 0
 423 931 439 932 456 933 c 257
 456 937 456 941 456 945 c 0
 456 1029 507 1104 588 1104 c 256
 688 1104 750 933 750 710 c 0
 750 692 750 674 749 655 c 257
 813 658 l 257
 776 730 692 787 561 787 c 256
 205 787 75 468 75 288 c 256
 75 135 155 -21 401 -21 c 256
483 130 m 256
 426 130 393 184 393 276 c 256
 393 417 469 656 608 656 c 256
 654 656 712 632 740 547 c 257
 702 289 583 130 483 130 c 256
EndSplineSet
EndChar

StartChar: percent
Encoding: 37 37 351
Width: 1935
VWidth: 0
Flags: HW
PickledData: "(dp1
S'org.robofab.postScriptHintData'
p2
(dp3
sS'com.typemytype.robofont.layerData'
p4
(dp5
S'b'
(dp6
S'name'
p7
S'percent'
p8
sS'lib'
p9
(dp10
sS'unicodes'
p11
(tsS'width'
p12
I1741
sS'contours'
p13
(tsS'components'
p14
(tsS'anchors'
p15
(tsss."
LayerCount: 2
Fore
SplineSet
457 706 m 256
 375 708 320 774 320 873 c 256
 320 972 375 1037 457 1039 c 256
 541 1037 597 972 597 873 c 256
 597 774 541 708 457 706 c 256
457 568 m 256
 647 568 779 694 779 873 c 256
 779 1051 647 1175 457 1175 c 256
 269 1175 138 1051 138 873 c 256
 138 694 269 568 457 568 c 256
552 -98 m 257
 1547 1167 l 257
 1404 1276 l 257
 404 17 l 257
 552 -98 l 257
1481 116 m 257
 1398 119 1343 184 1343 284 c 256
 1343 382 1398 447 1481 449 c 256
 1565 447 1621 382 1621 284 c 256
 1621 184 1565 119 1481 116 c 257
1481 -22 m 256
 1670 -22 1802 104 1802 284 c 256
 1802 462 1670 586 1481 586 c 256
 1293 586 1162 462 1162 284 c 256
 1162 104 1293 -22 1481 -22 c 256
EndSplineSet
EndChar

StartChar: period
Encoding: 46 46 352
Width: 786
VWidth: 0
Flags: HW
PickledData: "(dp1
S'org.robofab.postScriptHintData'
p2
(dp3
sS'com.typemytype.robofont.layerData'
p4
(dp5
S'b'
(dp6
S'name'
p7
S'period'
p8
sS'lib'
p9
(dp10
sS'unicodes'
p11
(tsS'width'
p12
I553
sS'contours'
p13
(tsS'components'
p14
(tsS'anchors'
p15
(tsss."
LayerCount: 2
Fore
SplineSet
268 0 m 257
 549 0 l 257
 549 284 l 257
 268 284 l 257
 268 0 l 257
EndSplineSet
EndChar

StartChar: periodcentered
Encoding: 183 183 353
Width: 843
VWidth: 0
Flags: HW
PickledData: "(dp1
S'org.robofab.postScriptHintData'
p2
(dp3
sS'com.typemytype.robofont.layerData'
p4
(dp5
S'b'
(dp6
S'name'
p7
S'periodcentered'
p8
sS'lib'
p9
(dp10
sS'unicodes'
p11
(tsS'width'
p12
I574
sS'contours'
p13
(tsS'components'
p14
(tsS'anchors'
p15
(tsss."
LayerCount: 2
Fore
SplineSet
318 434 m 257
 563 434 l 257
 563 663 l 257
 318 663 l 257
 318 434 l 257
EndSplineSet
EndChar

StartChar: perthousand
Encoding: 8240 8240 354
Width: 2695
VWidth: 0
Flags: HW
PickledData: "(dp1
S'org.robofab.postScriptHintData'
p2
(dp3
s."
LayerCount: 2
Fore
SplineSet
2241 116 m 257
 2159 119 2104 184 2104 284 c 256
 2104 382 2159 447 2241 449 c 256
 2325 447 2381 382 2381 284 c 256
 2381 184 2325 119 2241 116 c 257
2241 -22 m 256
 2431 -22 2563 104 2563 284 c 256
 2563 462 2431 586 2241 586 c 256
 2053 586 1922 462 1922 284 c 256
 1922 104 2053 -22 2241 -22 c 256
EndSplineSet
Refer: 351 37 N 1 0 0 1 0 0 2
EndChar

StartChar: pi
Encoding: 960 960 355
Width: 1272
VWidth: 0
Flags: HW
PickledData: "(dp1
S'org.robofab.postScriptHintData'
p2
(dp3
sS'com.typemytype.robofont.layerData'
p4
(dp5
S'b'
(dp6
S'name'
p7
S'pi'
p8
sS'lib'
p9
(dp10
sS'unicodes'
p11
(tsS'width'
p12
I1187
sS'contours'
p13
(tsS'components'
p14
(tsS'anchors'
p15
(tsss."
LayerCount: 2
Fore
SplineSet
950 -20 m 256
 1025 -20 1099 7 1136 40 c 257
 1136 165 l 257
 1084 146 1047 137 1015 137 c 256
 965 137 930 161 930 246 c 256
 930 328 935 441 947 588 c 257
 1135 588 l 257
 1135 804 l 257
 402 804 l 258
 194 804 115 653 116 488 c 257
 241 488 l 257
 250 556 291 588 332 588 c 258
 403 588 l 257
 341 315 l 257
 303 153 232 115 145 102 c 257
 145 -2 l 257
 280 -2 l 258
 457 -2 542 83 557 247 c 258
 588 588 l 257
 781 588 l 257
 736 436 697 306 697 199 c 256
 697 73 757 -20 950 -20 c 256
EndSplineSet
EndChar

StartChar: plus
Encoding: 43 43 356
Width: 1015
VWidth: 0
Flags: HW
PickledData: "(dp1
S'org.robofab.postScriptHintData'
p2
(dp3
sS'com.typemytype.robofont.layerData'
p4
(dp5
S'b'
(dp6
S'name'
p7
S'plus'
p8
sS'lib'
p9
(dp10
sS'unicodes'
p11
(tsS'width'
p12
I1035
sS'contours'
p13
(tsS'components'
p14
(tsS'anchors'
p15
(tsss."
LayerCount: 2
Fore
SplineSet
414 158 m 257
 608 158 l 257
 608 485 l 257
 922 485 l 257
 922 658 l 257
 608 658 l 257
 608 988 l 257
 414 988 l 257
 414 658 l 257
 100 658 l 257
 100 485 l 257
 414 485 l 257
 414 158 l 257
EndSplineSet
EndChar

StartChar: plusminus
Encoding: 177 177 357
Width: 1005
VWidth: 0
Flags: HW
PickledData: "(dp1
S'org.robofab.postScriptHintData'
p2
(dp3
sS'com.typemytype.robofont.layerData'
p4
(dp5
S'b'
(dp6
S'name'
p7
S'plusminus'
p8
sS'lib'
p9
(dp10
sS'unicodes'
p11
(tsS'width'
p12
I980
sS'contours'
p13
(tsS'components'
p14
(tsS'anchors'
p15
(tsss."
LayerCount: 2
Fore
SplineSet
408 271 m 257
 597 271 l 257
 597 562 l 257
 898 562 l 257
 898 734 l 257
 597 734 l 257
 597 1032 l 257
 408 1032 l 257
 408 734 l 257
 107 734 l 257
 107 562 l 257
 408 562 l 257
 408 271 l 257
107 0 m 257
 898 0 l 257
 898 171 l 257
 107 171 l 257
 107 0 l 257
EndSplineSet
EndChar

StartChar: product
Encoding: 8719 8719 358
Width: 1537
VWidth: 0
Flags: HW
PickledData: "(dp1
S'org.robofab.postScriptHintData'
p2
(dp3
sS'com.typemytype.robofont.layerData'
p4
(dp5
S'b'
(dp6
S'name'
p7
S'product'
p8
sS'lib'
p9
(dp10
sS'unicodes'
p11
(tsS'width'
p12
I1477
sS'contours'
p13
(tsS'components'
p14
(tsS'anchors'
p15
(tsss."
LayerCount: 2
Fore
SplineSet
74 0 m 257
 691 0 l 257
 691 182 l 257
 539 182 l 257
 539 970 l 257
 999 970 l 257
 999 182 l 257
 847 182 l 257
 847 0 l 257
 1463 0 l 257
 1463 182 l 257
 1315 182 l 257
 1315 970 l 257
 1463 970 l 257
 1463 1152 l 257
 74 1152 l 257
 74 970 l 257
 222 970 l 257
 222 182 l 257
 74 182 l 257
 74 0 l 257
EndSplineSet
EndChar

StartChar: q
Encoding: 113 113 359
Width: 1133
VWidth: 0
Flags: HW
PickledData: "(dp1
S'org.robofab.postScriptHintData'
p2
(dp3
sS'com.typemytype.robofont.layerData'
p4
(dp5
S'b'
(dp6
S'name'
p7
S'q'
sS'lib'
p8
(dp9
sS'unicodes'
p10
(tsS'width'
p11
I1134
sS'contours'
p12
(tsS'components'
p13
(tsS'anchors'
p14
(tsss."
LayerCount: 2
Fore
SplineSet
538 -370 m 1
 1121 -370 l 1
 1121 -185 l 1
 983 -185 l 1
 983 622 l 1
 1085 622 l 1
 1085 804 l 1
 708 804 l 1
 708 732 l 1
 630 788 541 826 452 826 c 0
 222 826 48 664 48 392 c 0
 48 135 235 -22 482 -22 c 0
 568 -22 642 6 708 53 c 1
 708 -185 l 1
 538 -185 l 1
 538 -370 l 1
708 602 m 1
 708 200 l 1
 649 177 592 165 545 165 c 0
 425 165 337 250 337 399 c 0
 337 561 426 639 553 639 c 0
 601 639 654 626 708 602 c 1
EndSplineSet
EndChar

StartChar: question
Encoding: 63 63 360
Width: 1045
VWidth: 0
Flags: HW
PickledData: "(dp1
S'org.robofab.postScriptHintData'
p2
(dp3
sS'com.typemytype.robofont.layerData'
p4
(dp5
S'b'
(dp6
S'name'
p7
S'question'
p8
sS'lib'
p9
(dp10
sS'unicodes'
p11
(tsS'width'
p12
I851
sS'contours'
p13
(tsS'components'
p14
(tsS'anchors'
p15
(tsss."
LayerCount: 2
Fore
SplineSet
414 381 m 257
 598 381 l 257
 653 666 945 611 945 900 c 256
 945 1069 838 1244 538 1244 c 256
 302 1244 102 1137 102 849 c 257
 338 849 l 257
 338 974 400 1042 523 1042 c 256
 634 1042 683 979 683 896 c 256
 683 717 465 790 414 381 c 257
376 0 m 257
 653 0 l 257
 653 247 l 257
 376 247 l 257
 376 0 l 257
EndSplineSet
EndChar

StartChar: quotedbl
Encoding: 34 34 362
Width: 928
VWidth: 0
Flags: HW
PickledData: "(dp1
S'org.robofab.postScriptHintData'
p2
(dp3
sS'com.typemytype.robofont.layerData'
p4
(dp5
S'b'
(dp6
S'name'
p7
S'quotedbl'
p8
sS'lib'
p9
(dp10
sS'unicodes'
p11
(tsS'width'
p12
I808
sS'contours'
p13
(tsS'components'
p14
(tsS'anchors'
p15
(tsss."
LayerCount: 2
Fore
SplineSet
212 663 m 257
 354 663 l 257
 403 1193 l 257
 156 1193 l 257
 212 663 l 257
574 663 m 257
 716 663 l 257
 766 1193 l 257
 518 1193 l 257
 574 663 l 257
EndSplineSet
EndChar

StartChar: quotedblbase
Encoding: 8222 8222 363
Width: 1020
VWidth: 0
Flags: HW
PickledData: "(dp1
S'org.robofab.postScriptHintData'
p2
(dp3
sS'com.typemytype.robofont.layerData'
p4
(dp5
S'b'
(dp6
S'name'
p7
S'quotedblbase'
p8
sS'lib'
p9
(dp10
sS'unicodes'
p11
(tsS'width'
p12
I898
sS'contours'
p13
(tsS'components'
p14
(tsS'anchors'
p15
(tsss."
LayerCount: 2
Fore
SplineSet
196 -264 m 257
 395 -263 444 -125 444 4 c 258
 444 253 l 257
 175 253 l 257
 175 -5 l 257
 303 -5 l 257
 303 -107 278 -141 196 -147 c 257
 196 -264 l 257
589 -264 m 257
 788 -263 837 -125 837 4 c 258
 837 253 l 257
 568 253 l 257
 568 -5 l 257
 696 -5 l 257
 696 -107 671 -141 589 -147 c 257
 589 -264 l 257
EndSplineSet
EndChar

StartChar: quotedblleft
Encoding: 8220 8220 364
Width: 998
VWidth: 0
Flags: HW
PickledData: "(dp1
S'org.robofab.postScriptHintData'
p2
(dp3
sS'com.typemytype.robofont.layerData'
p4
(dp5
S'b'
(dp6
S'name'
p7
S'quotedblleft'
p8
sS'lib'
p9
(dp10
sS'unicodes'
p11
(tsS'width'
p12
I844
sS'contours'
p13
(tsS'components'
p14
(tsS'anchors'
p15
(tsss."
LayerCount: 2
Fore
SplineSet
168 681 m 257
 436 681 l 257
 436 939 l 257
 309 939 l 257
 309 1042 334 1075 416 1081 c 257
 416 1198 l 257
 217 1197 168 1060 168 931 c 258
 168 681 l 257
539 681 m 257
 807 681 l 257
 807 939 l 257
 680 939 l 257
 680 1042 706 1075 787 1081 c 257
 787 1198 l 257
 589 1197 539 1060 539 931 c 258
 539 681 l 257
EndSplineSet
EndChar

StartChar: quotedblright
Encoding: 8221 8221 365
Width: 1058
VWidth: 0
Flags: HW
PickledData: "(dp1
S'org.robofab.postScriptHintData'
p2
(dp3
sS'com.typemytype.robofont.layerData'
p4
(dp5
S'b'
(dp6
S'name'
p7
S'quotedblright'
p8
sS'lib'
p9
(dp10
sS'unicodes'
p11
(tsS'width'
p12
I836
sS'contours'
p13
(tsS'components'
p14
(tsS'anchors'
p15
(tsss."
LayerCount: 2
Fore
SplineSet
197 660 m 257
 395 661 444 799 444 927 c 258
 444 1177 l 257
 176 1177 l 257
 176 919 l 257
 304 919 l 257
 303 816 278 782 197 777 c 257
 197 660 l 257
565 660 m 257
 764 661 813 799 813 927 c 258
 813 1177 l 257
 544 1177 l 257
 544 919 l 257
 673 919 l 257
 672 816 647 782 565 777 c 257
 565 660 l 257
EndSplineSet
EndChar

StartChar: quoteleft
Encoding: 8216 8216 366
Width: 616
VWidth: 0
Flags: HW
PickledData: "(dp1
S'org.robofab.postScriptHintData'
p2
(dp3
sS'com.typemytype.robofont.layerData'
p4
(dp5
S'b'
(dp6
S'name'
p7
S'quoteleft'
p8
sS'lib'
p9
(dp10
sS'unicodes'
p11
(tsS'width'
p12
I511
sS'contours'
p13
(tsS'components'
p14
(tsS'anchors'
p15
(tsss."
LayerCount: 2
Fore
SplineSet
158 681 m 257
 427 681 l 257
 427 939 l 257
 299 939 l 257
 299 1042 325 1075 406 1081 c 257
 406 1198 l 257
 208 1197 158 1060 158 931 c 258
 158 681 l 257
EndSplineSet
EndChar

StartChar: quoteright
Encoding: 8217 8217 367
Width: 621
VWidth: 0
Flags: HW
PickledData: "(dp1
S'org.robofab.postScriptHintData'
p2
(dp3
sS'com.typemytype.robofont.layerData'
p4
(dp5
S'b'
(dp6
S'name'
p7
S'quoteright'
p8
sS'lib'
p9
(dp10
sS'unicodes'
p11
(tsS'width'
p12
I511
sS'contours'
p13
(tsS'components'
p14
(tsS'anchors'
p15
(tsss."
LayerCount: 2
Fore
SplineSet
197 660 m 257
 395 661 444 799 444 927 c 258
 444 1177 l 257
 176 1177 l 257
 176 919 l 257
 304 919 l 257
 303 816 278 782 197 777 c 257
 197 660 l 257
EndSplineSet
EndChar

StartChar: quotesinglbase
Encoding: 8218 8218 368
Width: 615
VWidth: 0
Flags: HW
PickledData: "(dp1
S'org.robofab.postScriptHintData'
p2
(dp3
sS'com.typemytype.robofont.layerData'
p4
(dp5
S'b'
(dp6
S'name'
p7
S'quotesinglbase'
p8
sS'lib'
p9
(dp10
sS'unicodes'
p11
(tsS'width'
p12
I508
sS'contours'
p13
(tsS'components'
p14
(tsS'anchors'
p15
(tsss."
LayerCount: 2
Fore
SplineSet
195 -264 m 257
 394 -263 443 -125 443 4 c 258
 443 253 l 257
 174 253 l 257
 174 -5 l 257
 303 -5 l 257
 302 -107 277 -141 195 -147 c 257
 195 -264 l 257
EndSplineSet
EndChar

StartChar: quotesingle
Encoding: 39 39 369
Width: 583
VWidth: 0
Flags: HW
PickledData: "(dp1
S'org.robofab.postScriptHintData'
p2
(dp3
sS'com.typemytype.robofont.layerData'
p4
(dp5
S'b'
(dp6
S'name'
p7
S'quotesingle'
p8
sS'lib'
p9
(dp10
sS'unicodes'
p11
(tsS'width'
p12
I479
sS'contours'
p13
(tsS'components'
p14
(tsS'anchors'
p15
(tsss."
LayerCount: 2
Fore
SplineSet
211 663 m 257
 354 663 l 257
 403 1193 l 257
 156 1193 l 257
 211 663 l 257
EndSplineSet
EndChar

StartChar: r
Encoding: 114 114 370
Width: 844
VWidth: 0
Flags: HW
PickledData: "(dp1
S'org.robofab.postScriptHintData'
p2
(dp3
sS'com.typemytype.robofont.layerData'
p4
(dp5
S'b'
(dp6
S'name'
p7
S'r'
sS'lib'
p8
(dp9
sS'unicodes'
p10
(tsS'width'
p11
I809
sS'contours'
p12
((dp13
S'points'
p14
((dp15
S'segmentType'
p16
S'line'
p17
sS'x'
I252
sS'smooth'
p18
I0
sS'y'
I449
s(dp19
S'y'
I643
sS'x'
I252
sg18
I0
s(dp20
S'y'
I756
sS'x'
I355
sg18
I0
s(dp21
g16
S'curve'
p22
sS'x'
I484
sg18
I1
sS'y'
I756
s(dp23
S'y'
I756
sS'x'
I528
sg18
I0
s(dp24
S'y'
I742
sS'x'
I565
sg18
I0
s(dp25
g16
S'curve'
p26
sS'x'
I618
sg18
I0
sS'y'
I716
s(dp27
g16
S'line'
p28
sS'x'
I636
sg18
I0
sS'y'
I784
s(dp29
S'y'
I810
sS'x'
I578
sg18
I0
s(dp30
S'y'
I820
sS'x'
I536
sg18
I0
s(dp31
g16
S'curve'
p32
sS'x'
I489
sg18
I1
sS'y'
I820
s(dp33
S'y'
I820
sS'x'
I381
sg18
I0
s(dp34
S'y'
I769
sS'x'
I295
sg18
I0
s(dp35
g16
S'curve'
p36
sS'x'
I230
sg18
I0
sS'y'
I582
stp37
stp38
sS'components'
p39
(tsS'anchors'
p40
(tsss."
AnchorPoint: "bot" 310 0 basechar 0
AnchorPoint: "top" 455 804 basechar 0
LayerCount: 2
Fore
SplineSet
48 0 m 1
 565 0 l 1
 565 182 l 1
 451 182 l 1
 451 430 l 2
 451 538 533 585 615 585 c 0
 671 585 732 566 772 540 c 1
 832 773 l 1
 780 794 726 813 669 813 c 0
 592 813 510 774 451 645 c 1
 451 804 l 1
 53 804 l 1
 53 622 l 1
 177 622 l 1
 177 182 l 1
 48 182 l 1
 48 0 l 1
EndSplineSet
EndChar

StartChar: radical
Encoding: 8730 8730 372
Width: 1309
VWidth: 0
Flags: HW
PickledData: "(dp1
S'org.robofab.postScriptHintData'
p2
(dp3
sS'com.typemytype.robofont.layerData'
p4
(dp5
S'b'
(dp6
S'name'
p7
S'radical'
p8
sS'lib'
p9
(dp10
sS'unicodes'
p11
(tsS'width'
p12
I1172
sS'contours'
p13
(tsS'components'
p14
(tsS'anchors'
p15
(tsss."
LayerCount: 2
Fore
SplineSet
478 -6 m 257
 694 -6 l 257
 1228 1311 l 257
 1079 1311 l 257
 623 202 l 257
 470 579 l 257
 104 579 l 257
 104 456 l 257
 270 456 l 257
 478 -6 l 257
EndSplineSet
EndChar

StartChar: registered
Encoding: 174 174 375
Width: 1538
VWidth: 0
Flags: HW
PickledData: "(dp1
S'org.robofab.postScriptHintData'
p2
(dp3
sS'com.typemytype.robofont.layerData'
p4
(dp5
S'b'
(dp6
S'name'
p7
S'registered'
p8
sS'lib'
p9
(dp10
sS'unicodes'
p11
(tsS'width'
p12
I1538
sS'contours'
p13
(tsS'components'
p14
(tsS'anchors'
p15
(tsss."
LayerCount: 2
Fore
SplineSet
490 307 m 257
 772 307 l 257
 772 381 l 257
 690 381 l 257
 690 594 l 257
 772 594 l 257
 924 307 l 257
 1090 307 l 257
 1090 381 l 257
 1002 381 l 257
 877 607 l 257
 960 628 1015 693 1015 770 c 256
 1015 869 928 935 798 935 c 258
 490 935 l 257
 490 861 l 257
 577 861 l 257
 577 381 l 257
 490 381 l 257
 490 307 l 257
690 672 m 257
 690 861 l 257
 799 861 l 258
 861 861 903 824 903 768 c 256
 903 710 859 672 792 672 c 258
 690 672 l 257
767 103 m 256
 483 103 282 309 282 600 c 256
 282 896 483 1106 767 1106 c 256
 1053 1106 1255 896 1255 600 c 256
 1255 309 1053 103 767 103 c 256
767 -22 m 256
 1147 -22 1415 237 1415 603 c 256
 1415 970 1147 1230 767 1230 c 256
 390 1230 123 970 123 603 c 256
 123 237 390 -22 767 -22 c 256
EndSplineSet
EndChar

StartChar: ring
Encoding: 730 730 376
Width: 557
VWidth: 0
Flags: HW
PickledData: "(dp1
S'org.robofab.postScriptHintData'
p2
(dp3
sS'com.typemytype.robofont.layerData'
p4
(dp5
S'b'
(dp6
S'name'
p7
S'ring'
p8
sS'lib'
p9
(dp10
sS'unicodes'
p11
(tsS'width'
p12
I499
sS'contours'
p13
(tsS'components'
p14
(tsS'anchors'
p15
(tsss."
AnchorPoint: "top" 277 804 mark 0
LayerCount: 2
Fore
SplineSet
278 993 m 256
 220 993 186 1031 186 1085 c 256
 186 1139 220 1177 278 1177 c 256
 337 1177 371 1139 371 1085 c 256
 371 1031 337 993 278 993 c 256
278 902 m 256
 398 904 470 979 470 1086 c 256
 470 1192 400 1266 278 1267 c 256
 158 1266 87 1192 87 1086 c 256
 87 979 158 904 278 902 c 256
EndSplineSet
EndChar

StartChar: s
Encoding: 115 115 377
Width: 912
VWidth: 0
Flags: HW
PickledData: "(dp1
S'org.robofab.postScriptHintData'
p2
(dp3
sS'com.typemytype.robofont.layerData'
p4
(dp5
S'b'
(dp6
S'name'
p7
S's'
sS'lib'
p8
(dp9
sS'unicodes'
p10
(tsS'width'
p11
F912.99599999999998
sS'contours'
p12
(tsS'components'
p13
(tsS'anchors'
p14
(tsss."
AnchorPoint: "bot" 517 0 basechar 0
AnchorPoint: "top" 421 804 basechar 0
LayerCount: 2
Fore
SplineSet
534 -21 m 0
 678 -21 837 37 837 232 c 0
 837 392 732 436 606 472 c 1
 492 507 l 1
 402 533 367 549 367 594 c 0
 367 637 411 656 471 656 c 0
 528 656 610 631 645 597 c 1
 661 512 l 1
 825 512 l 1
 825 817 l 1
 643 817 l 1
 643 752 l 1
 594 792 521 826 414 826 c 0
 412 826 411 826 409 826 c 0
 266 826 93 757 93 593 c 0
 93 456 168 383 303 344 c 1
 459 297 l 1
 538 275 577 259 577 209 c 0
 577 169 541 145 478 145 c 0
 399 145 292 183 259 239 c 1
 252 299 l 1
 97 299 l 1
 97 0 l 1
 270 0 l 1
 270 73 l 1
 313 14 435 -21 534 -21 c 0
EndSplineSet
EndChar

StartChar: section
Encoding: 167 167 385
Width: 917
VWidth: 0
Flags: HW
PickledData: "(dp1
S'org.robofab.postScriptHintData'
p2
(dp3
sS'com.typemytype.robofont.layerData'
p4
(dp5
S'b'
(dp6
S'name'
p7
S'section'
p8
sS'lib'
p9
(dp10
sS'unicodes'
p11
(tsS'width'
p12
I891
sS'contours'
p13
(tsS'components'
p14
(tsS'anchors'
p15
(tsss."
LayerCount: 2
Fore
SplineSet
452 -185 m 256
 670 -185 782 -64 782 110 c 256
 782 174 760 239 724 285 c 257
 782 321 829 399 829 478 c 256
 829 619 732 697 502 808 c 256
 378 866 306 898 306 1001 c 256
 306 1100 366 1155 458 1155 c 256
 574 1155 603 1037 603 941 c 257
 703 941 758 991 758 1058 c 256
 758 1166 658 1245 466 1245 c 256
 278 1245 142 1149 142 982 c 256
 142 892 175 826 213 786 c 257
 150 754 106 691 106 618 c 256
 106 489 177 399 359 310 c 256
 602 190 641 152 641 62 c 256
 641 -34 579 -97 474 -97 c 256
 346 -97 280 10 280 154 c 257
 194 154 134 110 134 25 c 256
 134 -74 206 -185 452 -185 c 256
647 350 m 257
 604 379 554 407 483 442 c 256
 308 529 252 569 252 660 c 256
 252 688 262 714 278 732 c 257
 331 695 396 666 469 630 c 256
 629 552 669 494 669 421 c 256
 669 391 659 367 647 350 c 257
EndSplineSet
EndChar

StartChar: semicolon
Encoding: 59 59 386
Width: 695
VWidth: 0
Flags: HW
PickledData: "(dp1
S'org.robofab.postScriptHintData'
p2
(dp3
sS'com.typemytype.robofont.layerData'
p4
(dp5
S'b'
(dp6
S'name'
p7
S'semicolon'
p8
sS'lib'
p9
(dp10
sS'unicodes'
p11
(tsS'width'
p12
I519
sS'contours'
p13
(tsS'components'
p14
(tsS'anchors'
p15
(tsss."
LayerCount: 2
Fore
SplineSet
216 -245 m 257
 461 -244 533 -171 533 63 c 256
 533 120 529 290 523 333 c 257
 212 333 l 257
 215 32 l 257
 378 32 l 257
 378 -83 326 -131 216 -139 c 257
 216 -245 l 257
212 641 m 257
 511 641 l 257
 511 943 l 257
 212 943 l 257
 212 641 l 257
EndSplineSet
EndChar

StartChar: seven
Encoding: 55 55 387
Width: 1114
VWidth: 0
Flags: HW
PickledData: "(dp1
S'org.robofab.postScriptHintData'
p2
(dp3
sS'com.typemytype.robofont.layerData'
p4
(dp5
S'b'
(dp6
S'name'
p7
S'seven'
p8
sS'lib'
p9
(dp10
sS'unicodes'
p11
(tsS'width'
p12
I997
sS'contours'
p13
(tsS'components'
p14
(tsS'anchors'
p15
(tsss."
LayerCount: 2
Fore
SplineSet
295 0 m 257
 632 0 l 257
 632 0 777 488 1023 930 c 257
 1023 1152 l 257
 126 1152 l 257
 126 739 l 257
 343 739 l 257
 343 968 l 257
 702 968 l 257
 500 572 295 0 295 0 c 257
EndSplineSet
EndChar

StartChar: six
Encoding: 54 54 388
Width: 1111
VWidth: 0
Flags: HW
PickledData: "(dp1
S'org.robofab.postScriptHintData'
p2
(dp3
sS'com.typemytype.robofont.layerData'
p4
(dp5
S'b'
(dp6
S'name'
p7
S'six'
p8
sS'lib'
p9
(dp10
sS'unicodes'
p11
(tsS'width'
p12
I990
sS'contours'
p13
(tsS'components'
p14
(tsS'anchors'
p15
(tsss."
LayerCount: 2
Fore
SplineSet
555 -21 m 256
 827 -21 1013 121 1013 411 c 256
 1013 624 854 792 620 792 c 256
 512 792 404 729 396 680 c 257
 814 1135 l 257
 627 1290 l 257
 286 885 l 257
 121 699 104 558 104 412 c 256
 104 168 265 -21 555 -21 c 256
563 174 m 256
 437 174 376 267 376 407 c 256
 376 533 454 617 568 617 c 256
 681 617 743 529 743 409 c 256
 743 263 678 174 563 174 c 256
EndSplineSet
EndChar

StartChar: slash
Encoding: 47 47 389
Width: 624
VWidth: 0
Flags: HW
PickledData: "(dp1
S'org.robofab.postScriptHintData'
p2
(dp3
sS'com.typemytype.robofont.layerData'
p4
(dp5
S'b'
(dp6
S'name'
p7
S'slash'
p8
sS'lib'
p9
(dp10
sS'unicodes'
p11
(tsS'width'
p12
I730
sS'contours'
p13
(tsS'components'
p14
(tsS'anchors'
p15
(tsss."
LayerCount: 2
Fore
SplineSet
142 -168 m 257
 768 1190 l 257
 618 1255 l 257
 -11 -103 l 257
 142 -168 l 257
EndSplineSet
EndChar

StartChar: sterling
Encoding: 163 163 393
Width: 1125
VWidth: 0
Flags: HW
PickledData: "(dp1
S'org.robofab.postScriptHintData'
p2
(dp3
sS'com.typemytype.robofont.layerData'
p4
(dp5
S'b'
(dp6
S'name'
p7
S'sterling'
p8
sS'lib'
p9
(dp10
sS'unicodes'
p11
(tsS'width'
p12
I1049
sS'contours'
p13
(tsS'components'
p14
(tsS'anchors'
p15
(tsss."
LayerCount: 2
Fore
SplineSet
275 -21 m 256
 369 -21 438 22 488 82 c 257
 566 23 685 -21 782 -21 c 256
 997 -21 1053 101 1057 308 c 257
 1057 345 l 257
 888 345 l 257
 881 232 849 190 779 190 c 256
 729 190 677 219 637 243 c 257
 657 294 666 342 666 388 c 256
 666 452 649 512 622 566 c 257
 938 566 l 257
 938 703 l 257
 566 703 l 257
 531 764 504 836 504 901 c 256
 504 988 552 1046 652 1046 c 256
 749 1046 784 977 784 890 c 0
 784 886 784 883 784 879 c 257
 1010 879 l 257
 1010 883 1010 886 1010 890 c 0
 1010 1079 883 1220 648 1220 c 256
 362 1220 226 1083 226 894 c 256
 226 827 242 764 270 703 c 257
 121 703 l 257
 121 566 l 257
 342 566 l 257
 397 503 434 394 434 332 c 257
 399 361 330 394 267 394 c 256
 111 394 39 282 39 177 c 256
 39 80 106 -21 275 -21 c 256
272 100 m 256
 226 100 187 129 187 180 c 256
 187 229 218 257 263 257 c 256
 301 257 349 236 395 189 c 257
 367 127 316 100 272 100 c 256
EndSplineSet
EndChar

StartChar: summation
Encoding: 8721 8721 394
Width: 1303
VWidth: 0
Flags: HW
PickledData: "(dp1
S'org.robofab.postScriptHintData'
p2
(dp3
sS'com.typemytype.robofont.layerData'
p4
(dp5
S'b'
(dp6
S'name'
p7
S'summation'
p8
sS'lib'
p9
(dp10
sS'unicodes'
p11
(tsS'width'
p12
I1314
sS'contours'
p13
(tsS'components'
p14
(tsS'anchors'
p15
(tsss."
LayerCount: 2
Fore
SplineSet
78 0 m 257
 1192 0 l 257
 1192 401 l 257
 964 401 l 257
 964 182 l 257
 483 182 l 257
 798 531 l 257
 796 643 l 257
 550 970 l 257
 962 970 l 257
 962 781 l 257
 1187 781 l 257
 1187 1152 l 257
 78 1152 l 257
 78 970 l 257
 242 970 l 257
 554 545 l 257
 242 182 l 257
 78 182 l 257
 78 0 l 257
EndSplineSet
EndChar

StartChar: t
Encoding: 116 116 395
Width: 701
VWidth: 0
Flags: HW
PickledData: "(dp1
S'org.robofab.postScriptHintData'
p2
(dp3
sS'com.typemytype.robofont.layerData'
p4
(dp5
S'b'
(dp6
S'name'
p7
S't'
sS'lib'
p8
(dp9
sS'unicodes'
p10
(tsS'width'
p11
I671
sS'contours'
p12
(tsS'components'
p13
(tsS'anchors'
p14
(tsss."
AnchorPoint: "bot" 415 0 basechar 0
AnchorPoint: "caron.alt" 444 1071 basechar 0
AnchorPoint: "top" 299 1081 basechar 0
LayerCount: 2
Fore
SplineSet
399 0 m 2
 638 0 l 1
 638 182 l 1
 487 182 l 2
 434 182 426 214 426 259 c 2
 426 622 l 1
 635 622 l 1
 635 804 l 1
 426 804 l 1
 426 1145 l 1
 153 1082 l 1
 153 804 l 1
 26 804 l 1
 26 622 l 1
 152 622 l 1
 152 247 l 2
 152 81 234 0 399 0 c 2
EndSplineSet
EndChar

StartChar: thorn
Encoding: 254 254 401
Width: 1187
VWidth: 0
Flags: HW
PickledData: "(dp1
S'org.robofab.postScriptHintData'
p2
(dp3
sS'com.typemytype.robofont.layerData'
p4
(dp5
S'b'
(dp6
S'name'
p7
S'thorn'
p8
sS'lib'
p9
(dp10
sS'unicodes'
p11
(tsS'width'
p12
I1129
sS'contours'
p13
(tsS'components'
p14
(tsS'anchors'
p15
(tsss."
LayerCount: 2
Fore
SplineSet
43 -376 m 257
 463 -376 l 257
 461 1150 l 257
 31 1150 l 257
 31 970 l 257
 184 970 l 257
 184 -198 l 257
 43 -198 l 257
 43 -376 l 257
EndSplineSet
Refer: 296 -1 N 1 0 0 1 5 21 2
EndChar

StartChar: three
Encoding: 51 51 402
Width: 1142
VWidth: 0
Flags: HW
PickledData: "(dp1
S'org.robofab.postScriptHintData'
p2
(dp3
sS'com.typemytype.robofont.layerData'
p4
(dp5
S'b'
(dp6
S'name'
p7
S'three'
p8
sS'lib'
p9
(dp10
sS'unicodes'
p11
(tsS'width'
p12
I1068
sS'contours'
p13
(tsS'components'
p14
(tsS'anchors'
p15
(tsss."
LayerCount: 2
Fore
SplineSet
477 511 m 257
 673 511 756 461 756 351 c 0
 756 246 673 189 560 189 c 256
 455 189 357 241 312 378 c 257
 103 274 l 257
 155 90 339 -22 558 -22 c 256
 880 -22 1036 138 1036 342 c 256
 1036 467 960 579 801 617 c 257
 921 652 988 735 988 856 c 256
 988 1008 872 1175 552 1175 c 256
 392 1175 155 1087 108 889 c 257
 327 801 l 257
 357 893 432 962 539 962 c 256
 642 962 709 903 709 832 c 256
 709 747 650 683 477 683 c 257
 477 511 l 257
EndSplineSet
EndChar

StartChar: threequarters
Encoding: 190 190 403
Width: 2369
VWidth: 0
Flags: HW
PickledData: "(dp1
S'org.robofab.postScriptHintData'
p2
(dp3
sS'com.typemytype.robofont.layerData'
p4
(dp5
S'b'
(dp6
S'name'
p7
S'threequarters'
p8
sS'lib'
p9
(dp10
sS'unicodes'
p11
(tsS'width'
p12
I1834
sS'contours'
p13
(tsS'components'
p14
(tsS'anchors'
p15
(tsss."
LayerCount: 2
Fore
SplineSet
520 324 m 256
 748 324 859 438 859 583 c 256
 859 672 804 751 692 778 c 257
 777 803 825 862 825 948 c 256
 825 1056 742 1174 515 1174 c 256
 401 1174 233 1112 200 971 c 257
 356 909 l 257
 377 974 430 1023 506 1023 c 256
 579 1023 627 982 627 930 c 256
 627 871 584 825 462 825 c 257
 462 702 l 257
 601 702 659 667 659 590 c 0
 659 514 601 474 521 474 c 256
 446 474 376 511 345 609 c 257
 196 535 l 257
 233 404 364 324 520 324 c 256
1666 0 m 257
 2102 0 l 257
 2102 129 l 257
 1990 129 l 257
 1990 260 l 257
 2111 260 l 257
 2111 374 l 257
 1990 374 l 257
 1990 818 l 257
 1791 818 l 257
 1441 371 l 257
 1459 260 l 257
 1798 260 l 257
 1798 129 l 257
 1666 129 l 257
 1666 0 l 257
737 -72 m 257
 885 -72 l 257
 1684 1228 l 257
 1539 1228 l 257
 737 -72 l 257
1590 374 m 257
 1798 649 l 257
 1798 374 l 257
 1590 374 l 257
EndSplineSet
EndChar

StartChar: tilde
Encoding: 732 732 405
Width: 855
VWidth: 0
Flags: HW
PickledData: "(dp1
S'org.robofab.postScriptHintData'
p2
(dp3
sS'com.typemytype.robofont.layerData'
p4
(dp5
S'b'
(dp6
S'name'
p7
S'tilde'
p8
sS'lib'
p9
(dp10
sS'unicodes'
p11
(tsS'width'
p12
I635
sS'contours'
p13
(tsS'components'
p14
(tsS'anchors'
p15
(tsss."
AnchorPoint: "top" 431 804 mark 0
LayerCount: 2
Fore
SplineSet
602 903 m 256
 733 903 778 1010 791 1170 c 257
 668 1170 l 257
 659 1118 637 1100 606 1100 c 256
 527 1100 387 1188 273 1188 c 256
 168 1188 82 1119 67 926 c 257
 192 926 l 257
 200 977 227 992 260 992 c 256
 355 992 506 903 600 903 c 0
 601 903 601 903 602 903 c 256
EndSplineSet
EndChar

StartChar: trademark
Encoding: 8482 8482 406
Width: 1838
VWidth: 0
Flags: HW
PickledData: "(dp1
S'org.robofab.postScriptHintData'
p2
(dp3
sS'com.typemytype.robofont.layerData'
p4
(dp5
S'b'
(dp6
S'name'
p7
S'trademark'
p8
sS'lib'
p9
(dp10
sS'unicodes'
p11
(tsS'width'
p12
I2069
sS'contours'
p13
(tsS'components'
p14
(tsS'anchors'
p15
(tsss."
LayerCount: 2
Fore
SplineSet
821 467 m 257
 1116 467 l 257
 1116 570 l 257
 1030 570 l 257
 1030 983 l 257
 1227 496 l 257
 1301 496 l 257
 1492 982 l 257
 1492 570 l 257
 1407 570 l 257
 1407 467 l 257
 1726 467 l 257
 1726 570 l 257
 1641 570 l 257
 1641 1048 l 257
 1726 1048 l 257
 1726 1152 l 257
 1441 1152 l 257
 1266 732 l 257
 1095 1152 l 257
 821 1152 l 257
 821 1048 l 257
 906 1048 l 257
 906 570 l 257
 821 570 l 257
 821 467 l 257
261 467 m 257
 626 467 l 257
 626 570 l 257
 525 570 l 257
 525 1048 l 257
 622 1048 l 257
 622 873 l 257
 746 873 l 257
 746 1152 l 257
 140 1152 l 257
 140 873 l 257
 264 873 l 257
 264 1048 l 257
 364 1048 l 257
 364 570 l 257
 261 570 l 257
 261 467 l 257
EndSplineSet
EndChar

StartChar: two
Encoding: 50 50 407
Width: 1128
VWidth: 0
Flags: HW
PickledData: "(dp1
S'org.robofab.postScriptHintData'
p2
(dp3
sS'com.typemytype.robofont.layerData'
p4
(dp5
S'b'
(dp6
S'name'
p7
S'two'
p8
sS'lib'
p9
(dp10
sS'unicodes'
p11
(tsS'width'
p12
I1033
sS'contours'
p13
(tsS'components'
p14
(tsS'anchors'
p15
(tsss."
LayerCount: 2
Fore
SplineSet
152 0 m 257
 1012 0 l 257
 1007 375 l 257
 807 375 l 257
 805 175 l 257
 481 175 l 257
 770 451 l 258
 904 579 1001 689 1001 824 c 256
 1001 1083 766 1174 555 1174 c 256
 257 1174 125 1009 125 818 c 256
 125 762 136 706 158 653 c 257
 396 653 l 257
 383 699 377 741 377 779 c 256
 377 900 440 972 556 972 c 256
 660 972 720 917 720 820 c 0
 720 758 661 682 581 604 c 258
 153 192 l 257
 152 0 l 257
EndSplineSet
EndChar

StartChar: u
Encoding: 117 117 409
Width: 1157
VWidth: 0
Flags: HW
PickledData: "(dp1
S'org.robofab.postScriptHintData'
p2
(dp3
sS'com.typemytype.robofont.layerData'
p4
(dp5
S'b'
(dp6
S'name'
p7
S'u'
sS'lib'
p8
(dp9
sS'unicodes'
p10
(tsS'width'
p11
I1088
sS'contours'
p12
(tsS'components'
p13
(tsS'anchors'
p14
(tsss."
AnchorPoint: "top" 533 804 basechar 0
LayerCount: 2
Fore
SplineSet
431 -21 m 0
 549 -21 641 21 724 89 c 1
 726 0 l 1
 1128 0 l 1
 1128 182 l 1
 998 182 l 1
 998 804 l 1
 594 804 l 1
 594 622 l 1
 724 622 l 1
 724 263 l 1
 672 213 600 180 533 180 c 0
 458 180 409 225 409 332 c 2
 409 804 l 1
 18 804 l 1
 18 622 l 1
 135 622 l 1
 135 282 l 2
 135 115 213 -21 431 -21 c 0
EndSplineSet
EndChar

StartChar: uc_main_stem
Encoding: 65558 -1 412
Width: 1003
VWidth: 0
Flags: HW
PickledData: "(dp1
S'org.robofab.postScriptHintData'
p2
(dp3
sS'com.schriftgestaltung.Glyphs.Export'
p4
I00
sS'com.typemytype.robofont.layerData'
p5
(dp6
S'b'
(dp7
S'name'
p8
S'uc_main_stem'
p9
sS'lib'
p10
(dp11
sS'unicodes'
p12
(tsS'width'
p13
I786
sS'contours'
p14
(tsS'components'
p15
(tsS'anchors'
p16
(tsss."
LayerCount: 2
Fore
SplineSet
173 0 m 257
 816 0 l 257
 816 182 l 257
 652 182 l 257
 652 970 l 257
 816 970 l 257
 816 1152 l 257
 173 1152 l 257
 173 970 l 257
 337 970 l 257
 337 182 l 257
 173 182 l 257
 173 0 l 257
EndSplineSet
EndChar

StartChar: underscore
Encoding: 95 95 418
Width: 1153
VWidth: 0
Flags: HW
PickledData: "(dp1
S'org.robofab.postScriptHintData'
p2
(dp3
sS'com.typemytype.robofont.layerData'
p4
(dp5
S'b'
(dp6
S'name'
p7
S'underscore'
p8
sS'lib'
p9
(dp10
sS'unicodes'
p11
(tsS'width'
p12
I1290
sS'contours'
p13
(tsS'components'
p14
(tsS'anchors'
p15
(tsss."
LayerCount: 2
Fore
SplineSet
70 -205 m 257
 1083 -205 l 257
 1083 -82 l 257
 70 -82 l 257
 70 -205 l 257
EndSplineSet
EndChar

StartChar: uni00B5
Encoding: 181 181 424
Width: 1164
VWidth: 0
Flags: HW
PickledData: "(dp1
S'org.robofab.postScriptHintData'
p2
(dp3
sS'com.typemytype.robofont.layerData'
p4
(dp5
S'b'
(dp6
S'name'
p7
S'uni00B5'
p8
sS'lib'
p9
(dp10
sS'unicodes'
p11
(tsS'width'
p12
I1190
sS'contours'
p13
(tsS'components'
p14
(tsS'anchors'
p15
(tsss."
LayerCount: 2
Fore
SplineSet
135 -277 m 257
 409 -277 l 257
 409 479 l 257
 135 479 l 257
 135 -277 l 257
EndSplineSet
Refer: 409 117 N 1 0 0 1 0 0 2
EndChar

StartChar: uni02C9
Encoding: 713 713 490
Width: 600
VWidth: 0
Flags: HW
PickledData: "(dp1
S'org.robofab.postScriptHintData'
p2
(dp3
s."
LayerCount: 2
Fore
SplineSet
53 868 m 257
 521 868 l 257
 521 1034 l 257
 53 1034 l 257
 53 868 l 257
EndSplineSet
EndChar

StartChar: uni0307
Encoding: 775 775 491
Width: 535
VWidth: 0
Flags: HW
PickledData: "(dp1
S'org.robofab.postScriptHintData'
p2
(dp3
sS'com.typemytype.robofont.layerData'
p4
(dp5
S'b'
(dp6
S'name'
p7
S'uni0307'
p8
sS'lib'
p9
(dp10
sS'unicodes'
p11
(tsS'width'
p12
I535
sS'contours'
p13
(tsS'components'
p14
(tsS'anchors'
p15
(tsss."
AnchorPoint: "top" 270 804 mark 0
LayerCount: 2
Fore
SplineSet
268 889 m 256
 363 889 424 952 423 1038 c 257
 423 1128 359 1186 268 1186 c 256
 179 1186 113 1127 113 1040 c 0
 113 952 177 889 268 889 c 256
EndSplineSet
EndChar

StartChar: uni2113
Encoding: 8467 8467 510
Width: 835
VWidth: 0
Flags: HW
PickledData: "(dp1
S'org.robofab.postScriptHintData'
p2
(dp3
s."
LayerCount: 2
Fore
SplineSet
728 -10 m 257
 753 190 l 257
 592 190 551 219 551 306 c 0
 551 343 558 390 567 450 c 258
 680 1189 l 257
 210 1189 l 257
 173 969 l 257
 344 969 l 257
 242 285 l 258
 240 270 239 255 239 241 c 0
 239 51 446 -10 716 -10 c 0
 720 -10 724 -10 728 -10 c 257
EndSplineSet
EndChar

StartChar: uni2126
Encoding: 8486 8486 511
Width: 1457
VWidth: 0
Flags: HW
PickledData: "(dp1
S'org.robofab.postScriptHintData'
p2
(dp3
s."
LayerCount: 2
Fore
SplineSet
89 0 m 257
 663 0 l 257
 663 168 l 257
 453 242 370 442 370 615 c 256
 370 822 498 972 729 972 c 256
 957 972 1086 822 1086 614 c 256
 1086 442 1004 242 794 168 c 257
 794 0 l 257
 1368 0 l 257
 1368 182 l 257
 1108 182 l 257
 1290 290 1368 459 1368 630 c 256
 1368 916 1131 1174 729 1174 c 256
 328 1174 89 915 89 628 c 256
 89 458 168 290 350 182 c 257
 89 182 l 257
 89 0 l 257
EndSplineSet
EndChar

StartChar: uni2206
Encoding: 8710 8710 512
Width: 1374
VWidth: 0
Flags: HW
PickledData: "(dp1
S'org.robofab.postScriptHintData'
p2
(dp3
sS'com.typemytype.robofont.layerData'
p4
(dp5
S'b'
(dp6
S'name'
p7
S'uni2206'
p8
sS'lib'
p9
(dp10
sS'unicodes'
p11
(tsS'width'
p12
I1158
sS'contours'
p13
(tsS'components'
p14
(tsS'anchors'
p15
(tsss."
LayerCount: 2
Fore
SplineSet
94 0 m 257
 1279 0 l 257
 1279 162 l 257
 845 1159 l 257
 562 1159 l 257
 94 158 l 257
 94 0 l 257
331 203 m 257
 331 203 640 919 647 950 c 257
 654 918 921 203 921 203 c 257
 331 203 l 257
EndSplineSet
EndChar

StartChar: uniFB00
Encoding: 65559 -1 515
Width: 1582
VWidth: 0
Flags: HW
PickledData: "(dp1
S'org.robofab.postScriptHintData'
p2
(dp3
s."
LayerCount: 2
Fore
SplineSet
72 0 m 257
 728 0 l 257
 728 182 l 257
 521 182 l 257
 521 622 l 257
 1029 622 l 257
 1029 182 l 257
 862 182 l 257
 862 0 l 257
 1518 0 l 257
 1518 182 l 257
 1304 182 l 257
 1304 622 l 257
 1517 622 l 257
 1517 804 l 257
 1304 804 l 257
 1304 916 l 258
 1304 1044 1326 1070 1374 1070 c 256
 1425 1070 1432 1027 1445 951 c 257
 1647 1013 l 257
 1628 1170 1538 1240 1359 1240 c 256
 1082 1240 1029 1090 1029 876 c 258
 1029 804 l 257
 521 804 l 257
 521 916 l 258
 521 1044 563 1070 610 1070 c 256
 679 1070 687 1027 699 951 c 257
 902 1013 l 257
 883 1170 792 1240 576 1240 c 256
 299 1240 246 1054 246 876 c 258
 246 804 l 257
 70 804 l 257
 70 622 l 257
 246 622 l 257
 246 182 l 257
 72 182 l 257
 72 0 l 257
EndSplineSet
EndChar

StartChar: uniFB03
Encoding: 65560 -1 516
Width: 2067
VWidth: 0
Flags: HW
PickledData: "(dp1
S'org.robofab.postScriptHintData'
p2
(dp3
s."
LayerCount: 2
Fore
SplineSet
72 0 m 257
 670 0 l 257
 670 182 l 257
 521 182 l 257
 521 622 l 257
 873 622 l 257
 873 804 l 257
 521 804 l 257
 521 937 l 258
 521 1031 602 1079 719 1079 c 256
 814 1079 932 1048 1054 985 c 257
 1146 1082 l 257
 1016 1204 830 1267 661 1267 c 256
 438 1267 246 1157 246 927 c 258
 246 804 l 257
 70 804 l 257
 70 622 l 257
 246 622 l 257
 246 182 l 257
 72 182 l 257
 72 0 l 257
EndSplineSet
Refer: 243 64257 N 1 0 0 1 684 0 2
EndChar

StartChar: v
Encoding: 118 118 521
Width: 1142
VWidth: 0
Flags: HW
PickledData: "(dp1
S'org.robofab.postScriptHintData'
p2
(dp3
sS'com.typemytype.robofont.layerData'
p4
(dp5
S'b'
(dp6
S'name'
p7
S'v'
sS'lib'
p8
(dp9
sS'unicodes'
p10
(tsS'width'
p11
I1052
sS'contours'
p12
(tsS'components'
p13
(tsS'anchors'
p14
(tsss."
LayerCount: 2
Fore
SplineSet
455 0 m 1
 693 0 l 1
 998 622 l 1
 1118 622 l 1
 1118 804 l 1
 669 804 l 1
 669 622 l 1
 770 622 l 1
 610 265 l 1
 451 622 l 1
 544 622 l 1
 544 804 l 1
 24 804 l 1
 24 622 l 1
 151 622 l 1
 455 0 l 1
EndSplineSet
EndChar

StartChar: w
Encoding: 119 119 522
Width: 1470
VWidth: 0
Flags: HW
PickledData: "(dp1
S'org.robofab.postScriptHintData'
p2
(dp3
sS'com.typemytype.robofont.layerData'
p4
(dp5
S'b'
(dp6
S'name'
p7
S'w'
sS'lib'
p8
(dp9
sS'unicodes'
p10
(tsS'width'
p11
I1417
sS'contours'
p12
(tsS'components'
p13
(tsS'anchors'
p14
(tsss."
AnchorPoint: "top" 784 804 basechar 0
LayerCount: 2
Fore
SplineSet
359 0 m 1
 603 0 l 1
 757 422 l 1
 917 0 l 1
 1128 0 l 1
 1341 622 l 1
 1441 622 l 1
 1441 804 l 1
 1088 804 l 1
 1088 622 l 1
 1175 622 l 1
 1044 231 l 1
 902 622 l 1
 987 622 l 1
 987 804 l 1
 578 804 l 1
 578 622 l 1
 665 622 l 1
 525 232 l 1
 395 622 l 1
 473 622 l 1
 473 804 l 1
 29 804 l 1
 29 622 l 1
 134 622 l 1
 359 0 l 1
EndSplineSet
EndChar

StartChar: x
Encoding: 120 120 527
Width: 1062
VWidth: 0
Flags: HW
PickledData: "(dp1
S'org.robofab.postScriptHintData'
p2
(dp3
sS'com.typemytype.robofont.layerData'
p4
(dp5
S'b'
(dp6
S'name'
p7
S'x'
sS'lib'
p8
(dp9
sS'unicodes'
p10
(tsS'width'
p11
I1039
sS'contours'
p12
(tsS'components'
p13
(tsS'anchors'
p14
(tsss."
LayerCount: 2
Fore
SplineSet
36 0 m 1
 445 0 l 1
 445 182 l 1
 340 182 l 1
 492 317 l 1
 645 182 l 1
 546 182 l 1
 546 0 l 1
 1028 0 l 1
 1028 182 l 1
 923 182 l 1
 661 429 l 1
 888 622 l 1
 1017 622 l 1
 1017 804 l 1
 610 804 l 1
 610 622 l 1
 699 622 l 1
 565 500 l 1
 434 622 l 1
 501 622 l 1
 501 804 l 1
 37 804 l 1
 37 622 l 1
 156 622 l 1
 392 401 l 1
 144 182 l 1
 36 182 l 1
 36 0 l 1
EndSplineSet
EndChar

StartChar: y
Encoding: 121 121 528
Width: 1145
VWidth: 0
Flags: HW
PickledData: "(dp1
S'org.robofab.postScriptHintData'
p2
(dp3
sS'com.typemytype.robofont.layerData'
p4
(dp5
S'b'
(dp6
S'name'
p7
S'y'
sS'lib'
p8
(dp9
sS'unicodes'
p10
(tsS'width'
p11
I1092
sS'contours'
p12
(tsS'components'
p13
(tsS'anchors'
p14
(tsss."
AnchorPoint: "top" 578 804 basechar 0
LayerCount: 2
Fore
SplineSet
204 -358 m 1
 328 -358 l 2
 534 -358 587 -279 680 -81 c 1
 1015 622 l 1
 1136 622 l 1
 1136 804 l 1
 630 804 l 1
 630 622 l 1
 745 622 l 1
 586 253 l 1
 406 622 l 1
 512 622 l 1
 512 804 l 1
 10 804 l 1
 10 622 l 1
 147 622 l 1
 433 65 l 1
 512 65 l 1
 468 -36 l 1
 422 -146 372 -154 307 -154 c 2
 204 -154 l 1
 204 -358 l 1
EndSplineSet
EndChar

StartChar: yen
Encoding: 165 165 532
Width: 1365
VWidth: 0
Flags: HW
PickledData: "(dp1
S'org.robofab.postScriptHintData'
p2
(dp3
sS'com.typemytype.robofont.layerData'
p4
(dp5
S'b'
(dp6
S'name'
p7
S'yen'
p8
sS'lib'
p9
(dp10
sS'unicodes'
p11
(tsS'width'
p12
I1320
sS'contours'
p13
(tsS'components'
p14
(tsS'anchors'
p15
(tsss."
LayerCount: 2
Fore
SplineSet
245 297 m 257
 1118 297 l 257
 1118 414 l 257
 784 414 l 257
 784 503 l 257
 1118 503 l 257
 1118 622 l 257
 245 622 l 257
 245 503 l 257
 624 503 l 257
 624 414 l 257
 245 414 l 257
 245 297 l 257
EndSplineSet
Refer: 140 89 N 1 0 0 1 0 0 2
EndChar

StartChar: z
Encoding: 122 122 534
Width: 956
VWidth: 0
Flags: HW
PickledData: "(dp1
S'org.robofab.postScriptHintData'
p2
(dp3
sS'com.typemytype.robofont.layerData'
p4
(dp5
S'b'
(dp6
S'name'
p7
S'z'
sS'lib'
p8
(dp9
sS'unicodes'
p10
(tsS'width'
p11
I985
sS'contours'
p12
(tsS'components'
p13
(tsS'anchors'
p14
(tsss."
AnchorPoint: "top" 492 804 basechar 0
LayerCount: 2
Fore
SplineSet
85 0 m 1
 904 0 l 1
 904 335 l 1
 714 335 l 1
 714 162 l 1
 407 162 l 1
 874 630 l 1
 874 804 l 1
 85 804 l 1
 85 485 l 1
 273 485 l 1
 273 640 l 1
 546 640 l 1
 85 167 l 1
 85 0 l 1
EndSplineSet
EndChar

StartChar: zero
Encoding: 48 48 538
Width: 1155
VWidth: 0
Flags: HW
PickledData: "(dp1
S'org.robofab.postScriptHintData'
p2
(dp3
sS'com.typemytype.robofont.layerData'
p4
(dp5
S'b'
(dp6
S'name'
p7
S'zero'
p8
sS'lib'
p9
(dp10
sS'unicodes'
p11
(tsS'width'
p12
I1100
sS'contours'
p13
(tsS'components'
p14
(tsS'anchors'
p15
(tsss."
LayerCount: 2
Fore
SplineSet
577 187 m 256
 440 187 376 310 376 556 c 256
 376 828 440 966 577 966 c 256
 715 966 779 829 779 557 c 256
 779 311 715 187 577 187 c 256
577 -22 m 256
 896 -22 1067 187 1067 557 c 256
 1067 941 896 1174 577 1174 c 256
 259 1174 88 940 88 557 c 256
 88 187 259 -22 577 -22 c 256
EndSplineSet
EndChar
